<svg width="60" height="44" viewBox="0 0 60 44" fill="none" xmlns="http://www.w3.org/2000/svg">
<g id="Group">
<g id="Group_2">
<path id="Vector" d="M58.7436 7.52799C58.404 6.24529 57.7423 5.084 56.8289 4.16757C55.8897 3.22296 54.7387 2.54726 53.4843 2.20424C48.79 0.894469 29.9825 0.894469 29.9825 0.894469C22.1419 0.80004 14.3032 1.21536 6.51067 2.13809C5.25631 2.50645 4.1074 3.19725 3.16612 4.14905C2.24124 5.09103 1.57133 6.25262 1.22138 7.52535C0.380724 12.3192 -0.0277233 17.1868 0.00154275 22.0625C-0.0284532 26.9338 0.378992 31.7997 1.22138 36.5996C1.56383 37.867 2.23124 39.0233 3.15862 39.9574C4.08599 40.8914 5.24084 41.5661 6.51067 41.9233C11.2675 43.2305 29.9825 43.2305 29.9825 43.2305C37.8331 43.325 45.6818 42.9097 53.4843 41.9869C54.7387 41.6438 55.8897 40.9681 56.8289 40.0235C57.7419 39.1073 58.4029 37.9458 58.7411 36.6631C59.6037 31.8711 60.0232 27.0015 59.9935 22.1233C60.0583 17.2245 59.6395 12.332 58.7436 7.52535V7.52799ZM24.0033 31.1224V13.0052L39.6512 22.0651L24.0033 31.1224Z" fill="#968E8E"/>
</g>
</g>
</svg>
