<svg width="60" height="58" viewBox="0 0 60 58" fill="none" xmlns="http://www.w3.org/2000/svg">
<path id="Vector" d="M59.8999 34.7701L54.7497 12.7963C54.6148 12.2265 54.3507 11.6939 53.9771 11.2381C53.6034 10.7823 53.1298 10.4151 52.5915 10.1639L31.7266 0.385062C31.1858 0.131565 30.594 0 29.9947 0C29.3953 0 28.8035 0.131565 28.2627 0.385062L7.40617 10.168C6.86797 10.4193 6.39444 10.7866 6.02078 11.2423C5.64713 11.6981 5.38297 12.2306 5.24796 12.8004L0.0998447 34.7742C-0.0187733 35.2808 -0.0318473 35.8056 0.0614082 36.3173C0.154664 36.8289 0.352324 37.3168 0.642518 37.7515C0.712702 37.8579 0.788344 37.9608 0.869151 38.0597L15.3072 55.6787C15.6827 56.1356 16.1578 56.504 16.6975 56.7569C17.2373 57.0097 17.8279 57.1406 18.426 57.1398L41.5779 57.1357C42.1758 57.1366 42.7663 57.006 43.306 56.7535C43.8457 56.501 44.3209 56.133 44.6967 55.6767L59.1306 38.0556C59.5037 37.6008 59.7669 37.0688 59.9001 36.4997C60.0334 35.9306 60.0333 35.3392 59.8999 34.7701ZM51.9781 34.5048C51.8811 34.8341 51.6566 35.113 51.3528 35.282C51.0489 35.4509 50.6898 35.4964 50.3522 35.4089H50.3439L50.3335 35.4068L50.3189 35.4027L50.3085 35.3987L50.19 35.3742C50.1217 35.3611 50.0537 35.3461 49.9862 35.3293C49.7307 35.2586 49.4811 35.1685 49.2398 35.0599C49.1213 35.0089 48.9965 34.9538 48.8655 34.9048L48.8281 34.8926C48.1376 34.6203 47.4218 34.4146 46.6907 34.2783C46.4668 34.2633 46.2458 34.3351 46.0752 34.4783L45.9983 34.5293L45.9942 34.5334H45.99C45.8158 34.5004 45.6411 34.4697 45.466 34.4416C44.258 38.166 41.6988 41.3256 38.2741 43.3205C38.2949 43.3654 38.3157 43.4225 38.3385 43.4858C38.3749 43.5965 38.4215 43.7038 38.4778 43.8062L38.482 43.8102L38.4799 43.8164L38.4446 43.9021C38.3414 44.0964 38.3191 44.3224 38.3822 44.5326C38.6875 45.2128 39.0586 45.8627 39.4904 46.4733C39.5673 46.5896 39.6463 46.6957 39.7233 46.7998C39.8863 47.0057 40.0323 47.2241 40.1599 47.4528C40.1932 47.514 40.2368 47.6059 40.2743 47.6834L40.3221 47.7834C40.4113 47.932 40.468 48.0972 40.4885 48.2685C40.5091 48.4398 40.493 48.6135 40.4413 48.7783C40.3896 48.9432 40.3034 49.0957 40.1883 49.226C40.0732 49.3564 39.9317 49.4617 39.7728 49.5354C39.6138 49.609 39.441 49.6493 39.2653 49.6537C39.0896 49.6581 38.9149 49.6265 38.7524 49.561C38.5898 49.4954 38.443 49.3972 38.3213 49.2728C38.1995 49.1484 38.1056 49.0005 38.0454 48.8384L37.9996 48.7466C37.9617 48.6726 37.9257 48.5978 37.8915 48.5221C37.7883 48.2805 37.7042 48.0315 37.6399 47.7773C37.6046 47.6548 37.5692 47.5304 37.5276 47.3998L37.5152 47.3671C37.3018 46.6665 37.0198 45.9879 36.6731 45.3407C36.5435 45.1599 36.3474 45.0355 36.1262 44.9938L36.041 44.9673H36.0368L36.0348 44.9632L35.91 44.7428L35.7728 44.4979C35.0765 44.7561 34.363 44.9675 33.6374 45.1305C30.5141 45.8288 27.2498 45.5986 24.2602 44.4694L23.9795 44.9673L23.9754 44.9693C23.776 44.9991 23.5905 45.0873 23.4431 45.2224C23.1243 45.6689 22.8878 46.1669 22.7445 46.6937C22.6613 46.9324 22.5781 47.1794 22.4783 47.4222C22.4375 47.5491 22.4001 47.677 22.3661 47.8059C22.3024 48.058 22.219 48.305 22.1166 48.5446C22.0845 48.6158 22.0498 48.686 22.0126 48.7548L21.9627 48.8568V48.8609L21.9585 48.8649C21.8491 49.0987 21.6753 49.2979 21.4567 49.4399C21.2381 49.582 20.9834 49.6613 20.7214 49.669C20.5487 49.6698 20.3781 49.6321 20.2224 49.5588C19.9174 49.3927 19.6906 49.1163 19.5904 48.7884C19.4902 48.4605 19.5245 48.1072 19.686 47.8038L19.7421 47.6855L19.8461 47.4732C19.9744 47.2436 20.1204 47.024 20.2827 46.8161C20.3596 46.7141 20.4386 46.6059 20.5156 46.4937C20.9561 45.8669 21.3342 45.1999 21.6446 44.502C21.6774 44.2678 21.639 44.0293 21.5344 43.8164V43.8082L21.7569 43.2838C18.3443 41.3039 15.786 38.169 14.5628 34.4681L14.0222 34.5579V34.5559L13.9661 34.5252C13.7725 34.3933 13.5446 34.3183 13.309 34.3089C12.578 34.4455 11.8622 34.6512 11.1716 34.9232L11.1363 34.9375C11.012 34.9849 10.8886 35.0346 10.7662 35.0864C10.5228 35.1958 10.2711 35.2866 10.0135 35.3578C9.95112 35.3742 9.86795 35.3925 9.78479 35.4089L9.69122 35.4293L9.68083 35.4333L9.66627 35.4374H9.64756C9.48036 35.4918 9.30343 35.5113 9.12811 35.4947C8.95278 35.4781 8.78294 35.4257 8.62946 35.3408C8.47598 35.256 8.34225 35.1406 8.23686 35.0021C8.13146 34.8636 8.05673 34.705 8.01744 34.5365C7.97815 34.368 7.97518 34.1932 8.00871 34.0235C8.04225 33.8538 8.11155 33.6929 8.21217 33.551C8.3128 33.4091 8.44252 33.2894 8.59303 33.1996C8.74354 33.1098 8.91151 33.0518 9.08617 33.0294H9.09657L9.10697 33.0254H9.11944L9.21508 33.0009C9.29825 32.9805 9.3835 32.9601 9.45211 32.9478C9.71315 32.9036 9.97734 32.8797 10.2422 32.8764C10.3753 32.8703 10.5104 32.8642 10.6497 32.854L10.6809 32.8499C11.4271 32.7999 12.1667 32.679 12.889 32.4887C13.0829 32.3721 13.2472 32.2137 13.3693 32.0255L13.4192 31.9601L13.4213 31.9581H13.4255L13.939 31.8112C13.3744 27.9473 14.2804 24.0147 16.484 20.7651L16.0889 20.4182V20.4141L16.0806 20.359C16.0654 20.126 15.9824 19.9022 15.8415 19.7142C15.267 19.2296 14.6459 18.8011 13.9869 18.4347C13.8698 18.3682 13.7513 18.3042 13.6313 18.2429C13.3945 18.1262 13.1672 17.9918 12.9514 17.8408C12.8878 17.7934 12.8254 17.7444 12.7643 17.6939L12.6915 17.6368L12.6811 17.6307L12.6707 17.6225C12.3847 17.4026 12.192 17.0862 12.1301 16.7348C12.0992 16.5717 12.1039 16.404 12.1441 16.2429C12.1842 16.0818 12.2589 15.9308 12.363 15.8002C12.4841 15.6558 12.6381 15.5414 12.8125 15.4663C12.987 15.3911 13.177 15.3573 13.3673 15.3676C13.6868 15.3816 13.9934 15.4952 14.2426 15.692L14.3195 15.7492L14.5212 15.9083C14.7206 16.082 14.9061 16.2703 15.0764 16.4716C15.1595 16.5675 15.2469 16.6654 15.3425 16.7654L15.3633 16.7858C15.8677 17.3276 16.4248 17.8197 17.0267 18.2551C17.2223 18.3642 17.4535 18.3942 17.6712 18.3388L17.7585 18.3245H17.7627L17.7648 18.3265C17.8396 18.3796 18.0746 18.5449 18.2097 18.6347C20.404 16.3475 23.2443 14.7558 26.3665 14.0636C27.1076 13.9002 27.8592 13.787 28.6162 13.7248L28.6453 13.2106C28.8388 13.0434 28.9795 12.8253 29.0507 12.5821C29.0778 11.8448 29.0319 11.1067 28.9135 10.3782L28.9114 10.3618C28.8919 10.2307 28.8691 10.1 28.8428 9.97003C28.7884 9.71446 28.7537 9.45525 28.7388 9.19458V8.98031L28.7409 8.87828V8.84359C28.7205 8.66953 28.7378 8.49321 28.7917 8.32618C28.8456 8.15916 28.9348 8.0052 29.0536 7.87442C29.1724 7.74364 29.318 7.63898 29.4809 7.56733C29.6438 7.49567 29.8203 7.45862 29.9988 7.45862C30.1773 7.45862 30.3538 7.49567 30.5167 7.56733C30.6796 7.63898 30.8252 7.74364 30.944 7.87442C31.0628 8.0052 31.1521 8.15916 31.206 8.32618C31.2599 8.49321 31.2772 8.66953 31.2567 8.84359L31.2609 8.96602V9.1905C31.2462 9.45118 31.2115 9.71041 31.1569 9.96595C31.1315 10.096 31.1093 10.2266 31.0904 10.3578L31.0821 10.4231C30.9666 11.1354 30.922 11.8571 30.949 12.578C30.9843 12.7959 31.1052 12.9915 31.2859 13.1228L31.3545 13.1841L31.3586 13.1861V13.1902C31.3607 13.28 31.3753 13.5657 31.3857 13.7289C33.3494 13.9013 35.2645 14.4241 37.0369 15.2717C38.7976 16.1093 40.3912 17.2497 41.7422 18.6387L42.2121 18.3102H42.2162L42.2807 18.3143C42.5129 18.3514 42.751 18.3224 42.9668 18.2306C43.5586 17.8006 44.1066 17.3154 44.6032 16.7817L44.6489 16.7368C44.7425 16.6389 44.8277 16.543 44.913 16.4471C45.0853 16.2444 45.2729 16.0547 45.4744 15.8798C45.5284 15.8328 45.6033 15.7777 45.676 15.7206L45.7509 15.6614C45.8776 15.5402 46.0288 15.4464 46.1947 15.3861C46.3606 15.3257 46.5376 15.3002 46.7142 15.3111C46.8908 15.322 47.0631 15.3691 47.22 15.4494C47.3769 15.5296 47.515 15.6413 47.6252 15.7772C47.7354 15.913 47.8154 16.07 47.86 16.2381C47.9047 16.4061 47.9129 16.5815 47.8842 16.7529C47.8555 16.9243 47.7905 17.0878 47.6935 17.233C47.5964 17.3782 47.4694 17.5019 47.3207 17.596L47.2292 17.6674C47.1668 17.7204 47.0982 17.7735 47.0462 17.8123C46.8305 17.9633 46.6032 18.0977 46.3663 18.2143C46.2499 18.2755 46.1293 18.3367 46.0066 18.4081C45.3481 18.7754 44.727 19.2038 44.152 19.6876C44.0007 19.8506 43.9201 20.0652 43.9274 20.2855L43.9191 20.3753V20.3774L43.917 20.3794L43.7278 20.5468C43.6447 20.6188 43.5622 20.6916 43.4804 20.7651C45.6925 24.002 46.6173 27.923 46.0794 31.7847L46.5784 31.9275H46.5805L46.6158 31.9806C46.733 32.1822 46.906 32.3471 47.1149 32.456C47.8381 32.6453 48.5783 32.7655 49.325 32.8152H49.35C49.4914 32.8295 49.6265 32.8356 49.7596 32.8397C50.0245 32.8434 50.2886 32.8673 50.5497 32.9111C50.6121 32.9233 50.6952 32.9437 50.7784 32.9641L50.9115 32.9948C51.2549 33.0598 51.5587 33.2543 51.7577 33.5366C51.9568 33.8189 52.0351 34.1665 51.976 34.5048H51.9781Z" fill="#04D6BD"/>
</svg>
