<svg width="68" height="55" viewBox="0 0 68 55" fill="none" xmlns="http://www.w3.org/2000/svg">
<path id="Vector" d="M26.3642 37.641C26.3642 40.5364 24.82 45.2743 21.165 45.2743C17.51 45.2743 15.9658 40.5364 15.9658 37.641C15.9658 34.7456 17.51 30.0077 21.165 30.0077C24.82 30.0077 26.3642 34.7456 26.3642 37.641ZM68 30.645C68 35.0642 67.5467 39.7467 65.5208 43.8058C60.1517 54.4176 45.39 54.1683 34.8217 54.1683C24.0833 54.1683 8.44333 54.5423 2.86167 43.8058C0.793333 39.7883 0 35.0642 0 30.645C0 24.8403 1.96917 19.3543 5.87917 14.9074C5.1425 12.7185 4.78833 10.4188 4.78833 8.14683C4.78833 5.16832 5.4825 3.67214 6.85667 0.970703C13.2742 0.970703 17.3825 2.21752 22.27 5.95797C26.3783 5.00208 30.6 4.57262 34.8358 4.57262C38.6608 4.57262 42.5142 4.97437 46.2258 5.84715C51.0425 2.14825 55.1508 0.970703 61.4975 0.970703C62.8858 3.67214 63.5658 5.16832 63.5658 8.14683C63.5658 10.4188 63.1975 12.6769 62.475 14.8242C66.3708 19.3128 68 24.8403 68 30.645ZM58.8908 37.641C58.8908 31.5593 55.1083 26.198 48.4783 26.198C45.8008 26.198 43.2367 26.669 40.545 27.0292C38.4342 27.3478 36.3233 27.4725 34.1558 27.4725C32.0025 27.4725 29.8917 27.3478 27.7667 27.0292C25.1175 26.669 22.525 26.198 19.8333 26.198C13.2033 26.198 9.42083 31.5593 9.42083 37.641C9.42083 49.8044 20.8108 51.6746 30.7275 51.6746H37.5558C47.515 51.6746 58.8908 49.8182 58.8908 37.641ZM47.1892 30.0077C43.5342 30.0077 41.99 34.7456 41.99 37.641C41.99 40.5364 43.5342 45.2743 47.1892 45.2743C50.8442 45.2743 52.3883 40.5364 52.3883 37.641C52.3883 34.7456 50.8442 30.0077 47.1892 30.0077Z" fill="#968E8E"/>
</svg>
