<svg width="60" height="58" viewBox="0 0 60 58" fill="none" xmlns="http://www.w3.org/2000/svg">
<path id="Vector" d="M60 6.77783C57.7935 7.92319 55.4232 8.69708 52.9314 9.04689C55.5025 7.24462 57.4261 4.40806 58.3432 1.06648C55.9275 2.74735 53.2837 3.9305 50.5267 4.56449C48.6727 2.24548 46.217 0.708406 43.5409 0.191902C40.8648 -0.324602 38.1179 0.208363 35.7269 1.70805C33.3358 3.20774 31.4343 5.59024 30.3175 8.48567C29.2007 11.3811 28.9312 14.6274 29.5508 17.7207C24.6561 17.4328 19.8678 15.9424 15.4966 13.3463C11.1254 10.7503 7.26902 7.10646 4.17775 2.65142C3.12076 4.78737 2.51299 7.26383 2.51299 9.90127C2.51181 12.2756 3.01092 14.6135 3.96603 16.7076C4.92114 18.8017 6.30273 20.5873 7.9882 21.9059C6.0335 21.8331 4.12192 21.2143 2.41258 20.1012V20.2869C2.41238 23.617 3.39566 26.8445 5.19559 29.422C6.99551 31.9994 9.5012 33.768 12.2875 34.4275C10.4742 35.0024 8.57308 35.0871 6.72774 34.6752C7.51387 37.5405 9.04517 40.0461 11.1073 41.8412C13.1694 43.6363 15.6591 44.6311 18.2278 44.6863C13.8673 48.6963 8.48204 50.8715 2.93843 50.862C1.95644 50.8623 0.975274 50.7951 0 50.6607C5.62708 54.8991 12.1774 57.1485 18.8673 57.1398C41.5133 57.1398 53.8932 35.1674 53.8932 16.111C53.8932 15.4919 53.88 14.8666 53.8563 14.2475C56.2643 12.2074 58.3429 9.68116 59.9947 6.78711L60 6.77783Z" fill="#968E8E"/>
</svg>
