<svg width="60" height="58" viewBox="0 0 60 58" fill="none" xmlns="http://www.w3.org/2000/svg">
<g id="Group 55">
<path id="Vector" fill-rule="evenodd" clip-rule="evenodd" d="M7.41981e-07 4.77378C7.41981e-07 3.5077 0.528126 2.29347 1.46819 1.39821C2.40826 0.502956 3.68327 6.36411e-06 5.01273 6.36411e-06H54.9818C55.6407 -0.00101839 56.2932 0.121722 56.9022 0.361199C57.5112 0.600677 58.0645 0.952189 58.5307 1.39561C58.9968 1.83903 59.3665 2.36566 59.6186 2.94533C59.8708 3.525 60.0004 4.14634 60 4.77378V52.3608C60.0007 52.9884 59.8715 53.6099 59.6197 54.1899C59.368 54.7698 58.9986 55.2968 58.5328 55.7407C58.0669 56.1846 57.5138 56.5366 56.9049 56.7767C56.2961 57.0168 55.6435 57.1402 54.9845 57.1398H5.01273C4.35422 57.1398 3.70216 57.0163 3.09381 56.7762C2.48546 56.5361 1.93274 56.1843 1.46723 55.7407C1.00172 55.2971 0.632542 54.7706 0.380789 54.1911C0.129036 53.6116 -0.000357533 52.9906 7.41981e-07 52.3634V4.77378ZM23.7491 21.7859H31.8736V25.6714C33.0464 23.4377 36.0464 21.4274 40.5545 21.4274C49.1973 21.4274 51.2455 25.8765 51.2455 34.0397V49.161H42.4991V35.8994C42.4991 31.2503 41.3264 28.6271 38.3482 28.6271C34.2164 28.6271 32.4982 31.4555 32.4982 35.8994V49.161H23.7491V21.7859ZM8.74909 48.8052H17.4982V21.4274H8.74909V48.8026V48.8052ZM18.75 12.498C18.7665 13.2114 18.6332 13.9208 18.3579 14.5845C18.0827 15.2481 17.671 15.8528 17.147 16.3629C16.623 16.8729 15.9974 17.2782 15.3067 17.5549C14.616 17.8316 13.8743 17.9742 13.125 17.9742C12.3757 17.9742 11.634 17.8316 10.9433 17.5549C10.2526 17.2782 9.62697 16.8729 9.10301 16.3629C8.57904 15.8528 8.16735 15.2481 7.89207 14.5845C7.6168 13.9208 7.4835 13.2114 7.5 12.498C7.53238 11.0977 8.13923 9.76518 9.1906 8.78574C10.242 7.80629 11.6542 7.25785 13.125 7.25785C14.5958 7.25785 16.008 7.80629 17.0594 8.78574C18.1108 9.76518 18.7176 11.0977 18.75 12.498Z" fill="#968E8E"/>
</g>
</svg>
