<svg width="324" height="285" viewBox="0 0 324 285" fill="none" xmlns="http://www.w3.org/2000/svg">
<g clip-path="url(#clip0_182_3621)">
<path d="M146.36 114.807C146.076 114.807 145.852 114.583 145.852 114.299V51.6584C145.852 37.4968 134.332 25.9765 120.171 25.9765H28.7397C28.4553 25.9765 28.2318 25.753 28.2318 25.4686C28.2318 25.1841 28.4553 24.9606 28.7397 24.9606H120.171C134.891 24.9606 146.868 36.9381 146.868 51.6584V114.299C146.868 114.573 146.645 114.807 146.36 114.807Z" fill="#FCCC6B"/>
<path d="M153.472 114.807C153.187 114.807 152.964 114.583 152.964 114.299V50.226C152.964 32.4478 138.497 17.9814 120.719 17.9814H107.076C106.791 17.9814 106.568 17.7579 106.568 17.4735C106.568 17.189 106.791 16.9655 107.076 16.9655H120.719C139.056 16.9655 153.98 31.8891 153.98 50.226V114.299C153.98 114.573 153.756 114.807 153.472 114.807Z" fill="#FCCC6B"/>
<path d="M161.091 114.807C160.806 114.807 160.583 114.583 160.583 114.299V49.1999C160.583 27.3073 142.774 9.49862 120.882 9.49862H100.056C99.7713 9.49862 99.5478 9.27513 99.5478 8.99068C99.5478 8.70622 99.7713 8.48273 100.056 8.48273H120.892C143.343 8.48273 161.609 26.7486 161.609 49.1999V114.299C161.599 114.573 161.375 114.807 161.091 114.807Z" fill="#FCCC6B"/>
<path d="M26.7587 27.7442C25.499 27.7442 24.4831 26.7181 24.4831 25.4685C24.4831 24.2088 25.5092 23.1929 26.7587 23.1929C28.0185 23.1929 29.0344 24.219 29.0344 25.4685C29.0344 26.7181 28.0083 27.7442 26.7587 27.7442ZM26.7587 24.2088C26.0679 24.2088 25.499 24.7777 25.499 25.4685C25.499 26.1594 26.0679 26.7283 26.7587 26.7283C27.4496 26.7283 28.0185 26.1594 28.0185 25.4685C28.0185 24.7676 27.4496 24.2088 26.7587 24.2088Z" fill="#FCCC6B"/>
<path d="M105.044 19.749C103.784 19.749 102.768 18.723 102.768 17.4734C102.768 16.2137 103.794 15.1978 105.044 15.1978C106.304 15.1978 107.319 16.2239 107.319 17.4734C107.319 18.723 106.304 19.749 105.044 19.749ZM105.044 16.2036C104.353 16.2036 103.784 16.7725 103.784 17.4633C103.784 18.1541 104.353 18.723 105.044 18.723C105.735 18.723 106.304 18.1541 106.304 17.4633C106.304 16.7725 105.745 16.2036 105.044 16.2036Z" fill="#FCCC6B"/>
<path d="M98.0545 11.2764C96.7948 11.2764 95.7789 10.2504 95.7789 9.00083C95.7789 7.74112 96.8049 6.72522 98.0545 6.72522C99.3142 6.72522 100.33 7.75128 100.33 9.00083C100.33 10.2504 99.3142 11.2764 98.0545 11.2764ZM98.0545 7.74112C97.3637 7.74112 96.7948 8.31002 96.7948 9.00083C96.7948 9.69164 97.3637 10.2605 98.0545 10.2605C98.7453 10.2605 99.3142 9.69164 99.3142 9.00083C99.3142 8.31002 98.7554 7.74112 98.0545 7.74112Z" fill="#FCCC6B"/>
<path d="M168.385 114.807C168.101 114.807 167.877 114.583 167.877 114.299V47.4526C167.877 22.8272 147.844 2.78354 123.208 2.78354H78.2241C77.9397 2.78354 77.7162 2.56004 77.7162 2.27559C77.7162 1.99114 77.9397 1.76764 78.2241 1.76764H123.208C148.392 1.76764 168.893 22.2583 168.893 47.4526V114.299C168.893 114.573 168.67 114.807 168.385 114.807Z" fill="#FCCC6B"/>
<path d="M76.3854 4.55122C75.1256 4.55122 74.1097 3.52517 74.1097 2.27561C74.1097 1.0159 75.1358 0 76.3854 0C77.6451 0 78.661 1.02606 78.661 2.27561C78.661 3.53532 77.6349 4.55122 76.3854 4.55122ZM76.3854 1.0159C75.6945 1.0159 75.1256 1.5848 75.1256 2.27561C75.1256 2.96642 75.6945 3.53532 76.3854 3.53532C77.0762 3.53532 77.6451 2.96642 77.6451 2.27561C77.6451 1.5848 77.0762 1.0159 76.3854 1.0159Z" fill="#FCCC6B"/>
<path d="M176.37 114.807C176.086 114.807 175.862 114.583 175.862 114.299V47.4526C175.862 22.2583 196.353 1.76764 221.547 1.76764H239.793C240.077 1.76764 240.3 1.99114 240.3 2.27559C240.3 2.56004 240.077 2.78354 239.793 2.78354H221.547C196.922 2.78354 176.878 22.817 176.878 47.4526V114.299C176.878 114.573 176.654 114.807 176.37 114.807Z" fill="#FCCC6B"/>
<path d="M241.56 4.55122C240.3 4.55122 239.285 3.52517 239.285 2.27561C239.285 1.0159 240.311 0 241.56 0C242.82 0 243.836 1.02606 243.836 2.27561C243.836 3.53532 242.81 4.55122 241.56 4.55122ZM241.56 1.0159C240.869 1.0159 240.3 1.5848 240.3 2.27561C240.3 2.96642 240.869 3.53532 241.56 3.53532C242.251 3.53532 242.82 2.96642 242.82 2.27561C242.82 1.5848 242.251 1.0159 241.56 1.0159Z" fill="#FCCC6B"/>
<path d="M250.571 4.55122C249.311 4.55122 248.296 3.52517 248.296 2.27561C248.296 1.0159 249.322 0 250.571 0C251.831 0 252.847 1.02606 252.847 2.27561C252.847 3.53532 251.831 4.55122 250.571 4.55122ZM250.571 1.0159C249.88 1.0159 249.311 1.5848 249.311 2.27561C249.311 2.96642 249.88 3.53532 250.571 3.53532C251.262 3.53532 251.831 2.96642 251.831 2.27561C251.831 1.5848 251.262 1.0159 250.571 1.0159Z" fill="#FCCC6B"/>
<path d="M259.592 4.55122C258.333 4.55122 257.317 3.52517 257.317 2.27561C257.317 1.0159 258.343 0 259.592 0C260.852 0 261.868 1.02606 261.868 2.27561C261.868 3.53532 260.842 4.55122 259.592 4.55122ZM259.592 1.0159C258.902 1.0159 258.333 1.5848 258.333 2.27561C258.333 2.96642 258.902 3.53532 259.592 3.53532C260.283 3.53532 260.852 2.96642 260.852 2.27561C260.852 1.5848 260.283 1.0159 259.592 1.0159Z" fill="#FCCC6B"/>
<path opacity="0.9" d="M268.603 4.55122C267.344 4.55122 266.328 3.52517 266.328 2.27561C266.328 1.0159 267.354 0 268.603 0C269.863 0 270.879 1.02606 270.879 2.27561C270.879 3.53532 269.863 4.55122 268.603 4.55122ZM268.603 1.0159C267.913 1.0159 267.344 1.5848 267.344 2.27561C267.344 2.96642 267.913 3.53532 268.603 3.53532C269.294 3.53532 269.863 2.96642 269.863 2.27561C269.863 1.5848 269.294 1.0159 268.603 1.0159Z" fill="#FCCC6B"/>
<path opacity="0.7" d="M277.625 4.55122C276.365 4.55122 275.349 3.52517 275.349 2.27561C275.349 1.0159 276.375 0 277.625 0C278.884 0 279.9 1.02606 279.9 2.27561C279.9 3.53532 278.874 4.55122 277.625 4.55122ZM277.625 1.0159C276.934 1.0159 276.365 1.5848 276.365 2.27561C276.365 2.96642 276.934 3.53532 277.625 3.53532C278.315 3.53532 278.884 2.96642 278.884 2.27561C278.884 1.5848 278.315 1.0159 277.625 1.0159Z" fill="#FCCC6B"/>
<path opacity="0.5" d="M286.636 4.55122C285.376 4.55122 284.36 3.52517 284.36 2.27561C284.36 1.0159 285.386 0 286.636 0C287.895 0 288.911 1.02606 288.911 2.27561C288.911 3.53532 287.895 4.55122 286.636 4.55122ZM286.636 1.0159C285.945 1.0159 285.376 1.5848 285.376 2.27561C285.376 2.96642 285.945 3.53532 286.636 3.53532C287.326 3.53532 287.895 2.96642 287.895 2.27561C287.895 1.5848 287.326 1.0159 286.636 1.0159Z" fill="#FCCC6B"/>
<path opacity="0.3" d="M295.657 4.55122C294.397 4.55122 293.381 3.52517 293.381 2.27561C293.381 1.0159 294.407 0 295.657 0C296.916 0 297.932 1.02606 297.932 2.27561C297.932 3.53532 296.906 4.55122 295.657 4.55122ZM295.657 1.0159C294.966 1.0159 294.397 1.5848 294.397 2.27561C294.397 2.96642 294.966 3.53532 295.657 3.53532C296.348 3.53532 296.916 2.96642 296.916 2.27561C296.916 1.5848 296.348 1.0159 295.657 1.0159Z" fill="#FCCC6B"/>
<path opacity="0.1" d="M304.668 4.55122C303.408 4.55122 302.392 3.52517 302.392 2.27561C302.392 1.0159 303.418 0 304.668 0C305.927 0 306.943 1.02606 306.943 2.27561C306.943 3.53532 305.927 4.55122 304.668 4.55122ZM304.668 1.0159C303.977 1.0159 303.408 1.5848 303.408 2.27561C303.408 2.96642 303.977 3.53532 304.668 3.53532C305.359 3.53532 305.927 2.96642 305.927 2.27561C305.927 1.5848 305.359 1.0159 304.668 1.0159Z" fill="#FCCC6B"/>
<path d="M61.4313 187.23C61.3399 187.23 61.2586 187.21 61.1774 187.159L24.4425 165.947C24.2901 165.855 24.1885 165.693 24.1885 165.51C24.1885 165.327 24.2901 165.165 24.4425 165.073L61.1774 143.861C61.3298 143.77 61.5329 143.77 61.6853 143.861L98.4202 165.073C98.5726 165.165 98.6742 165.327 98.6742 165.51C98.6742 165.693 98.5726 165.855 98.4202 165.947L61.6853 187.159C61.604 187.199 61.5126 187.23 61.4313 187.23ZM25.7124 165.51L61.4313 186.133L97.1503 165.51L61.4313 144.887L25.7124 165.51Z" fill="#FCCC6B"/>
<path d="M265.993 187.23C265.901 187.23 265.82 187.21 265.739 187.159L229.004 165.947C228.851 165.855 228.75 165.693 228.75 165.51C228.75 165.327 228.851 165.165 229.004 165.073L265.739 143.861C265.891 143.77 266.094 143.77 266.247 143.861L302.981 165.073C303.134 165.165 303.235 165.327 303.235 165.51C303.235 165.693 303.134 165.855 302.981 165.947L266.247 187.159C266.175 187.199 266.084 187.23 265.993 187.23ZM230.284 165.51L266.003 186.133L301.722 165.51L266.003 144.887L230.284 165.51Z" fill="#FCCC6B"/>
<path d="M162.625 250.754C162.534 250.754 162.452 250.734 162.371 250.683L125.636 229.471C125.484 229.38 125.382 229.217 125.382 229.034C125.382 228.851 125.484 228.689 125.636 228.597L162.371 207.385C162.523 207.294 162.727 207.294 162.879 207.385L199.614 228.597C199.766 228.689 199.868 228.851 199.868 229.034C199.868 229.217 199.766 229.38 199.614 229.471L162.879 250.683C162.798 250.734 162.706 250.754 162.625 250.754ZM126.906 229.034L162.625 249.657L198.344 229.034L162.625 208.411L126.906 229.034Z" fill="#FCCC6B"/>
<path d="M61.4313 160.309L18.1338 135.318L61.4313 110.316L104.719 135.318L61.4313 160.309Z" fill="#312A91"/>
<path d="M61.4313 153.116L18.1338 128.125L61.4313 103.134L104.719 128.125L61.4313 153.116Z" fill="#312A91"/>
<g opacity="0.9">
<path d="M61.4313 108.721L28.0083 89.4193L61.4313 70.1274L94.8442 89.4193L61.4313 108.721Z" fill="url(#paint0_linear_182_3621)"/>
<path d="M94.8442 89.4193V128.125L61.4313 147.417V108.721L94.8442 89.4193Z" fill="url(#paint1_linear_182_3621)"/>
<path d="M28.0083 89.4193V128.125L61.4313 147.417V108.721L28.0083 89.4193Z" fill="url(#paint2_linear_182_3621)"/>
</g>
<path opacity="0.7" d="M61.4313 147.417L28.0083 128.125L61.4313 108.833L94.8442 128.125L61.4313 147.417Z" fill="url(#paint3_linear_182_3621)"/>
<path d="M104.719 128.125V135.318L61.4313 160.309V153.116L104.719 128.125Z" fill="url(#paint4_linear_182_3621)"/>
<path d="M18.1338 128.125V135.318L61.4313 160.309V153.116L18.1338 128.125Z" fill="#312A91"/>
<path opacity="0.7" d="M18.1338 128.125V135.318L61.4313 160.309V153.116L18.1338 128.125Z" fill="url(#paint5_linear_182_3621)"/>
<path d="M61.4313 100.208L18.1338 75.2068L61.4313 50.2158L104.719 75.2068L61.4313 100.208Z" fill="#312A91"/>
<path d="M18.1338 68.0245V75.2069L61.4313 100.208V93.0156L18.1338 68.0245Z" fill="#312A91"/>
<path opacity="0.3" d="M61.4313 100.208V153.116L18.1338 128.125V75.2068L61.4313 100.208Z" fill="#42E8E0"/>
<path opacity="0.3" d="M28.0083 80.9061V128.125L61.4313 147.417L94.8442 128.125V80.9061L61.4313 100.208L28.0083 80.9061Z" fill="#42E8E0"/>
<path opacity="0.3" d="M61.4313 100.208V147.417L28.0083 128.125V80.9061L61.4313 100.208Z" fill="#42E8E0"/>
<path opacity="0.5" d="M18.1338 75.2068V128.125L61.4313 153.116L104.719 128.125V75.2068L61.4313 100.208L18.1338 75.2068Z" fill="#5CFFF3"/>
<path d="M61.4313 93.0156L18.1338 68.0245L61.4313 43.0334L104.719 68.0245L61.4313 93.0156Z" fill="#312A91"/>
<path opacity="0.7" d="M61.4313 93.0156L18.1338 68.0245L61.4313 43.0334L104.719 68.0245L61.4313 93.0156Z" fill="url(#paint6_linear_182_3621)"/>
<path d="M104.719 68.0245V75.2069L61.4313 100.208V93.0156L104.719 68.0245Z" fill="url(#paint7_linear_182_3621)"/>
<path opacity="0.7" d="M18.1338 68.0245V75.2069L61.4313 100.208V93.0156L18.1338 68.0245Z" fill="url(#paint8_linear_182_3621)"/>
<path d="M19.1598 68.0245L61.9393 43.328L61.4313 43.0334L18.1338 68.0245L61.4313 93.0156L61.9393 92.7209L19.1598 68.0245Z" fill="url(#paint9_linear_182_3621)"/>
<path d="M61.4313 90.6485L22.1059 67.9432L61.4313 50.0532L100.747 67.9432L61.4313 90.6485Z" fill="#312A91"/>
<path d="M22.1059 66.2161V67.9431L61.4313 90.6485V88.9214L22.1059 66.2161Z" fill="#312A91"/>
<path d="M61.4313 88.9215L22.1059 66.2162L61.4313 43.521L100.747 66.2263L61.4313 88.9215Z" fill="#312A91"/>
<path opacity="0.7" d="M61.4313 88.9215L22.1059 66.2162L61.4313 43.521L100.747 66.2263L61.4313 88.9215Z" fill="url(#paint10_linear_182_3621)"/>
<path d="M100.747 66.2263V67.9432L61.4313 90.6485V88.9215L100.747 66.2263Z" fill="url(#paint11_linear_182_3621)"/>
<path opacity="0.7" d="M22.1059 66.2161V67.9431L61.4313 90.6485V88.9214L22.1059 66.2161Z" fill="url(#paint12_linear_182_3621)"/>
<path d="M23.0304 66.2162L61.8885 43.7851L61.4313 43.521L22.1059 66.2162L61.4313 88.9215L61.8885 88.6573L23.0304 66.2162Z" fill="url(#paint13_linear_182_3621)"/>
<path d="M34.6929 67.0797L33.2097 66.2162L61.4313 49.9313L62.9146 50.7847L34.6929 67.0797Z" fill="#42E8E0"/>
<path d="M37.6695 68.7966L36.1863 67.933L64.3978 51.6482L65.881 52.5015L37.6695 68.7966Z" fill="#42E8E0"/>
<path d="M40.6359 70.5033L39.1527 69.6499L67.3642 53.3651L68.8474 54.2184L40.6359 70.5033Z" fill="#42E8E0"/>
<path d="M43.6024 72.2201L42.1191 71.3668L70.3408 55.0718L71.824 55.9353L43.6024 72.2201Z" fill="#42E8E0"/>
<path d="M46.5789 73.937L45.0957 73.0836L73.3072 56.7886L74.7904 57.6521L46.5789 73.937Z" fill="#42E8E0"/>
<path d="M49.5453 75.6539L48.0621 74.7903L76.2736 58.5055L77.767 59.3588L49.5453 75.6539Z" fill="#42E8E0"/>
<path d="M52.5219 77.3707L51.0286 76.5072L79.2502 60.2224L80.7334 61.0757L52.5219 77.3707Z" fill="#42E8E0"/>
<path d="M55.4883 79.0775L54.0051 78.2241L82.2166 61.9393L83.6998 62.7926L55.4883 79.0775Z" fill="#42E8E0"/>
<path d="M58.4548 80.7943L56.9716 79.9409L85.183 63.6459L86.6764 64.5094L58.4548 80.7943Z" fill="#42E8E0"/>
<path d="M61.4314 82.5112L59.938 81.6578L88.1596 65.3628L89.6428 66.2263L61.4314 82.5112Z" fill="#42E8E0"/>
<path d="M61.4313 49.9313L62.9145 50.7847L61.4313 51.6482V49.9313Z" fill="#73FFF5"/>
<path d="M64.3978 51.6482L65.881 52.5015L64.3978 53.3651V51.6482Z" fill="#73FFF5"/>
<path d="M67.3642 53.3651L68.8474 54.2184L67.3642 55.0718V53.3651Z" fill="#73FFF5"/>
<path d="M70.3408 55.0718L71.824 55.9353L70.3408 56.7886V55.0718Z" fill="#73FFF5"/>
<path d="M73.3072 56.7886L74.7904 57.6521L73.3072 58.5055V56.7886Z" fill="#73FFF5"/>
<path d="M76.2736 58.5055L77.767 59.3588L76.2736 60.2224V58.5055Z" fill="#73FFF5"/>
<path d="M79.2502 60.2224L80.7334 61.0757L79.2502 61.9392V60.2224Z" fill="#73FFF5"/>
<path d="M82.2166 61.9393L83.6998 62.7926L82.2166 63.646V61.9393Z" fill="#73FFF5"/>
<path d="M85.183 63.6459L86.6764 64.5094L85.183 65.3628V63.6459Z" fill="#73FFF5"/>
<path d="M88.1596 65.3628L89.6428 66.2263L88.1596 67.0797V65.3628Z" fill="#73FFF5"/>
<g opacity="0.4">
<path d="M34.6929 67.0797L33.2097 66.2162L61.4313 49.9313L62.9146 50.7847L34.6929 67.0797Z" fill="#7979D3"/>
<path d="M37.6695 68.7966L36.1863 67.933L64.3978 51.6482L65.881 52.5015L37.6695 68.7966Z" fill="#7979D3"/>
<path d="M40.6359 70.5033L39.1527 69.6499L67.3642 53.3651L68.8474 54.2184L40.6359 70.5033Z" fill="#7979D3"/>
<path d="M43.6024 72.2201L42.1191 71.3668L70.3408 55.0718L71.824 55.9353L43.6024 72.2201Z" fill="#7979D3"/>
<path d="M46.5789 73.937L45.0957 73.0836L73.3072 56.7886L74.7904 57.6521L46.5789 73.937Z" fill="#7979D3"/>
<path d="M49.5453 75.6539L48.0621 74.7903L76.2736 58.5055L77.767 59.3588L49.5453 75.6539Z" fill="#7979D3"/>
<path d="M52.5219 77.3707L51.0286 76.5072L79.2502 60.2224L80.7334 61.0757L52.5219 77.3707Z" fill="#7979D3"/>
<path d="M55.4883 79.0775L54.0051 78.2241L82.2166 61.9393L83.6998 62.7926L55.4883 79.0775Z" fill="#7979D3"/>
<path d="M58.4548 80.7943L56.9716 79.9409L85.183 63.6459L86.6764 64.5094L58.4548 80.7943Z" fill="#7979D3"/>
<path d="M61.4314 82.5112L59.938 81.6578L88.1596 65.3628L89.6428 66.2263L61.4314 82.5112Z" fill="#7979D3"/>
</g>
<path opacity="0.5" d="M18.1338 75.2068V128.125L18.7332 128.47V75.5523L18.1338 75.2068Z" fill="#42E8E0"/>
<path opacity="0.5" d="M104.719 75.2068V128.125L104.119 128.47V75.5523L104.719 75.2068Z" fill="#42E8E0"/>
<path opacity="0.5" d="M61.4313 100.208L60.4053 99.6088V152.537L61.4313 153.116L62.4472 152.537V99.6088L61.4313 100.208Z" fill="#42E8E0"/>
<path opacity="0.5" d="M18.7332 122.913L58.089 98.2779L30.0299 82.0743L18.7332 88.251V122.913Z" fill="#5CFFF3"/>
<path opacity="0.5" d="M27.5613 133.56L60.4053 114.898V128.47L38.6752 139.981L27.5613 133.56Z" fill="#5CFFF3"/>
<g opacity="0.1">
<path d="M20.8259 81.7188L58.15 103.256V101.58L20.8259 80.0425V81.7188Z" fill="#0B0244"/>
<path d="M20.8259 85.6706L58.15 107.208V105.531L20.8259 83.9944V85.6706Z" fill="#0B0244"/>
<path d="M20.8259 89.6225L58.15 111.159V109.483L20.8259 87.9462V89.6225Z" fill="#0B0244"/>
<path d="M20.8259 93.5743L58.15 115.111V113.435L20.8259 91.8981V93.5743Z" fill="#0B0244"/>
<path d="M20.8259 97.5261L58.15 119.063V117.387L20.8259 95.8499V97.5261Z" fill="#0B0244"/>
<path d="M20.8259 101.478L58.15 123.015V121.339L20.8259 99.8018V101.478Z" fill="#0B0244"/>
<path d="M20.8259 105.43L58.15 126.967V125.291L20.8259 103.754V105.43Z" fill="#0B0244"/>
<path d="M20.8259 109.382L58.15 130.919V129.242L20.8259 107.705V109.382Z" fill="#0B0244"/>
<path d="M20.8259 113.334L58.15 134.871V133.194L20.8259 111.657V113.334Z" fill="#0B0244"/>
<path d="M20.8259 117.285L58.15 138.822V137.146L20.8259 115.609V117.285Z" fill="#0B0244"/>
<path d="M20.8259 121.237L58.15 142.774V141.098L20.8259 119.561V121.237Z" fill="#0B0244"/>
<path d="M20.8259 125.189L58.15 146.726V145.05L20.8259 123.513V125.189Z" fill="#0B0244"/>
</g>
<path d="M265.535 159.201L222.248 134.21L265.535 109.219L308.823 134.21L265.535 159.201Z" fill="#312A91"/>
<path d="M265.535 152.019L222.248 127.018L265.535 102.027L308.823 127.018L265.535 152.019Z" fill="#312A91"/>
<g opacity="0.9">
<path d="M265.535 107.614L232.112 88.3221L265.535 69.0201L298.958 88.3221L265.535 107.614Z" fill="url(#paint14_linear_182_3621)"/>
<path d="M298.958 88.3221V127.018L265.535 146.32V107.614L298.958 88.3221Z" fill="url(#paint15_linear_182_3621)"/>
<path d="M232.112 88.3221V127.018L265.535 146.32V107.614L232.112 88.3221Z" fill="url(#paint16_linear_182_3621)"/>
</g>
<path opacity="0.7" d="M265.535 146.32L232.112 127.018L265.535 107.726L298.958 127.018L265.535 146.32Z" fill="url(#paint17_linear_182_3621)"/>
<path d="M308.823 127.018V134.21L265.535 159.201V152.019L308.823 127.018Z" fill="url(#paint18_linear_182_3621)"/>
<path d="M222.248 127.018V134.21L265.535 159.201V152.019L222.248 127.018Z" fill="#312A91"/>
<path opacity="0.7" d="M222.248 127.018V134.21L265.535 159.201V152.019L222.248 127.018Z" fill="url(#paint19_linear_182_3621)"/>
<path d="M265.535 99.1008L222.248 74.1097L265.535 49.1187L308.823 74.1097L265.535 99.1008Z" fill="#312A91"/>
<path d="M222.248 66.9172V74.1097L265.535 99.1008V91.9083L222.248 66.9172Z" fill="#312A91"/>
<path opacity="0.3" d="M265.535 99.1008V152.019L222.248 127.018V74.1097L265.535 99.1008Z" fill="#42E8E0"/>
<path opacity="0.3" d="M232.112 79.7988V127.018L265.535 146.32L298.958 127.018V79.8089L265.535 99.1008L232.112 79.7988Z" fill="#42E8E0"/>
<path opacity="0.3" d="M265.535 99.1008V146.32L232.112 127.018V79.7988L265.535 99.1008Z" fill="#42E8E0"/>
<path opacity="0.5" d="M222.248 74.1097V127.018L265.535 152.019L308.823 127.018V74.1097L265.535 99.1008L222.248 74.1097Z" fill="#5CFFF3"/>
<path d="M265.535 91.9083L222.248 66.9172L265.535 41.9261L308.823 66.9172L265.535 91.9083Z" fill="#312A91"/>
<path opacity="0.7" d="M265.535 91.9083L222.248 66.9172L265.535 41.9261L308.823 66.9172L265.535 91.9083Z" fill="url(#paint20_linear_182_3621)"/>
<path d="M308.823 66.9172V74.1097L265.535 99.1008V91.9083L308.823 66.9172Z" fill="url(#paint21_linear_182_3621)"/>
<path opacity="0.7" d="M222.248 66.9172V74.1097L265.535 99.1008V91.9083L222.248 66.9172Z" fill="url(#paint22_linear_182_3621)"/>
<path d="M223.264 66.9172L266.043 42.2207L265.535 41.9261L222.248 66.9172L265.535 91.9083L266.043 91.6137L223.264 66.9172Z" fill="url(#paint23_linear_182_3621)"/>
<path d="M265.535 89.5412L226.21 66.8359L265.535 48.9459L304.861 66.846L265.535 89.5412Z" fill="#312A91"/>
<path d="M226.21 65.119V66.8359L265.535 89.5412V87.8243L226.21 65.119Z" fill="#312A91"/>
<path d="M265.535 87.8243L226.21 65.119L265.535 42.4137L304.861 65.119L265.535 87.8243Z" fill="#312A91"/>
<path opacity="0.7" d="M265.535 87.8243L226.21 65.119L265.535 42.4137L304.861 65.119L265.535 87.8243Z" fill="url(#paint24_linear_182_3621)"/>
<path d="M304.861 65.119V66.846L265.535 89.5412V87.8243L304.861 65.119Z" fill="url(#paint25_linear_182_3621)"/>
<path opacity="0.7" d="M226.21 65.119V66.8359L265.535 89.5412V87.8243L226.21 65.119Z" fill="url(#paint26_linear_182_3621)"/>
<path d="M227.134 65.119L265.993 42.6778L265.535 42.4137L226.21 65.119L265.535 87.8243L265.993 87.55L227.134 65.119Z" fill="url(#paint27_linear_182_3621)"/>
<path d="M238.797 65.9724L237.314 65.119L265.535 48.824L267.019 49.6875L238.797 65.9724Z" fill="#42E8E0"/>
<path d="M241.774 67.6892L240.29 66.8359L268.502 50.5409L269.985 51.4044L241.774 67.6892Z" fill="#42E8E0"/>
<path d="M244.74 69.4061L243.257 68.5528L271.468 52.2578L272.962 53.1111L244.74 69.4061Z" fill="#42E8E0"/>
<path d="M247.706 71.123L246.223 70.2595L274.445 53.9746L275.928 54.828L247.706 71.123Z" fill="#42E8E0"/>
<path d="M250.683 72.8297L249.2 71.9764L277.411 55.6915L278.894 56.5449L250.683 72.8297Z" fill="#42E8E0"/>
<path d="M253.649 74.5465L252.166 73.6932L280.378 57.3982L281.871 58.2617L253.649 74.5465Z" fill="#42E8E0"/>
<path d="M256.626 76.2634L255.133 75.4101L283.354 59.1151L284.837 59.9786L256.626 76.2634Z" fill="#42E8E0"/>
<path d="M259.592 77.9803L258.109 77.127L286.321 60.832L287.804 61.6853L259.592 77.9803Z" fill="#42E8E0"/>
<path d="M262.559 79.6972L261.076 78.8337L289.297 62.5488L290.78 63.4022L262.559 79.6972Z" fill="#42E8E0"/>
<path d="M265.535 81.4039L264.052 80.5505L292.264 64.2657L293.747 65.119L265.535 81.4039Z" fill="#42E8E0"/>
<path d="M265.535 48.824L267.019 49.6875L265.535 50.5409V48.824Z" fill="#73FFF5"/>
<path d="M268.502 50.5409L269.985 51.4044L268.502 52.2578V50.5409Z" fill="#73FFF5"/>
<path d="M271.468 52.2578L272.962 53.1111L271.468 53.9746V52.2578Z" fill="#73FFF5"/>
<path d="M274.445 53.9746L275.928 54.828L274.445 55.6915V53.9746Z" fill="#73FFF5"/>
<path d="M277.411 55.6915L278.894 56.5449L277.411 57.3982V55.6915Z" fill="#73FFF5"/>
<path d="M280.378 57.3982L281.871 58.2617L280.378 59.1151V57.3982Z" fill="#73FFF5"/>
<path d="M283.354 59.1151L284.837 59.9786L283.354 60.8319V59.1151Z" fill="#73FFF5"/>
<path d="M286.321 60.832L287.804 61.6853L286.321 62.5488V60.832Z" fill="#73FFF5"/>
<path d="M289.297 62.5488L290.78 63.4022L289.297 64.2657V62.5488Z" fill="#73FFF5"/>
<path d="M292.264 64.2657L293.747 65.119L292.264 65.9724V64.2657Z" fill="#73FFF5"/>
<g opacity="0.4">
<path d="M238.797 65.9724L237.314 65.119L265.535 48.824L267.019 49.6875L238.797 65.9724Z" fill="#7979D3"/>
<path d="M241.774 67.6892L240.29 66.8359L268.502 50.5409L269.985 51.4044L241.774 67.6892Z" fill="#7979D3"/>
<path d="M244.74 69.4061L243.257 68.5528L271.468 52.2578L272.962 53.1111L244.74 69.4061Z" fill="#7979D3"/>
<path d="M247.706 71.123L246.223 70.2595L274.445 53.9746L275.928 54.828L247.706 71.123Z" fill="#7979D3"/>
<path d="M250.683 72.8297L249.2 71.9764L277.411 55.6915L278.894 56.5449L250.683 72.8297Z" fill="#7979D3"/>
<path d="M253.649 74.5465L252.166 73.6932L280.378 57.3982L281.871 58.2617L253.649 74.5465Z" fill="#7979D3"/>
<path d="M256.626 76.2634L255.133 75.4101L283.354 59.1151L284.837 59.9786L256.626 76.2634Z" fill="#7979D3"/>
<path d="M259.592 77.9803L258.109 77.127L286.321 60.832L287.804 61.6853L259.592 77.9803Z" fill="#7979D3"/>
<path d="M262.559 79.6972L261.076 78.8337L289.297 62.5488L290.78 63.4022L262.559 79.6972Z" fill="#7979D3"/>
<path d="M265.535 81.4039L264.052 80.5505L292.264 64.2657L293.747 65.119L265.535 81.4039Z" fill="#7979D3"/>
</g>
<path opacity="0.5" d="M222.248 74.1097V127.018L222.837 127.363V74.4552L222.248 74.1097Z" fill="#42E8E0"/>
<path opacity="0.5" d="M308.823 74.1097V127.018L308.223 127.363V74.4552L308.823 74.1097Z" fill="#42E8E0"/>
<path opacity="0.5" d="M265.535 99.1008L264.509 98.5116V151.43L265.535 152.009V152.019V152.009V152.019V152.009L266.551 151.43V98.5116L265.535 99.1008Z" fill="#42E8E0"/>
<path opacity="0.5" d="M222.837 121.806L262.193 97.1706L234.134 80.9772L222.837 87.1437V121.806Z" fill="#5CFFF3"/>
<path opacity="0.5" d="M231.665 132.463L264.509 113.791V127.363L242.779 138.883L231.665 132.463Z" fill="#5CFFF3"/>
<g opacity="0.1">
<path d="M224.93 80.6216L262.254 102.159V100.472L224.93 78.9352V80.6216Z" fill="#0B0244"/>
<path d="M224.93 84.5735L262.254 106.111V104.424L224.93 82.8871V84.5735Z" fill="#0B0244"/>
<path d="M224.93 88.5253L262.254 110.062V108.376L224.93 86.8389V88.5253Z" fill="#0B0244"/>
<path d="M224.93 92.4772L262.254 114.014V112.328L224.93 90.7908V92.4772Z" fill="#0B0244"/>
<path d="M224.93 96.429L262.254 117.966V116.28L224.93 94.7426V96.429Z" fill="#0B0244"/>
<path d="M224.93 100.381L262.254 121.918V120.231L224.93 98.6945V100.381Z" fill="#0B0244"/>
<path d="M224.93 104.333L262.254 125.87V124.183L224.93 102.646V104.333Z" fill="#0B0244"/>
<path d="M224.93 108.285L262.254 129.822V128.135L224.93 106.598V108.285Z" fill="#0B0244"/>
<path d="M224.93 112.236L262.254 133.773V132.087L224.93 110.55V112.236Z" fill="#0B0244"/>
<path d="M224.93 116.188L262.254 137.725V136.039L224.93 114.502V116.188Z" fill="#0B0244"/>
<path d="M224.93 120.14L262.254 141.677V139.991L224.93 118.454V120.14Z" fill="#0B0244"/>
<path d="M224.93 124.092L262.254 145.629V143.943L224.93 122.406V124.092Z" fill="#0B0244"/>
</g>
<path d="M65.4848 102.138C65.4848 102.606 65.1597 103.164 64.7533 103.398C64.347 103.632 64.0219 103.439 64.0219 102.982C64.0219 102.514 64.347 101.956 64.7533 101.722C65.1597 101.488 65.4848 101.671 65.4848 102.138Z" fill="#88FFF3"/>
<path d="M67.8823 100.757C67.8823 101.224 67.5572 101.783 67.1509 102.016C66.7445 102.25 66.4194 102.057 66.4194 101.6C66.4194 101.133 66.7445 100.574 67.1509 100.34C67.5572 100.096 67.8823 100.289 67.8823 100.757Z" fill="#88FFF3"/>
<path d="M70.2798 99.365C70.2798 99.8323 69.9547 100.391 69.5484 100.625C69.142 100.858 68.8169 100.665 68.8169 100.208C68.8169 99.7409 69.142 99.1821 69.5484 98.9485C69.9547 98.7148 70.2798 98.9078 70.2798 99.365Z" fill="#88FFF3"/>
<path d="M89.7546 88.9622L71.3871 99.5682V97.8919L89.7546 87.2859V88.9622Z" fill="#88FFF3"/>
<path d="M65.4848 106.09C65.4848 106.558 65.1597 107.116 64.7533 107.35C64.347 107.584 64.0219 107.391 64.0219 106.933C64.0219 106.466 64.347 105.907 64.7533 105.674C65.1597 105.44 65.4848 105.623 65.4848 106.09Z" fill="#88FFF3"/>
<path d="M67.8823 104.709C67.8823 105.176 67.5572 105.735 67.1509 105.968C66.7445 106.202 66.4194 106.009 66.4194 105.552C66.4194 105.095 66.7445 104.526 67.1509 104.292C67.5572 104.048 67.8823 104.241 67.8823 104.709Z" fill="#88FFF3"/>
<path d="M70.2798 103.317C70.2798 103.784 69.9547 104.343 69.5484 104.577C69.142 104.81 68.8169 104.617 68.8169 104.16C68.8169 103.693 69.142 103.134 69.5484 102.9C69.9547 102.667 70.2798 102.86 70.2798 103.317Z" fill="#88FFF3"/>
<path d="M89.7546 92.914L71.3871 103.52V101.844L89.7546 91.2378V92.914Z" fill="#88FFF3"/>
<path d="M65.4848 110.042C65.4848 110.509 65.1597 111.068 64.7533 111.302C64.347 111.535 64.0219 111.342 64.0219 110.885C64.0219 110.418 64.347 109.859 64.7533 109.626C65.1597 109.392 65.4848 109.575 65.4848 110.042Z" fill="#88FFF3"/>
<path d="M67.8823 108.66C67.8823 109.128 67.5572 109.686 67.1509 109.92C66.7445 110.154 66.4194 109.961 66.4194 109.504C66.4194 109.036 66.7445 108.478 67.1509 108.244C67.5572 108 67.8823 108.193 67.8823 108.66Z" fill="#88FFF3"/>
<path d="M70.2798 107.269C70.2798 107.736 69.9547 108.295 69.5484 108.528C69.142 108.762 68.8169 108.569 68.8169 108.112C68.8169 107.645 69.142 107.086 69.5484 106.852C69.9547 106.619 70.2798 106.812 70.2798 107.269Z" fill="#88FFF3"/>
<path d="M89.7546 96.8659L71.3871 107.472V105.796L89.7546 95.1896V96.8659Z" fill="#88FFF3"/>
<path d="M65.4848 113.994C65.4848 114.461 65.1597 115.02 64.7533 115.254C64.347 115.487 64.0219 115.294 64.0219 114.837C64.0219 114.37 64.347 113.811 64.7533 113.577C65.1597 113.344 65.4848 113.527 65.4848 113.994Z" fill="#88FFF3"/>
<path d="M67.8823 112.612C67.8823 113.08 67.5572 113.638 67.1509 113.872C66.7445 114.106 66.4194 113.913 66.4194 113.455C66.4194 112.988 66.7445 112.429 67.1509 112.196C67.5572 111.952 67.8823 112.145 67.8823 112.612Z" fill="#88FFF3"/>
<path d="M70.2798 111.221C70.2798 111.688 69.9547 112.247 69.5484 112.48C69.142 112.714 68.8169 112.521 68.8169 112.064C68.8169 111.596 69.142 111.038 69.5484 110.804C69.9547 110.57 70.2798 110.763 70.2798 111.221Z" fill="#88FFF3"/>
<path d="M89.7546 100.828L71.3871 111.424V109.747L89.7546 99.1415V100.828Z" fill="#88FFF3"/>
<path d="M65.4848 117.946C65.4848 118.413 65.1597 118.972 64.7533 119.205C64.347 119.439 64.0219 119.246 64.0219 118.789C64.0219 118.322 64.347 117.763 64.7533 117.529C65.1597 117.296 65.4848 117.478 65.4848 117.946Z" fill="#88FFF3"/>
<path d="M67.8823 116.564C67.8823 117.031 67.5572 117.59 67.1509 117.824C66.7445 118.057 66.4194 117.864 66.4194 117.407C66.4194 116.94 66.7445 116.381 67.1509 116.148C67.5572 115.904 67.8823 116.097 67.8823 116.564Z" fill="#88FFF3"/>
<path d="M70.2798 115.172C70.2798 115.64 69.9547 116.198 69.5484 116.432C69.142 116.666 68.8169 116.473 68.8169 116.016C68.8169 115.558 69.142 114.99 69.5484 114.756C69.9547 114.522 70.2798 114.715 70.2798 115.172Z" fill="#88FFF3"/>
<path d="M89.7546 104.78L71.3871 115.376V113.699L89.7546 103.093V104.78Z" fill="#88FFF3"/>
<path d="M65.4848 121.898C65.4848 122.365 65.1597 122.924 64.7533 123.157C64.347 123.391 64.0219 123.198 64.0219 122.741C64.0219 122.273 64.347 121.715 64.7533 121.481C65.1597 121.247 65.4848 121.43 65.4848 121.898Z" fill="#88FFF3"/>
<path d="M67.8823 120.516C67.8823 120.983 67.5572 121.542 67.1509 121.776C66.7445 122.009 66.4194 121.816 66.4194 121.359C66.4194 120.892 66.7445 120.333 67.1509 120.099C67.5572 119.856 67.8823 120.049 67.8823 120.516Z" fill="#88FFF3"/>
<path d="M70.2798 119.124C70.2798 119.592 69.9547 120.15 69.5484 120.384C69.142 120.618 68.8169 120.425 68.8169 119.967C68.8169 119.5 69.142 118.941 69.5484 118.708C69.9547 118.474 70.2798 118.667 70.2798 119.124Z" fill="#88FFF3"/>
<path d="M89.7546 108.732L71.3871 119.327V117.651L89.7546 107.045V108.732Z" fill="#88FFF3"/>
<path d="M65.4848 125.849C65.4848 126.317 65.1597 126.875 64.7533 127.109C64.347 127.343 64.0219 127.15 64.0219 126.693C64.0219 126.225 64.347 125.667 64.7533 125.433C65.1597 125.199 65.4848 125.382 65.4848 125.849Z" fill="#88FFF3"/>
<path d="M67.8823 124.468C67.8823 124.935 67.5572 125.494 67.1509 125.728C66.7445 125.961 66.4194 125.768 66.4194 125.311C66.4194 124.844 66.7445 124.285 67.1509 124.051C67.5572 123.807 67.8823 124 67.8823 124.468Z" fill="#88FFF3"/>
<path d="M70.2798 123.076C70.2798 123.543 69.9547 124.102 69.5484 124.336C69.142 124.569 68.8169 124.376 68.8169 123.919C68.8169 123.452 69.142 122.893 69.5484 122.66C69.9547 122.426 70.2798 122.619 70.2798 123.076Z" fill="#88FFF3"/>
<path d="M89.7546 112.683L71.3871 123.279V121.603L89.7546 110.997V112.683Z" fill="#88FFF3"/>
<path d="M65.4848 129.801C65.4848 130.269 65.1597 130.827 64.7533 131.061C64.347 131.295 64.0219 131.102 64.0219 130.644C64.0219 130.187 64.347 129.618 64.7533 129.385C65.1597 129.151 65.4848 129.334 65.4848 129.801Z" fill="#88FFF3"/>
<path d="M67.8823 128.42C67.8823 128.887 67.5572 129.446 67.1509 129.679C66.7445 129.913 66.4194 129.72 66.4194 129.263C66.4194 128.796 66.7445 128.237 67.1509 128.003C67.5572 127.759 67.8823 127.952 67.8823 128.42Z" fill="#88FFF3"/>
<path d="M70.2798 127.028C70.2798 127.495 69.9547 128.054 69.5484 128.288C69.142 128.521 68.8169 128.328 68.8169 127.871C68.8169 127.404 69.142 126.845 69.5484 126.611C69.9547 126.378 70.2798 126.571 70.2798 127.028Z" fill="#88FFF3"/>
<path d="M89.7546 116.635L71.3871 127.231V125.555L89.7546 114.949V116.635Z" fill="#88FFF3"/>
<path d="M65.4848 133.753C65.4848 134.22 65.1597 134.779 64.7533 135.013C64.347 135.246 64.0219 135.053 64.0219 134.596C64.0219 134.129 64.347 133.57 64.7533 133.337C65.1597 133.103 65.4848 133.286 65.4848 133.753Z" fill="#88FFF3"/>
<path d="M67.8823 132.371C67.8823 132.839 67.5572 133.398 67.1509 133.631C66.7445 133.865 66.4194 133.672 66.4194 133.215C66.4194 132.747 66.7445 132.189 67.1509 131.955C67.5572 131.711 67.8823 131.904 67.8823 132.371Z" fill="#88FFF3"/>
<path d="M70.2798 130.98C70.2798 131.447 69.9547 132.006 69.5484 132.239C69.142 132.473 68.8169 132.28 68.8169 131.823C68.8169 131.356 69.142 130.797 69.5484 130.563C69.9547 130.33 70.2798 130.523 70.2798 130.98Z" fill="#88FFF3"/>
<path d="M89.7546 120.587L71.3871 131.183V129.507L89.7546 118.901V120.587Z" fill="#88FFF3"/>
<path d="M65.4848 137.705C65.4848 138.172 65.1597 138.731 64.7533 138.965C64.347 139.198 64.0219 139.005 64.0219 138.548C64.0219 138.081 64.347 137.522 64.7533 137.288C65.1597 137.055 65.4848 137.238 65.4848 137.705Z" fill="#88FFF3"/>
<path d="M67.8823 136.323C67.8823 136.791 67.5572 137.349 67.1509 137.583C66.7445 137.817 66.4194 137.624 66.4194 137.167C66.4194 136.699 66.7445 136.14 67.1509 135.907C67.5572 135.663 67.8823 135.856 67.8823 136.323Z" fill="#88FFF3"/>
<path d="M70.2798 134.932C70.2798 135.399 69.9547 135.958 69.5484 136.191C69.142 136.425 68.8169 136.232 68.8169 135.775C68.8169 135.307 69.142 134.749 69.5484 134.515C69.9547 134.281 70.2798 134.474 70.2798 134.932Z" fill="#88FFF3"/>
<path d="M89.7546 124.539L71.3871 135.135V133.459L89.7546 122.853V124.539Z" fill="#88FFF3"/>
<path d="M65.4848 141.657C65.4848 142.124 65.1597 142.683 64.7533 142.917C64.347 143.15 64.0219 142.957 64.0219 142.5C64.0219 142.043 64.347 141.474 64.7533 141.24C65.1597 141.007 65.4848 141.189 65.4848 141.657Z" fill="#88FFF3"/>
<path d="M67.8823 140.275C67.8823 140.742 67.5572 141.301 67.1509 141.535C66.7445 141.769 66.4194 141.576 66.4194 141.118C66.4194 140.651 66.7445 140.092 67.1509 139.859C67.5572 139.615 67.8823 139.808 67.8823 140.275Z" fill="#88FFF3"/>
<path d="M70.2798 138.883C70.2798 139.351 69.9547 139.909 69.5484 140.143C69.142 140.377 68.8169 140.184 68.8169 139.727C68.8169 139.259 69.142 138.701 69.5484 138.467C69.9547 138.233 70.2798 138.426 70.2798 138.883Z" fill="#88FFF3"/>
<path d="M89.7546 128.491L71.3871 139.087V137.41L89.7546 126.804V128.491Z" fill="#88FFF3"/>
<path d="M65.4848 145.609C65.4848 146.076 65.1597 146.635 64.7533 146.868C64.347 147.102 64.0219 146.909 64.0219 146.452C64.0219 145.985 64.347 145.426 64.7533 145.192C65.1597 144.958 65.4848 145.141 65.4848 145.609Z" fill="#88FFF3"/>
<path d="M67.8823 144.227C67.8823 144.694 67.5572 145.253 67.1509 145.487C66.7445 145.72 66.4194 145.527 66.4194 145.07C66.4194 144.613 66.7445 144.044 67.1509 143.81C67.5572 143.567 67.8823 143.76 67.8823 144.227Z" fill="#88FFF3"/>
<path d="M70.2798 142.835C70.2798 143.303 69.9547 143.861 69.5484 144.095C69.142 144.329 68.8169 144.136 68.8169 143.678C68.8169 143.221 69.142 142.652 69.5484 142.419C69.9547 142.185 70.2798 142.378 70.2798 142.835Z" fill="#88FFF3"/>
<path d="M89.7546 132.443L71.3871 143.038V141.362L89.7546 130.756V132.443Z" fill="#88FFF3"/>
<path opacity="0.5" d="M102.27 125.281L91.4918 131.508V86.4428L102.27 80.2255V125.281Z" fill="#88FFF3"/>
<path d="M162.625 218.774L119.338 193.783L162.625 168.791L205.912 193.783L162.625 218.774Z" fill="#312A91"/>
<path d="M162.625 211.581L119.338 186.59L162.625 161.599L205.912 186.59L162.625 211.581Z" fill="#312A91"/>
<g opacity="0.9">
<path d="M162.625 167.186L129.202 147.894L162.625 128.592L196.048 147.894L162.625 167.186Z" fill="url(#paint28_linear_182_3621)"/>
<path d="M196.048 147.894V186.59L162.625 205.892V167.186L196.048 147.894Z" fill="url(#paint29_linear_182_3621)"/>
<path d="M129.202 147.894V186.59L162.625 205.892V167.186L129.202 147.894Z" fill="url(#paint30_linear_182_3621)"/>
</g>
<path opacity="0.7" d="M162.625 205.892L129.202 186.59L162.625 167.298L196.048 186.59L162.625 205.892Z" fill="url(#paint31_linear_182_3621)"/>
<path d="M205.912 186.59V193.783L162.625 218.774V211.581L205.912 186.59Z" fill="url(#paint32_linear_182_3621)"/>
<path d="M119.338 186.59V193.783L162.625 218.774V211.581L119.338 186.59Z" fill="#312A91"/>
<path opacity="0.7" d="M119.338 186.59V193.783L162.625 218.774V211.581L119.338 186.59Z" fill="url(#paint33_linear_182_3621)"/>
<path d="M162.625 158.673L119.338 133.682L162.625 108.681L205.912 133.682L162.625 158.673Z" fill="#312A91"/>
<path d="M119.338 126.489V133.682L162.625 158.673V151.481L119.338 126.489Z" fill="#312A91"/>
<path opacity="0.3" d="M162.625 158.673V211.581L119.338 186.59V133.682L162.625 158.673Z" fill="#42E8E0"/>
<path opacity="0.3" d="M129.202 139.371V186.59L162.625 205.892L196.048 186.59V139.371L162.625 158.673L129.202 139.371Z" fill="#42E8E0"/>
<path opacity="0.3" d="M162.625 158.673V205.892L129.202 186.59V139.371L162.625 158.673Z" fill="#42E8E0"/>
<path opacity="0.5" d="M119.338 133.682V186.59L162.625 211.581L205.912 186.59V133.682L162.625 158.673L119.338 133.682Z" fill="#5CFFF3"/>
<path d="M162.625 151.481L119.338 126.489L162.625 101.498L205.912 126.489L162.625 151.481Z" fill="#312A91"/>
<path opacity="0.7" d="M162.625 151.481L119.338 126.489L162.625 101.498L205.912 126.489L162.625 151.481Z" fill="url(#paint34_linear_182_3621)"/>
<path d="M205.912 126.489V133.682L162.625 158.673V151.481L205.912 126.489Z" fill="url(#paint35_linear_182_3621)"/>
<path opacity="0.7" d="M119.338 126.489V133.682L162.625 158.673V151.481L119.338 126.489Z" fill="url(#paint36_linear_182_3621)"/>
<path d="M120.353 126.489L163.133 101.793L162.625 101.498L119.338 126.489L162.625 151.481L163.133 151.186L120.353 126.489Z" fill="url(#paint37_linear_182_3621)"/>
<path d="M162.625 149.113L123.3 126.408L162.625 108.518L201.95 126.408L162.625 149.113Z" fill="#312A91"/>
<path d="M123.3 124.691V126.408L162.625 149.113V147.397L123.3 124.691Z" fill="#312A91"/>
<path d="M162.625 147.397L123.3 124.691L162.625 101.986L201.95 124.691L162.625 147.397Z" fill="#312A91"/>
<path opacity="0.7" d="M162.625 147.397L123.3 124.691L162.625 101.986L201.95 124.691L162.625 147.397Z" fill="url(#paint38_linear_182_3621)"/>
<path d="M201.95 124.691V126.408L162.625 149.113V147.397L201.95 124.691Z" fill="url(#paint39_linear_182_3621)"/>
<path opacity="0.7" d="M123.3 124.691V126.408L162.625 149.113V147.397L123.3 124.691Z" fill="url(#paint40_linear_182_3621)"/>
<path d="M124.224 124.691L163.082 102.25L162.625 101.986L123.3 124.691L162.625 147.397L163.082 147.122L124.224 124.691Z" fill="url(#paint41_linear_182_3621)"/>
<path d="M135.886 125.545L134.403 124.691L162.625 108.396L164.108 109.26L135.886 125.545Z" fill="#42E8E0"/>
<path d="M138.863 127.262L137.38 126.408L165.591 110.113L167.075 110.967L138.863 127.262Z" fill="#42E8E0"/>
<path d="M141.83 128.978L140.346 128.115L168.558 111.83L170.051 112.683L141.83 128.978Z" fill="#42E8E0"/>
<path d="M144.806 130.695L143.313 129.832L171.534 113.547L173.018 114.4L144.806 130.695Z" fill="#42E8E0"/>
<path d="M147.773 132.402L146.289 131.549L174.501 115.254L175.984 116.117L147.773 132.402Z" fill="#42E8E0"/>
<path d="M150.739 134.119L149.256 133.265L177.467 116.97L178.961 117.834L150.739 134.119Z" fill="#42E8E0"/>
<path d="M153.716 135.836L152.222 134.982L180.444 118.687L181.927 119.541L153.716 135.836Z" fill="#42E8E0"/>
<path d="M156.682 137.553L155.199 136.689L183.41 120.404L184.893 121.258L156.682 137.553Z" fill="#42E8E0"/>
<path d="M159.648 139.269L158.165 138.406L186.387 122.121L187.87 122.974L159.648 139.269Z" fill="#42E8E0"/>
<path d="M162.625 140.976L161.142 140.123L189.353 123.828L190.836 124.691L162.625 140.976Z" fill="#42E8E0"/>
<path d="M162.625 108.396L164.108 109.26L162.625 110.113V108.396Z" fill="#73FFF5"/>
<path d="M165.591 110.113L167.075 110.967L165.591 111.83V110.113Z" fill="#73FFF5"/>
<path d="M168.558 111.83L170.051 112.683L168.558 113.547V111.83Z" fill="#73FFF5"/>
<path d="M171.534 113.547L173.018 114.4L171.534 115.254V113.547Z" fill="#73FFF5"/>
<path d="M174.501 115.254L175.984 116.117L174.501 116.97V115.254Z" fill="#73FFF5"/>
<path d="M177.467 116.97L178.961 117.834L177.467 118.687V116.97Z" fill="#73FFF5"/>
<path d="M180.444 118.687L181.927 119.541L180.444 120.404V118.687Z" fill="#73FFF5"/>
<path d="M183.41 120.404L184.893 121.258L183.41 122.121V120.404Z" fill="#73FFF5"/>
<path d="M186.387 122.121L187.87 122.974L186.387 123.828V122.121Z" fill="#73FFF5"/>
<path d="M189.353 123.828L190.836 124.691L189.353 125.545V123.828Z" fill="#73FFF5"/>
<g opacity="0.4">
<path d="M135.886 125.545L134.403 124.691L162.625 108.396L164.108 109.26L135.886 125.545Z" fill="#7979D3"/>
<path d="M138.863 127.262L137.38 126.408L165.591 110.113L167.075 110.967L138.863 127.262Z" fill="#7979D3"/>
<path d="M141.83 128.978L140.346 128.115L168.558 111.83L170.051 112.683L141.83 128.978Z" fill="#7979D3"/>
<path d="M144.806 130.695L143.313 129.832L171.534 113.547L173.018 114.4L144.806 130.695Z" fill="#7979D3"/>
<path d="M147.773 132.402L146.289 131.549L174.501 115.254L175.984 116.117L147.773 132.402Z" fill="#7979D3"/>
<path d="M150.739 134.119L149.256 133.265L177.467 116.97L178.961 117.834L150.739 134.119Z" fill="#7979D3"/>
<path d="M153.716 135.836L152.222 134.982L180.444 118.687L181.927 119.541L153.716 135.836Z" fill="#7979D3"/>
<path d="M156.682 137.553L155.199 136.689L183.41 120.404L184.893 121.258L156.682 137.553Z" fill="#7979D3"/>
<path d="M159.648 139.269L158.165 138.406L186.387 122.121L187.87 122.974L159.648 139.269Z" fill="#7979D3"/>
<path d="M162.625 140.976L161.142 140.123L189.353 123.828L190.836 124.691L162.625 140.976Z" fill="#7979D3"/>
</g>
<path opacity="0.5" d="M119.338 133.682V186.59L119.927 186.935V134.017L119.338 133.682Z" fill="#42E8E0"/>
<path opacity="0.5" d="M205.912 133.682V186.59L205.313 186.935V134.017L205.912 133.682Z" fill="#42E8E0"/>
<path opacity="0.5" d="M162.625 158.673L161.599 158.084V211.002L162.625 211.581L163.641 211.002V158.084L162.625 158.673Z" fill="#42E8E0"/>
<path opacity="0.5" d="M119.927 181.378L159.293 156.743L131.224 140.539L119.927 146.716V181.378Z" fill="#5CFFF3"/>
<path opacity="0.5" d="M128.755 192.035L161.599 173.363V186.935L139.869 198.445L128.755 192.035Z" fill="#5CFFF3"/>
<g opacity="0.1">
<path d="M122.02 140.194L159.344 161.721V160.045L122.02 138.508V140.194Z" fill="#0B0244"/>
<path d="M122.02 144.146L159.344 165.673V163.996L122.02 142.459V144.146Z" fill="#0B0244"/>
<path d="M122.02 148.098L159.344 169.635V167.948L122.02 146.411V148.098Z" fill="#0B0244"/>
<path d="M122.02 152.049L159.344 173.586V171.9L122.02 150.363V152.049Z" fill="#0B0244"/>
<path d="M122.02 156.001L159.344 177.538V175.852L122.02 154.315V156.001Z" fill="#0B0244"/>
<path d="M122.02 159.953L159.344 181.49V179.804L122.02 158.267V159.953Z" fill="#0B0244"/>
<path d="M122.02 163.905L159.344 185.442V183.756L122.02 162.219V163.905Z" fill="#0B0244"/>
<path d="M122.02 167.857L159.344 189.394V187.707L122.02 166.17V167.857Z" fill="#0B0244"/>
<path d="M122.02 171.809L159.344 193.346V191.659L122.02 170.122V171.809Z" fill="#0B0244"/>
<path d="M122.02 175.76L159.344 197.298V195.611L122.02 174.074V175.76Z" fill="#0B0244"/>
<path d="M122.02 179.712L159.344 201.249V199.563L122.02 178.026V179.712Z" fill="#0B0244"/>
<path d="M122.02 183.664L159.344 205.201V203.515L122.02 181.978V183.664Z" fill="#0B0244"/>
</g>
<path d="M188.612 129.11C189.038 129.354 189.038 129.761 188.612 130.004C188.185 130.248 187.484 130.248 187.057 130.004C186.631 129.761 186.631 129.354 187.057 129.11C187.484 128.856 188.185 128.856 188.612 129.11Z" fill="#FCCC6B"/>
<path d="M191.029 127.708C191.456 127.952 191.456 128.359 191.029 128.602C190.603 128.846 189.902 128.846 189.475 128.602C189.048 128.359 189.048 127.952 189.475 127.708C189.902 127.465 190.603 127.465 191.029 127.708Z" fill="#FCCC6B"/>
<path d="M193.447 126.317C193.874 126.561 193.874 126.967 193.447 127.211C193.021 127.455 192.32 127.455 191.893 127.211C191.466 126.967 191.466 126.561 191.893 126.317C192.32 126.073 193.021 126.073 193.447 126.317Z" fill="#FCCC6B"/>
<path d="M166.678 160.603C166.678 161.071 166.353 161.629 165.947 161.863C165.541 162.097 165.215 161.904 165.215 161.446C165.215 160.989 165.541 160.42 165.947 160.187C166.353 159.953 166.678 160.136 166.678 160.603Z" fill="#88FFF3"/>
<path d="M169.076 159.222C169.076 159.689 168.751 160.248 168.344 160.481C167.938 160.715 167.613 160.522 167.613 160.065C167.613 159.598 167.938 159.039 168.344 158.805C168.751 158.572 169.076 158.754 169.076 159.222Z" fill="#88FFF3"/>
<path d="M171.484 157.84C171.484 158.307 171.158 158.866 170.752 159.1C170.346 159.333 170.021 159.14 170.021 158.683C170.021 158.226 170.346 157.657 170.752 157.424C171.148 157.18 171.484 157.373 171.484 157.84Z" fill="#88FFF3"/>
<path d="M190.948 147.437L172.581 158.043V156.357L190.948 145.751V147.437Z" fill="#88FFF3"/>
<path d="M166.678 164.555C166.678 165.022 166.353 165.581 165.947 165.815C165.541 166.048 165.215 165.855 165.215 165.398C165.215 164.931 165.541 164.372 165.947 164.139C166.353 163.905 166.678 164.088 166.678 164.555Z" fill="#88FFF3"/>
<path d="M169.076 163.174C169.076 163.641 168.751 164.2 168.344 164.433C167.938 164.667 167.613 164.474 167.613 164.017C167.613 163.56 167.938 162.991 168.344 162.757C168.751 162.523 169.076 162.706 169.076 163.174Z" fill="#88FFF3"/>
<path d="M171.484 161.792C171.484 162.259 171.158 162.818 170.752 163.052C170.346 163.285 170.021 163.092 170.021 162.635C170.021 162.168 170.346 161.609 170.752 161.375C171.148 161.132 171.484 161.325 171.484 161.792Z" fill="#88FFF3"/>
<path d="M190.948 151.389L172.581 161.995V160.309L190.948 149.703V151.389Z" fill="#88FFF3"/>
<path d="M166.678 168.507C166.678 168.974 166.353 169.533 165.947 169.767C165.541 170 165.215 169.807 165.215 169.35C165.215 168.883 165.541 168.324 165.947 168.09C166.353 167.857 166.678 168.05 166.678 168.507Z" fill="#88FFF3"/>
<path d="M169.076 167.125C169.076 167.593 168.751 168.151 168.344 168.385C167.938 168.619 167.613 168.426 167.613 167.969C167.613 167.501 167.938 166.943 168.344 166.709C168.751 166.475 169.076 166.658 169.076 167.125Z" fill="#88FFF3"/>
<path d="M171.484 165.744C171.484 166.211 171.158 166.77 170.752 167.003C170.346 167.237 170.021 167.044 170.021 166.587C170.021 166.13 170.346 165.561 170.752 165.327C171.148 165.083 171.484 165.276 171.484 165.744Z" fill="#88FFF3"/>
<path d="M190.948 155.341L172.581 165.947V164.261L190.948 153.655V155.341Z" fill="#88FFF3"/>
<path d="M166.678 172.459C166.678 172.926 166.353 173.485 165.947 173.719C165.541 173.952 165.215 173.759 165.215 173.302C165.215 172.835 165.541 172.276 165.947 172.042C166.353 171.809 166.678 172.002 166.678 172.459Z" fill="#88FFF3"/>
<path d="M169.076 171.077C169.076 171.545 168.751 172.103 168.344 172.337C167.938 172.571 167.613 172.378 167.613 171.92C167.613 171.453 167.938 170.894 168.344 170.661C168.751 170.427 169.076 170.61 169.076 171.077Z" fill="#88FFF3"/>
<path d="M171.484 169.696C171.484 170.163 171.158 170.722 170.752 170.955C170.346 171.189 170.021 170.996 170.021 170.539C170.021 170.071 170.346 169.513 170.752 169.279C171.148 169.035 171.484 169.228 171.484 169.696Z" fill="#88FFF3"/>
<path d="M190.948 159.293L172.581 169.899V168.212L190.948 157.606V159.293Z" fill="#88FFF3"/>
<path d="M166.678 176.411C166.678 176.878 166.353 177.437 165.947 177.67C165.541 177.904 165.215 177.711 165.215 177.254C165.215 176.787 165.541 176.228 165.947 175.994C166.353 175.76 166.678 175.953 166.678 176.411Z" fill="#88FFF3"/>
<path d="M169.076 175.029C169.076 175.496 168.751 176.055 168.344 176.289C167.938 176.522 167.613 176.329 167.613 175.872C167.613 175.405 167.938 174.846 168.344 174.613C168.751 174.379 169.076 174.562 169.076 175.029Z" fill="#88FFF3"/>
<path d="M171.484 173.647C171.484 174.115 171.158 174.673 170.752 174.907C170.346 175.141 170.021 174.948 170.021 174.491C170.021 174.023 170.346 173.465 170.752 173.231C171.148 172.987 171.484 173.18 171.484 173.647Z" fill="#88FFF3"/>
<path d="M190.948 163.245L172.581 173.851V172.164L190.948 161.558V163.245Z" fill="#88FFF3"/>
<path d="M166.678 180.362C166.678 180.83 166.353 181.389 165.947 181.622C165.541 181.856 165.215 181.663 165.215 181.206C165.215 180.749 165.541 180.18 165.947 179.946C166.353 179.712 166.678 179.905 166.678 180.362Z" fill="#88FFF3"/>
<path d="M169.076 178.981C169.076 179.448 168.751 180.007 168.344 180.241C167.938 180.474 167.613 180.281 167.613 179.824C167.613 179.357 167.938 178.798 168.344 178.564C168.751 178.331 169.076 178.514 169.076 178.981Z" fill="#88FFF3"/>
<path d="M171.484 177.599C171.484 178.067 171.158 178.625 170.752 178.859C170.346 179.093 170.021 178.9 170.021 178.442C170.021 177.985 170.346 177.416 170.752 177.183C171.148 176.939 171.484 177.132 171.484 177.599Z" fill="#88FFF3"/>
<path d="M190.948 167.196L172.581 177.802V176.116L190.948 165.51V167.196Z" fill="#88FFF3"/>
<path d="M166.678 184.314C166.678 184.782 166.353 185.34 165.947 185.574C165.541 185.808 165.215 185.615 165.215 185.158C165.215 184.69 165.541 184.131 165.947 183.898C166.353 183.664 166.678 183.857 166.678 184.314Z" fill="#88FFF3"/>
<path d="M169.076 182.933C169.076 183.4 168.751 183.959 168.344 184.192C167.938 184.426 167.613 184.233 167.613 183.776C167.613 183.319 167.938 182.75 168.344 182.516C168.751 182.283 169.076 182.465 169.076 182.933Z" fill="#88FFF3"/>
<path d="M171.484 181.551C171.484 182.018 171.158 182.577 170.752 182.811C170.346 183.044 170.021 182.851 170.021 182.394C170.021 181.927 170.346 181.368 170.752 181.135C171.148 180.891 171.484 181.084 171.484 181.551Z" fill="#88FFF3"/>
<path d="M190.948 171.148L172.581 181.754V180.068L190.948 169.462V171.148Z" fill="#88FFF3"/>
<path d="M166.678 188.266C166.678 188.733 166.353 189.292 165.947 189.526C165.541 189.76 165.215 189.567 165.215 189.109C165.215 188.642 165.541 188.083 165.947 187.85C166.353 187.616 166.678 187.809 166.678 188.266Z" fill="#88FFF3"/>
<path d="M169.076 186.885C169.076 187.352 168.751 187.911 168.344 188.144C167.938 188.378 167.613 188.185 167.613 187.728C167.613 187.26 167.938 186.702 168.344 186.468C168.751 186.234 169.076 186.417 169.076 186.885Z" fill="#88FFF3"/>
<path d="M171.484 185.503C171.484 185.97 171.158 186.529 170.752 186.763C170.346 186.996 170.021 186.803 170.021 186.346C170.021 185.889 170.346 185.32 170.752 185.086C171.148 184.843 171.484 185.036 171.484 185.503Z" fill="#88FFF3"/>
<path d="M190.948 175.1L172.581 185.706V184.02L190.948 173.414V175.1Z" fill="#88FFF3"/>
<path d="M166.678 192.218C166.678 192.685 166.353 193.244 165.947 193.478C165.541 193.711 165.215 193.518 165.215 193.061C165.215 192.594 165.541 192.035 165.947 191.801C166.353 191.568 166.678 191.761 166.678 192.218Z" fill="#88FFF3"/>
<path d="M169.076 190.836C169.076 191.304 168.751 191.862 168.344 192.096C167.938 192.33 167.613 192.137 167.613 191.68C167.613 191.212 167.938 190.654 168.344 190.42C168.751 190.186 169.076 190.369 169.076 190.836Z" fill="#88FFF3"/>
<path d="M171.484 189.455C171.484 189.922 171.158 190.481 170.752 190.715C170.346 190.948 170.021 190.755 170.021 190.298C170.021 189.831 170.346 189.272 170.752 189.038C171.148 188.794 171.484 188.987 171.484 189.455Z" fill="#88FFF3"/>
<path d="M190.948 179.052L172.581 189.658V187.972L190.948 177.366V179.052Z" fill="#88FFF3"/>
<path d="M166.678 196.17C166.678 196.637 166.353 197.196 165.947 197.43C165.541 197.663 165.215 197.47 165.215 197.013C165.215 196.546 165.541 195.987 165.947 195.753C166.353 195.52 166.678 195.713 166.678 196.17Z" fill="#88FFF3"/>
<path d="M169.076 194.788C169.076 195.256 168.751 195.814 168.344 196.048C167.938 196.282 167.613 196.089 167.613 195.631C167.613 195.174 167.938 194.605 168.344 194.372C168.751 194.138 169.076 194.321 169.076 194.788Z" fill="#88FFF3"/>
<path d="M171.484 193.407C171.484 193.874 171.158 194.433 170.752 194.666C170.346 194.9 170.021 194.707 170.021 194.25C170.021 193.783 170.346 193.224 170.752 192.99C171.148 192.746 171.484 192.939 171.484 193.407Z" fill="#88FFF3"/>
<path d="M190.948 183.004L172.581 193.61V191.923L190.948 181.317V183.004Z" fill="#88FFF3"/>
<path d="M166.678 200.122C166.678 200.589 166.353 201.148 165.947 201.381C165.541 201.615 165.215 201.422 165.215 200.965C165.215 200.508 165.541 199.939 165.947 199.705C166.353 199.472 166.678 199.665 166.678 200.122Z" fill="#88FFF3"/>
<path d="M169.076 198.74C169.076 199.207 168.751 199.766 168.344 200C167.938 200.233 167.613 200.04 167.613 199.583C167.613 199.116 167.938 198.557 168.344 198.324C168.751 198.09 169.076 198.273 169.076 198.74Z" fill="#88FFF3"/>
<path d="M171.484 197.358C171.484 197.826 171.158 198.385 170.752 198.618C170.346 198.852 170.021 198.659 170.021 198.202C170.021 197.745 170.346 197.176 170.752 196.942C171.148 196.698 171.484 196.891 171.484 197.358Z" fill="#88FFF3"/>
<path d="M190.948 186.956L172.581 197.562V195.875L190.948 185.269V186.956Z" fill="#88FFF3"/>
<path d="M166.678 204.074C166.678 204.541 166.353 205.1 165.947 205.333C165.541 205.567 165.215 205.374 165.215 204.917C165.215 204.449 165.541 203.891 165.947 203.657C166.353 203.423 166.678 203.616 166.678 204.074Z" fill="#88FFF3"/>
<path d="M169.076 202.692C169.076 203.159 168.751 203.718 168.344 203.952C167.938 204.185 167.613 203.992 167.613 203.535C167.613 203.078 167.938 202.509 168.344 202.275C168.751 202.042 169.076 202.225 169.076 202.692Z" fill="#88FFF3"/>
<path d="M171.484 201.31C171.484 201.778 171.158 202.336 170.752 202.57C170.346 202.804 170.021 202.611 170.021 202.154C170.021 201.686 170.346 201.127 170.752 200.894C171.148 200.65 171.484 200.843 171.484 201.31Z" fill="#88FFF3"/>
<path d="M190.948 190.908L172.581 201.514V199.827L190.948 189.221V190.908Z" fill="#88FFF3"/>
<path opacity="0.5" d="M203.464 183.745L192.685 189.973V144.918L203.464 138.69V183.745Z" fill="#88FFF3"/>
<path d="M269.589 101.031C269.589 101.498 269.264 102.057 268.857 102.291C268.451 102.524 268.126 102.331 268.126 101.874C268.126 101.407 268.451 100.848 268.857 100.614C269.264 100.381 269.589 100.574 269.589 101.031Z" fill="#88FFF3"/>
<path d="M271.778 100.37C272.062 99.8797 272.059 99.3477 271.772 99.1822C271.485 99.0167 271.023 99.2803 270.74 99.7711C270.457 100.262 270.459 100.794 270.746 100.959C271.033 101.125 271.495 100.861 271.778 100.37Z" fill="#88FFF3"/>
<path d="M274.394 98.2678C274.394 98.7351 274.069 99.2938 273.663 99.5275C273.256 99.7612 272.931 99.5681 272.931 99.111C272.931 98.6437 273.256 98.0849 273.663 97.8513C274.059 97.6074 274.394 97.8005 274.394 98.2678Z" fill="#88FFF3"/>
<path d="M293.859 87.865L275.491 98.471V96.7846L293.859 86.1786V87.865Z" fill="#88FFF3"/>
<path d="M269.589 104.983C269.589 105.45 269.264 106.009 268.857 106.243C268.451 106.476 268.126 106.283 268.126 105.826C268.126 105.359 268.451 104.8 268.857 104.566C269.264 104.333 269.589 104.526 269.589 104.983Z" fill="#88FFF3"/>
<path d="M271.986 103.601C271.986 104.069 271.661 104.627 271.255 104.861C270.849 105.095 270.523 104.902 270.523 104.444C270.523 103.977 270.849 103.418 271.255 103.185C271.661 102.951 271.986 103.134 271.986 103.601Z" fill="#88FFF3"/>
<path d="M274.394 102.22C274.394 102.687 274.069 103.246 273.663 103.479C273.256 103.713 272.931 103.52 272.931 103.063C272.931 102.596 273.256 102.037 273.663 101.803C274.059 101.559 274.394 101.752 274.394 102.22Z" fill="#88FFF3"/>
<path d="M293.859 91.8168L275.491 102.423V100.736L293.859 90.1304V91.8168Z" fill="#88FFF3"/>
<path d="M269.589 108.935C269.589 109.402 269.264 109.961 268.857 110.194C268.451 110.428 268.126 110.235 268.126 109.778C268.126 109.311 268.451 108.752 268.857 108.518C269.264 108.285 269.589 108.478 269.589 108.935Z" fill="#88FFF3"/>
<path d="M271.986 107.553C271.986 108.02 271.661 108.579 271.255 108.813C270.849 109.046 270.523 108.853 270.523 108.396C270.523 107.929 270.849 107.37 271.255 107.137C271.661 106.903 271.986 107.086 271.986 107.553Z" fill="#88FFF3"/>
<path d="M274.394 106.171C274.394 106.639 274.069 107.198 273.663 107.431C273.256 107.665 272.931 107.472 272.931 107.015C272.931 106.547 273.256 105.989 273.663 105.755C274.059 105.511 274.394 105.704 274.394 106.171Z" fill="#88FFF3"/>
<path d="M293.859 95.7687L275.491 106.375V104.688L293.859 94.0823V95.7687Z" fill="#88FFF3"/>
<path d="M269.589 112.887C269.589 113.354 269.264 113.913 268.857 114.146C268.451 114.38 268.126 114.187 268.126 113.73C268.126 113.273 268.451 112.704 268.857 112.47C269.264 112.236 269.589 112.429 269.589 112.887Z" fill="#88FFF3"/>
<path d="M271.986 111.505C271.986 111.972 271.661 112.531 271.255 112.765C270.849 112.998 270.523 112.805 270.523 112.348C270.523 111.881 270.849 111.322 271.255 111.088C271.661 110.855 271.986 111.038 271.986 111.505Z" fill="#88FFF3"/>
<path d="M274.394 110.123C274.394 110.591 274.069 111.149 273.663 111.383C273.256 111.617 272.931 111.424 272.931 110.967C272.931 110.499 273.256 109.94 273.663 109.707C274.059 109.463 274.394 109.656 274.394 110.123Z" fill="#88FFF3"/>
<path d="M293.859 99.7205L275.491 110.326V108.64L293.859 98.0341V99.7205Z" fill="#88FFF3"/>
<path d="M269.589 116.838C269.589 117.306 269.264 117.864 268.857 118.098C268.451 118.332 268.126 118.139 268.126 117.682C268.126 117.214 268.451 116.656 268.857 116.422C269.264 116.188 269.589 116.381 269.589 116.838Z" fill="#88FFF3"/>
<path d="M271.986 115.457C271.986 115.924 271.661 116.483 271.255 116.717C270.849 116.95 270.523 116.757 270.523 116.3C270.523 115.833 270.849 115.274 271.255 115.04C271.661 114.807 271.986 114.989 271.986 115.457Z" fill="#88FFF3"/>
<path d="M274.394 114.075C274.394 114.542 274.069 115.101 273.663 115.335C273.256 115.569 272.931 115.376 272.931 114.918C272.931 114.451 273.256 113.892 273.663 113.659C274.059 113.415 274.394 113.608 274.394 114.075Z" fill="#88FFF3"/>
<path d="M293.859 103.672L275.491 114.278V112.592L293.859 101.986V103.672Z" fill="#88FFF3"/>
<path d="M269.589 120.79C269.589 121.258 269.264 121.816 268.857 122.05C268.451 122.284 268.126 122.091 268.126 121.633C268.126 121.166 268.451 120.607 268.857 120.374C269.264 120.14 269.589 120.333 269.589 120.79Z" fill="#88FFF3"/>
<path d="M271.778 120.129C272.061 119.639 272.058 119.107 271.772 118.941C271.485 118.776 271.023 119.039 270.74 119.53C270.456 120.021 270.459 120.553 270.746 120.718C271.032 120.884 271.494 120.62 271.778 120.129Z" fill="#88FFF3"/>
<path d="M274.394 118.027C274.394 118.494 274.069 119.053 273.663 119.287C273.256 119.52 272.931 119.327 272.931 118.87C272.931 118.403 273.256 117.844 273.663 117.61C274.059 117.367 274.394 117.56 274.394 118.027Z" fill="#88FFF3"/>
<path d="M293.859 107.624L275.491 118.23V116.544L293.859 105.938V107.624Z" fill="#88FFF3"/>
<path d="M269.589 124.742C269.589 125.209 269.264 125.768 268.857 126.002C268.451 126.235 268.126 126.042 268.126 125.585C268.126 125.118 268.451 124.559 268.857 124.326C269.264 124.092 269.589 124.285 269.589 124.742Z" fill="#88FFF3"/>
<path d="M271.986 123.36C271.986 123.828 271.661 124.387 271.255 124.62C270.849 124.854 270.523 124.661 270.523 124.204C270.523 123.747 270.849 123.178 271.255 122.944C271.661 122.71 271.986 122.893 271.986 123.36Z" fill="#88FFF3"/>
<path d="M274.394 121.979C274.394 122.446 274.069 123.005 273.663 123.239C273.256 123.472 272.931 123.279 272.931 122.822C272.931 122.355 273.256 121.796 273.663 121.562C274.059 121.329 274.394 121.512 274.394 121.979Z" fill="#88FFF3"/>
<path d="M293.859 111.576L275.491 122.182V120.496L293.859 109.89V111.576Z" fill="#88FFF3"/>
<path d="M269.589 128.694C269.589 129.161 269.264 129.72 268.857 129.954C268.451 130.187 268.126 129.994 268.126 129.537C268.126 129.07 268.451 128.511 268.857 128.277C269.264 128.044 269.589 128.237 269.589 128.694Z" fill="#88FFF3"/>
<path d="M271.986 127.312C271.986 127.78 271.661 128.338 271.255 128.572C270.849 128.806 270.523 128.613 270.523 128.156C270.523 127.688 270.849 127.129 271.255 126.896C271.661 126.662 271.986 126.845 271.986 127.312Z" fill="#88FFF3"/>
<path d="M274.394 125.931C274.394 126.398 274.069 126.957 273.663 127.19C273.256 127.424 272.931 127.231 272.931 126.774C272.931 126.307 273.256 125.748 273.663 125.514C274.059 125.28 274.394 125.463 274.394 125.931Z" fill="#88FFF3"/>
<path d="M293.859 115.528L275.491 126.134V124.447L293.859 113.841V115.528Z" fill="#88FFF3"/>
<path d="M269.589 132.646C269.589 133.113 269.264 133.672 268.857 133.905C268.451 134.139 268.126 133.946 268.126 133.489C268.126 133.032 268.451 132.463 268.857 132.229C269.264 131.996 269.589 132.189 269.589 132.646Z" fill="#88FFF3"/>
<path d="M271.986 131.264C271.986 131.731 271.661 132.29 271.255 132.524C270.849 132.758 270.523 132.565 270.523 132.107C270.523 131.64 270.849 131.081 271.255 130.848C271.661 130.614 271.986 130.797 271.986 131.264Z" fill="#88FFF3"/>
<path d="M274.394 129.883C274.394 130.35 274.069 130.909 273.663 131.142C273.256 131.376 272.931 131.183 272.931 130.726C272.931 130.258 273.256 129.7 273.663 129.466C274.059 129.232 274.394 129.415 274.394 129.883Z" fill="#88FFF3"/>
<path d="M293.859 119.48L275.491 130.086V128.399L293.859 117.793V119.48Z" fill="#88FFF3"/>
<path d="M269.589 136.598C269.589 137.065 269.264 137.624 268.857 137.857C268.451 138.091 268.126 137.898 268.126 137.441C268.126 136.973 268.451 136.415 268.857 136.181C269.264 135.947 269.589 136.14 269.589 136.598Z" fill="#88FFF3"/>
<path d="M271.986 135.216C271.986 135.683 271.661 136.242 271.255 136.476C270.849 136.709 270.523 136.516 270.523 136.059C270.523 135.602 270.849 135.033 271.255 134.799C271.661 134.566 271.986 134.749 271.986 135.216Z" fill="#88FFF3"/>
<path d="M274.394 133.834C274.394 134.302 274.069 134.86 273.663 135.094C273.256 135.328 272.931 135.135 272.931 134.678C272.931 134.21 273.256 133.651 273.663 133.418C274.059 133.184 274.394 133.367 274.394 133.834Z" fill="#88FFF3"/>
<path d="M293.859 123.432L275.491 134.038V132.351L293.859 121.745V123.432Z" fill="#88FFF3"/>
<path d="M269.589 140.56C269.589 141.027 269.264 141.586 268.857 141.819C268.451 142.053 268.126 141.86 268.126 141.403C268.126 140.935 268.451 140.377 268.857 140.143C269.264 139.899 269.589 140.092 269.589 140.56Z" fill="#88FFF3"/>
<path d="M271.777 139.888C272.06 139.397 272.058 138.865 271.771 138.7C271.484 138.534 271.022 138.798 270.739 139.289C270.456 139.78 270.458 140.312 270.745 140.477C271.032 140.643 271.494 140.379 271.777 139.888Z" fill="#88FFF3"/>
<path d="M274.394 137.786C274.394 138.254 274.069 138.812 273.663 139.046C273.256 139.28 272.931 139.087 272.931 138.629C272.931 138.162 273.256 137.603 273.663 137.37C274.059 137.136 274.394 137.319 274.394 137.786Z" fill="#88FFF3"/>
<path d="M293.859 127.383L275.491 137.989V136.303L293.859 125.697V127.383Z" fill="#88FFF3"/>
<path d="M269.589 144.511C269.589 144.979 269.264 145.537 268.857 145.771C268.451 146.005 268.126 145.812 268.126 145.355C268.126 144.887 268.451 144.329 268.857 144.095C269.264 143.851 269.589 144.044 269.589 144.511Z" fill="#88FFF3"/>
<path d="M271.986 143.12C271.986 143.587 271.661 144.146 271.255 144.379C270.849 144.613 270.523 144.42 270.523 143.963C270.523 143.496 270.849 142.937 271.255 142.703C271.661 142.469 271.986 142.652 271.986 143.12Z" fill="#88FFF3"/>
<path d="M274.394 141.738C274.394 142.205 274.069 142.764 273.663 142.998C273.256 143.231 272.931 143.038 272.931 142.581C272.931 142.114 273.256 141.555 273.663 141.322C274.059 141.088 274.394 141.271 274.394 141.738Z" fill="#88FFF3"/>
<path d="M293.859 131.335L275.491 141.941V140.255L293.859 129.649V131.335Z" fill="#88FFF3"/>
<path opacity="0.5" d="M306.374 124.173L295.596 130.401V85.3456L306.374 79.1181V124.173Z" fill="#88FFF3"/>
<path d="M232.123 217.656C232.001 217.656 231.879 217.595 231.818 217.473C231.716 217.301 231.777 217.087 231.95 216.986L322.842 164.494L286.625 143.648C286.453 143.546 286.392 143.333 286.493 143.16C286.595 142.988 286.808 142.937 286.981 143.028L323.736 164.179C323.848 164.24 323.919 164.362 323.919 164.484C323.919 164.616 323.848 164.728 323.736 164.789L232.316 217.585C232.244 217.646 232.183 217.656 232.123 217.656Z" fill="#88FFF3"/>
<path d="M205.882 218.012C205.821 218.012 205.76 217.991 205.699 217.961L183.238 204.988C183.065 204.886 183.004 204.673 183.105 204.5C183.207 204.328 183.42 204.267 183.593 204.368L206.055 217.341C206.227 217.443 206.288 217.656 206.187 217.829C206.126 217.941 206.004 218.012 205.882 218.012Z" fill="#88FFF3"/>
<path d="M219.454 270.666C218.154 270.666 216.915 270.402 215.96 269.853L190.877 255.376C189.881 254.807 189.333 253.985 189.333 253.07C189.333 252.014 190.085 250.967 191.405 250.205L215.421 236.338C217.798 234.967 221.283 234.825 223.365 236.034L248.448 250.51C249.444 251.079 249.992 251.902 249.992 252.816C249.992 253.883 249.24 254.919 247.92 255.681L223.904 269.548C222.614 270.28 220.998 270.666 219.454 270.666ZM216.478 268.969C218.235 269.985 221.344 269.853 223.406 268.664L247.422 254.797C248.418 254.218 248.986 253.497 248.986 252.806C248.986 252.126 248.428 251.658 247.95 251.384L222.868 236.907C221.11 235.891 218.002 236.024 215.939 237.212L191.923 251.079C190.928 251.658 190.359 252.379 190.359 253.07C190.359 253.751 190.918 254.218 191.395 254.493L216.478 268.969Z" fill="#FCCC6B"/>
<path d="M256.667 233.352V227.541H241.672L223.945 217.311C221.577 215.949 217.443 216.112 214.72 217.697L197.663 227.551H182.658V233.687H182.669C182.597 234.611 183.116 235.505 184.253 236.156L215.381 254.127C217.748 255.488 221.882 255.326 224.605 253.741L254.411 236.532C255.996 235.627 256.758 234.449 256.667 233.352Z" fill="#312A91"/>
<path opacity="0.5" d="M256.667 233.352V227.541H241.672L223.945 217.311C221.577 215.949 217.443 216.112 214.72 217.697L197.663 227.551H182.658V233.687H182.669C182.597 234.611 183.116 235.505 184.253 236.156L215.381 254.127C217.748 255.488 221.882 255.326 224.605 253.741L254.411 236.532C255.996 235.627 256.758 234.449 256.667 233.352Z" fill="url(#paint42_linear_182_3621)"/>
<path d="M223.955 217.311C222.817 216.65 221.273 216.356 219.668 216.396V255.041C221.395 255.001 223.193 254.564 224.615 253.741L254.421 236.531C255.996 235.617 256.758 234.439 256.667 233.352V227.541H241.672L223.955 217.311Z" fill="url(#paint43_linear_182_3621)"/>
<path d="M215.391 247.991L184.263 230.02C181.896 228.658 182.191 226.271 184.924 224.696L214.73 207.487C217.463 205.912 221.598 205.74 223.955 207.101L255.082 225.072C257.449 226.433 257.154 228.821 254.421 230.395L224.615 247.605C221.882 249.179 217.758 249.352 215.391 247.991Z" fill="#312A91"/>
<path opacity="0.5" d="M215.391 247.991L184.263 230.02C181.896 228.658 182.191 226.271 184.924 224.696L214.73 207.487C217.463 205.912 221.598 205.74 223.955 207.101L255.082 225.072C257.449 226.433 257.154 228.821 254.421 230.395L224.615 247.605C221.882 249.179 217.758 249.352 215.391 247.991Z" fill="url(#paint44_linear_182_3621)"/>
<path d="M216.224 244.019L191.141 229.542C189.231 228.445 189.475 226.525 191.68 225.245L215.695 211.378C217.9 210.108 221.222 209.966 223.132 211.073L248.214 225.55C250.124 226.647 249.88 228.577 247.676 229.847L223.66 243.714C221.456 244.974 218.123 245.116 216.224 244.019Z" fill="#5CFFF3"/>
<path d="M191.669 227.124L215.685 213.257C217.89 211.987 221.212 211.845 223.122 212.953L248.204 227.429C248.672 227.703 249.017 228.018 249.23 228.374C249.779 227.358 249.464 226.281 248.204 225.55L223.122 211.073C221.212 209.976 217.89 210.108 215.685 211.378L191.669 225.245C190.014 226.2 189.465 227.531 190.115 228.597C190.4 228.059 190.918 227.551 191.669 227.124Z" fill="#42E8E0"/>
<path opacity="0.5" d="M216.437 247.991L185.31 230.02C182.943 228.658 182.384 226.647 185.97 224.696L215.777 207.487C217.118 206.715 218.804 206.278 220.45 206.197C218.499 206.105 216.366 206.542 214.741 207.487L184.934 224.696C182.201 226.271 181.907 228.658 184.274 230.02L215.401 247.991C216.6 248.682 218.266 248.976 219.962 248.895C218.631 248.834 217.382 248.539 216.437 247.991Z" fill="url(#paint45_linear_182_3621)"/>
<path opacity="0.5" d="M254.421 232.996L224.615 250.205C221.882 251.78 217.748 251.953 215.391 250.592L184.264 232.62C183.126 231.96 182.608 231.076 182.679 230.152H182.669V231.422H182.679C182.608 232.346 183.126 233.24 184.264 233.89L215.391 251.861C217.758 253.223 221.892 253.06 224.615 251.475L254.421 234.266C255.996 233.352 256.758 232.173 256.667 231.086V229.816C256.758 230.903 255.996 232.082 254.421 232.996Z" fill="url(#paint46_linear_182_3621)"/>
<path d="M249.017 231.3C249.352 231.493 249.352 231.818 249.017 232.011C248.682 232.204 248.123 232.204 247.788 232.011C247.452 231.818 247.452 231.493 247.788 231.3C248.123 231.107 248.671 231.107 249.017 231.3Z" fill="#FCCC6B"/>
<path d="M250.927 230.192C251.262 230.385 251.262 230.71 250.927 230.903C250.592 231.096 250.033 231.096 249.698 230.903C249.362 230.71 249.362 230.385 249.698 230.192C250.043 229.999 250.592 229.999 250.927 230.192Z" fill="#FCCC6B"/>
<path d="M252.847 229.085C253.182 229.278 253.182 229.603 252.847 229.796C252.512 229.989 251.953 229.989 251.618 229.796C251.282 229.603 251.282 229.278 251.618 229.085C251.953 228.892 252.512 228.892 252.847 229.085Z" fill="#FCCC6B"/>
<path d="M91.7864 218.012C91.7254 218.012 91.6645 217.991 91.6035 217.961L0.182862 165.165C0.0711129 165.104 0 164.982 0 164.86C0 164.728 0.0711129 164.616 0.182862 164.555L36.938 143.404C37.1107 143.303 37.3241 143.364 37.4257 143.536C37.5273 143.709 37.4663 143.922 37.2936 144.024L1.06669 164.86L91.9591 217.351C92.1318 217.453 92.1927 217.666 92.0911 217.839C92.02 217.941 91.9083 218.012 91.7864 218.012Z" fill="#88FFF3"/>
<path d="M122.07 218.012C121.948 218.012 121.826 217.951 121.766 217.829C121.664 217.656 121.725 217.443 121.898 217.341L142.795 205.283C142.967 205.181 143.181 205.242 143.282 205.415C143.384 205.587 143.323 205.801 143.15 205.902L122.253 217.961C122.192 217.991 122.131 218.012 122.07 218.012Z" fill="#88FFF3"/>
<path d="M105.359 270.666C104.058 270.666 102.819 270.402 101.864 269.853L76.7815 255.376C75.786 254.807 75.2374 253.985 75.2374 253.07C75.2374 252.014 75.9891 250.967 77.3098 250.205L101.326 236.338C103.703 234.967 107.187 234.825 109.27 236.034L134.352 250.51C135.348 251.079 135.897 251.902 135.897 252.816C135.897 253.873 135.135 254.919 133.824 255.681L109.808 269.548C108.518 270.28 106.903 270.666 105.359 270.666ZM102.382 268.969C104.15 269.985 107.248 269.853 109.311 268.664L133.326 254.797C134.322 254.218 134.891 253.497 134.891 252.806C134.891 252.126 134.332 251.658 133.855 251.384L108.772 236.907C107.015 235.891 103.906 236.024 101.844 237.212L77.8279 251.079C76.8323 251.658 76.2634 252.379 76.2634 253.07C76.2634 253.751 76.8222 254.218 77.2996 254.493L102.382 268.969Z" fill="#FCCC6B"/>
<path d="M142.571 233.352V227.541H127.576L109.849 217.311C107.482 215.949 103.347 216.112 100.625 217.697L83.5677 227.551H68.5629V233.687H68.5731C68.502 234.611 69.0201 235.505 70.1579 236.156L101.285 254.127C103.652 255.488 107.787 255.326 110.509 253.741L140.316 236.532C141.901 235.627 142.663 234.449 142.571 233.352Z" fill="#312A91"/>
<path opacity="0.5" d="M142.571 233.352V227.541H127.576L109.849 217.311C107.482 215.949 103.347 216.112 100.625 217.697L83.5677 227.551H68.5629V233.687H68.5731C68.502 234.611 69.0201 235.505 70.1579 236.156L101.285 254.127C103.652 255.488 107.787 255.326 110.509 253.741L140.316 236.532C141.901 235.627 142.663 234.449 142.571 233.352Z" fill="url(#paint47_linear_182_3621)"/>
<path d="M109.859 217.311C108.721 216.65 107.177 216.356 105.572 216.396V255.041C107.299 255.001 109.097 254.564 110.52 253.741L140.326 236.531C141.901 235.617 142.663 234.439 142.571 233.352V227.541H127.576L109.859 217.311Z" fill="url(#paint48_linear_182_3621)"/>
<path d="M101.295 247.991L70.168 230.02C67.8009 228.658 68.0955 226.271 70.8283 224.696L100.635 207.487C103.368 205.912 107.502 205.74 109.859 207.101L140.986 225.072C143.353 226.433 143.059 228.821 140.326 230.395L110.519 247.605C107.787 249.179 103.652 249.352 101.295 247.991Z" fill="#312A91"/>
<path opacity="0.5" d="M101.295 247.991L70.168 230.02C67.8009 228.658 68.0955 226.271 70.8283 224.696L100.635 207.487C103.368 205.912 107.502 205.74 109.859 207.101L140.986 225.072C143.353 226.433 143.059 228.821 140.326 230.395L110.519 247.605C107.787 249.179 103.652 249.352 101.295 247.991Z" fill="url(#paint49_linear_182_3621)"/>
<path d="M102.128 244.019L77.0457 229.542C75.1358 228.445 75.3796 226.525 77.5841 225.245L101.59 211.378C103.794 210.108 107.116 209.966 109.026 211.073L134.109 225.55C136.019 226.647 135.775 228.577 133.57 229.847L109.554 243.714C107.36 244.974 104.028 245.116 102.128 244.019Z" fill="#5CFFF3"/>
<path d="M77.5739 227.124L101.59 213.257C103.794 211.987 107.116 211.845 109.026 212.953L134.109 227.429C134.576 227.703 134.921 228.018 135.125 228.374C135.673 227.358 135.358 226.281 134.109 225.55L109.026 211.073C107.116 209.976 103.794 210.108 101.59 211.378L77.5739 225.245C75.918 226.2 75.3695 227.531 76.0196 228.597C76.3041 228.059 76.8222 227.551 77.5739 227.124Z" fill="#42E8E0"/>
<path opacity="0.5" d="M102.342 247.991L71.2144 230.02C68.8474 228.658 68.2785 226.647 71.8748 224.696L101.681 207.487C103.022 206.715 104.709 206.278 106.354 206.197C104.404 206.105 102.27 206.542 100.645 207.487L70.8386 224.696C68.1058 226.271 67.8112 228.658 70.1782 230.02L101.305 247.991C102.504 248.682 104.17 248.976 105.867 248.895C104.536 248.834 103.286 248.539 102.342 247.991Z" fill="url(#paint50_linear_182_3621)"/>
<path opacity="0.5" d="M140.326 232.996L110.52 250.205C107.787 251.78 103.652 251.953 101.295 250.592L70.168 232.62C69.0302 231.96 68.5121 231.076 68.5833 230.152H68.5731V231.422H68.5833C68.5121 232.346 69.0302 233.24 70.168 233.89L101.295 251.861C103.662 253.223 107.797 253.06 110.52 251.475L140.326 234.266C141.901 233.352 142.663 232.173 142.571 231.086V229.816C142.663 230.903 141.901 232.082 140.326 232.996Z" fill="url(#paint51_linear_182_3621)"/>
<path d="M134.921 231.3C135.257 231.493 135.257 231.818 134.921 232.011C134.586 232.204 134.027 232.204 133.692 232.011C133.357 231.818 133.357 231.493 133.692 231.3C134.027 231.107 134.576 231.107 134.921 231.3Z" fill="#FCCC6B"/>
<path d="M136.831 230.192C137.167 230.385 137.167 230.71 136.831 230.903C136.496 231.096 135.937 231.096 135.602 230.903C135.267 230.71 135.267 230.385 135.602 230.192C135.947 229.999 136.496 229.999 136.831 230.192Z" fill="#FCCC6B"/>
<path d="M138.751 229.085C139.087 229.278 139.087 229.603 138.751 229.796C138.416 229.989 137.857 229.989 137.522 229.796C137.187 229.603 137.187 229.278 137.522 229.085C137.857 228.892 138.416 228.892 138.751 229.085Z" fill="#FCCC6B"/>
<path d="M162.625 285C160.329 285 158.043 284.411 156.001 283.232L120.79 262.904C120.567 262.772 120.485 262.488 120.618 262.254C120.75 262.031 121.044 261.949 121.268 262.081L156.489 282.409C160.288 284.604 165.002 284.604 168.802 282.409L204.023 262.081C204.246 261.949 204.541 262.031 204.673 262.254C204.805 262.477 204.724 262.772 204.5 262.904L169.249 283.232C167.207 284.411 164.911 285 162.625 285Z" fill="#FCCC6B"/>
</g>
<defs>
<linearGradient id="paint0_linear_182_3621" x1="146.582" y1="106.938" x2="22.0788" y2="81.3298" gradientUnits="userSpaceOnUse">
<stop stop-color="#180D5B"/>
<stop offset="0.095" stop-color="#1A1660"/>
<stop offset="0.2466" stop-color="#1E2D6E"/>
<stop offset="0.436" stop-color="#255385"/>
<stop offset="0.6555" stop-color="#2F87A5"/>
<stop offset="0.8978" stop-color="#3CCACE"/>
<stop offset="1" stop-color="#42E8E0"/>
</linearGradient>
<linearGradient id="paint1_linear_182_3621" x1="108.684" y1="138.262" x2="24.1079" y2="83.3285" gradientUnits="userSpaceOnUse">
<stop stop-color="#180D5B"/>
<stop offset="0.095" stop-color="#1A1660"/>
<stop offset="0.2466" stop-color="#1E2D6E"/>
<stop offset="0.436" stop-color="#255385"/>
<stop offset="0.6555" stop-color="#2F87A5"/>
<stop offset="0.8978" stop-color="#3CCACE"/>
<stop offset="1" stop-color="#42E8E0"/>
</linearGradient>
<linearGradient id="paint2_linear_182_3621" x1="84.99" y1="139.899" x2="16.5859" y2="103.42" gradientUnits="userSpaceOnUse">
<stop stop-color="#180D5B"/>
<stop offset="0.095" stop-color="#1A1660"/>
<stop offset="0.2466" stop-color="#1E2D6E"/>
<stop offset="0.436" stop-color="#255385"/>
<stop offset="0.6555" stop-color="#2F87A5"/>
<stop offset="0.8978" stop-color="#3CCACE"/>
<stop offset="1" stop-color="#42E8E0"/>
</linearGradient>
<linearGradient id="paint3_linear_182_3621" x1="118.729" y1="159.549" x2="29.7493" y2="110.752" gradientUnits="userSpaceOnUse">
<stop stop-color="#180D5B"/>
<stop offset="0.095" stop-color="#1A1660"/>
<stop offset="0.2466" stop-color="#1E2D6E"/>
<stop offset="0.436" stop-color="#255385"/>
<stop offset="0.6555" stop-color="#2F87A5"/>
<stop offset="0.8978" stop-color="#3CCACE"/>
<stop offset="1" stop-color="#42E8E0"/>
</linearGradient>
<linearGradient id="paint4_linear_182_3621" x1="47.0381" y1="144.216" x2="108.921" y2="144.216" gradientUnits="userSpaceOnUse">
<stop stop-color="#2B237C"/>
<stop offset="1" stop-color="#180D5B"/>
</linearGradient>
<linearGradient id="paint5_linear_182_3621" x1="65.956" y1="159.094" x2="9.59444" y2="127.054" gradientUnits="userSpaceOnUse">
<stop stop-color="#180D5B"/>
<stop offset="0.0951" stop-color="#1A1560"/>
<stop offset="0.2465" stop-color="#1E2D6E"/>
<stop offset="0.2819" stop-color="#1F3372"/>
<stop offset="0.3779" stop-color="#22447C"/>
<stop offset="0.5681" stop-color="#2B7097"/>
<stop offset="0.832" stop-color="#39B7C2"/>
<stop offset="1" stop-color="#42E8E0"/>
</linearGradient>
<linearGradient id="paint6_linear_182_3621" x1="90.2902" y1="86.7679" x2="17.6844" y2="39.6097" gradientUnits="userSpaceOnUse">
<stop stop-color="#180D5B"/>
<stop offset="0.095" stop-color="#1A1660"/>
<stop offset="0.2466" stop-color="#1E2D6E"/>
<stop offset="0.436" stop-color="#255385"/>
<stop offset="0.6555" stop-color="#2F87A5"/>
<stop offset="0.8978" stop-color="#3CCACE"/>
<stop offset="1" stop-color="#42E8E0"/>
</linearGradient>
<linearGradient id="paint7_linear_182_3621" x1="47.0381" y1="84.1122" x2="108.921" y2="84.1122" gradientUnits="userSpaceOnUse">
<stop stop-color="#2B237C"/>
<stop offset="1" stop-color="#180D5B"/>
</linearGradient>
<linearGradient id="paint8_linear_182_3621" x1="58.7453" y1="94.8026" x2="8.02285" y2="66.2053" gradientUnits="userSpaceOnUse">
<stop stop-color="#180D5B"/>
<stop offset="0.0951" stop-color="#1A1560"/>
<stop offset="0.2465" stop-color="#1E2D6E"/>
<stop offset="0.2819" stop-color="#1F3372"/>
<stop offset="0.3779" stop-color="#22447C"/>
<stop offset="0.5681" stop-color="#2B7097"/>
<stop offset="0.832" stop-color="#39B7C2"/>
<stop offset="1" stop-color="#42E8E0"/>
</linearGradient>
<linearGradient id="paint9_linear_182_3621" x1="75.8546" y1="71.279" x2="17.4832" y2="58.0976" gradientUnits="userSpaceOnUse">
<stop stop-color="#180D5B"/>
<stop offset="0.095" stop-color="#1A1660"/>
<stop offset="0.2466" stop-color="#1E2D6E"/>
<stop offset="0.436" stop-color="#255385"/>
<stop offset="0.6555" stop-color="#2F87A5"/>
<stop offset="0.8978" stop-color="#3CCACE"/>
<stop offset="1" stop-color="#42E8E0"/>
</linearGradient>
<linearGradient id="paint10_linear_182_3621" x1="87.6471" y1="83.2513" x2="21.69" y2="40.4116" gradientUnits="userSpaceOnUse">
<stop stop-color="#180D5B"/>
<stop offset="0.095" stop-color="#1A1660"/>
<stop offset="0.2466" stop-color="#1E2D6E"/>
<stop offset="0.436" stop-color="#255385"/>
<stop offset="0.6555" stop-color="#2F87A5"/>
<stop offset="0.8978" stop-color="#3CCACE"/>
<stop offset="1" stop-color="#42E8E0"/>
</linearGradient>
<linearGradient id="paint11_linear_182_3621" x1="48.3558" y1="78.4346" x2="104.572" y2="78.4346" gradientUnits="userSpaceOnUse">
<stop stop-color="#2B237C"/>
<stop offset="1" stop-color="#180D5B"/>
</linearGradient>
<linearGradient id="paint12_linear_182_3621" x1="58.1541" y1="87.6742" x2="14.3149" y2="62.9576" gradientUnits="userSpaceOnUse">
<stop stop-color="#180D5B"/>
<stop offset="0.0951" stop-color="#1A1560"/>
<stop offset="0.2465" stop-color="#1E2D6E"/>
<stop offset="0.2819" stop-color="#1F3372"/>
<stop offset="0.3779" stop-color="#22447C"/>
<stop offset="0.5681" stop-color="#2B7097"/>
<stop offset="0.832" stop-color="#39B7C2"/>
<stop offset="1" stop-color="#42E8E0"/>
</linearGradient>
<linearGradient id="paint13_linear_182_3621" x1="74.5335" y1="69.1809" x2="21.5073" y2="57.2066" gradientUnits="userSpaceOnUse">
<stop stop-color="#180D5B"/>
<stop offset="0.095" stop-color="#1A1660"/>
<stop offset="0.2466" stop-color="#1E2D6E"/>
<stop offset="0.436" stop-color="#255385"/>
<stop offset="0.6555" stop-color="#2F87A5"/>
<stop offset="0.8978" stop-color="#3CCACE"/>
<stop offset="1" stop-color="#42E8E0"/>
</linearGradient>
<linearGradient id="paint14_linear_182_3621" x1="350.686" y1="105.835" x2="226.183" y2="80.2268" gradientUnits="userSpaceOnUse">
<stop stop-color="#180D5B"/>
<stop offset="0.095" stop-color="#1A1660"/>
<stop offset="0.2466" stop-color="#1E2D6E"/>
<stop offset="0.436" stop-color="#255385"/>
<stop offset="0.6555" stop-color="#2F87A5"/>
<stop offset="0.8978" stop-color="#3CCACE"/>
<stop offset="1" stop-color="#42E8E0"/>
</linearGradient>
<linearGradient id="paint15_linear_182_3621" x1="312.789" y1="137.159" x2="228.213" y2="82.2256" gradientUnits="userSpaceOnUse">
<stop stop-color="#180D5B"/>
<stop offset="0.095" stop-color="#1A1660"/>
<stop offset="0.2466" stop-color="#1E2D6E"/>
<stop offset="0.436" stop-color="#255385"/>
<stop offset="0.6555" stop-color="#2F87A5"/>
<stop offset="0.8978" stop-color="#3CCACE"/>
<stop offset="1" stop-color="#42E8E0"/>
</linearGradient>
<linearGradient id="paint16_linear_182_3621" x1="289.095" y1="138.797" x2="220.691" y2="102.317" gradientUnits="userSpaceOnUse">
<stop stop-color="#180D5B"/>
<stop offset="0.095" stop-color="#1A1660"/>
<stop offset="0.2466" stop-color="#1E2D6E"/>
<stop offset="0.436" stop-color="#255385"/>
<stop offset="0.6555" stop-color="#2F87A5"/>
<stop offset="0.8978" stop-color="#3CCACE"/>
<stop offset="1" stop-color="#42E8E0"/>
</linearGradient>
<linearGradient id="paint17_linear_182_3621" x1="322.834" y1="158.447" x2="233.854" y2="109.649" gradientUnits="userSpaceOnUse">
<stop stop-color="#180D5B"/>
<stop offset="0.095" stop-color="#1A1660"/>
<stop offset="0.2466" stop-color="#1E2D6E"/>
<stop offset="0.436" stop-color="#255385"/>
<stop offset="0.6555" stop-color="#2F87A5"/>
<stop offset="0.8978" stop-color="#3CCACE"/>
<stop offset="1" stop-color="#42E8E0"/>
</linearGradient>
<linearGradient id="paint18_linear_182_3621" x1="251.143" y1="143.113" x2="313.026" y2="143.113" gradientUnits="userSpaceOnUse">
<stop stop-color="#2B237C"/>
<stop offset="1" stop-color="#180D5B"/>
</linearGradient>
<linearGradient id="paint19_linear_182_3621" x1="270.061" y1="157.991" x2="213.699" y2="125.951" gradientUnits="userSpaceOnUse">
<stop stop-color="#180D5B"/>
<stop offset="0.0951" stop-color="#1A1560"/>
<stop offset="0.2465" stop-color="#1E2D6E"/>
<stop offset="0.2819" stop-color="#1F3372"/>
<stop offset="0.3779" stop-color="#22447C"/>
<stop offset="0.5681" stop-color="#2B7097"/>
<stop offset="0.832" stop-color="#39B7C2"/>
<stop offset="1" stop-color="#42E8E0"/>
</linearGradient>
<linearGradient id="paint20_linear_182_3621" x1="294.395" y1="85.665" x2="221.789" y2="38.5068" gradientUnits="userSpaceOnUse">
<stop stop-color="#180D5B"/>
<stop offset="0.095" stop-color="#1A1660"/>
<stop offset="0.2466" stop-color="#1E2D6E"/>
<stop offset="0.436" stop-color="#255385"/>
<stop offset="0.6555" stop-color="#2F87A5"/>
<stop offset="0.8978" stop-color="#3CCACE"/>
<stop offset="1" stop-color="#42E8E0"/>
</linearGradient>
<linearGradient id="paint21_linear_182_3621" x1="251.143" y1="83.0093" x2="313.026" y2="83.0093" gradientUnits="userSpaceOnUse">
<stop stop-color="#2B237C"/>
<stop offset="1" stop-color="#180D5B"/>
</linearGradient>
<linearGradient id="paint22_linear_182_3621" x1="262.85" y1="93.6997" x2="212.128" y2="65.1024" gradientUnits="userSpaceOnUse">
<stop stop-color="#180D5B"/>
<stop offset="0.0951" stop-color="#1A1560"/>
<stop offset="0.2465" stop-color="#1E2D6E"/>
<stop offset="0.2819" stop-color="#1F3372"/>
<stop offset="0.3779" stop-color="#22447C"/>
<stop offset="0.5681" stop-color="#2B7097"/>
<stop offset="0.832" stop-color="#39B7C2"/>
<stop offset="1" stop-color="#42E8E0"/>
</linearGradient>
<linearGradient id="paint23_linear_182_3621" x1="279.959" y1="70.1761" x2="221.588" y2="56.9948" gradientUnits="userSpaceOnUse">
<stop stop-color="#180D5B"/>
<stop offset="0.095" stop-color="#1A1660"/>
<stop offset="0.2466" stop-color="#1E2D6E"/>
<stop offset="0.436" stop-color="#255385"/>
<stop offset="0.6555" stop-color="#2F87A5"/>
<stop offset="0.8978" stop-color="#3CCACE"/>
<stop offset="1" stop-color="#42E8E0"/>
</linearGradient>
<linearGradient id="paint24_linear_182_3621" x1="291.752" y1="82.1484" x2="225.795" y2="39.3087" gradientUnits="userSpaceOnUse">
<stop stop-color="#180D5B"/>
<stop offset="0.095" stop-color="#1A1660"/>
<stop offset="0.2466" stop-color="#1E2D6E"/>
<stop offset="0.436" stop-color="#255385"/>
<stop offset="0.6555" stop-color="#2F87A5"/>
<stop offset="0.8978" stop-color="#3CCACE"/>
<stop offset="1" stop-color="#42E8E0"/>
</linearGradient>
<linearGradient id="paint25_linear_182_3621" x1="252.461" y1="77.3317" x2="308.677" y2="77.3317" gradientUnits="userSpaceOnUse">
<stop stop-color="#2B237C"/>
<stop offset="1" stop-color="#180D5B"/>
</linearGradient>
<linearGradient id="paint26_linear_182_3621" x1="262.259" y1="86.5713" x2="218.42" y2="61.8547" gradientUnits="userSpaceOnUse">
<stop stop-color="#180D5B"/>
<stop offset="0.0951" stop-color="#1A1560"/>
<stop offset="0.2465" stop-color="#1E2D6E"/>
<stop offset="0.2819" stop-color="#1F3372"/>
<stop offset="0.3779" stop-color="#22447C"/>
<stop offset="0.5681" stop-color="#2B7097"/>
<stop offset="0.832" stop-color="#39B7C2"/>
<stop offset="1" stop-color="#42E8E0"/>
</linearGradient>
<linearGradient id="paint27_linear_182_3621" x1="278.638" y1="68.0779" x2="225.612" y2="56.1037" gradientUnits="userSpaceOnUse">
<stop stop-color="#180D5B"/>
<stop offset="0.095" stop-color="#1A1660"/>
<stop offset="0.2466" stop-color="#1E2D6E"/>
<stop offset="0.436" stop-color="#255385"/>
<stop offset="0.6555" stop-color="#2F87A5"/>
<stop offset="0.8978" stop-color="#3CCACE"/>
<stop offset="1" stop-color="#42E8E0"/>
</linearGradient>
<linearGradient id="paint28_linear_182_3621" x1="247.776" y1="165.405" x2="123.273" y2="139.797" gradientUnits="userSpaceOnUse">
<stop stop-color="#180D5B"/>
<stop offset="0.095" stop-color="#1A1660"/>
<stop offset="0.2466" stop-color="#1E2D6E"/>
<stop offset="0.436" stop-color="#255385"/>
<stop offset="0.6555" stop-color="#2F87A5"/>
<stop offset="0.8978" stop-color="#3CCACE"/>
<stop offset="1" stop-color="#42E8E0"/>
</linearGradient>
<linearGradient id="paint29_linear_182_3621" x1="209.879" y1="196.729" x2="125.303" y2="141.796" gradientUnits="userSpaceOnUse">
<stop stop-color="#180D5B"/>
<stop offset="0.095" stop-color="#1A1660"/>
<stop offset="0.2466" stop-color="#1E2D6E"/>
<stop offset="0.436" stop-color="#255385"/>
<stop offset="0.6555" stop-color="#2F87A5"/>
<stop offset="0.8978" stop-color="#3CCACE"/>
<stop offset="1" stop-color="#42E8E0"/>
</linearGradient>
<linearGradient id="paint30_linear_182_3621" x1="186.185" y1="198.367" x2="117.781" y2="161.887" gradientUnits="userSpaceOnUse">
<stop stop-color="#180D5B"/>
<stop offset="0.095" stop-color="#1A1660"/>
<stop offset="0.2466" stop-color="#1E2D6E"/>
<stop offset="0.436" stop-color="#255385"/>
<stop offset="0.6555" stop-color="#2F87A5"/>
<stop offset="0.8978" stop-color="#3CCACE"/>
<stop offset="1" stop-color="#42E8E0"/>
</linearGradient>
<linearGradient id="paint31_linear_182_3621" x1="219.924" y1="218.017" x2="130.944" y2="169.219" gradientUnits="userSpaceOnUse">
<stop stop-color="#180D5B"/>
<stop offset="0.095" stop-color="#1A1660"/>
<stop offset="0.2466" stop-color="#1E2D6E"/>
<stop offset="0.436" stop-color="#255385"/>
<stop offset="0.6555" stop-color="#2F87A5"/>
<stop offset="0.8978" stop-color="#3CCACE"/>
<stop offset="1" stop-color="#42E8E0"/>
</linearGradient>
<linearGradient id="paint32_linear_182_3621" x1="148.233" y1="202.683" x2="210.116" y2="202.683" gradientUnits="userSpaceOnUse">
<stop stop-color="#2B237C"/>
<stop offset="1" stop-color="#180D5B"/>
</linearGradient>
<linearGradient id="paint33_linear_182_3621" x1="167.151" y1="217.561" x2="110.789" y2="185.521" gradientUnits="userSpaceOnUse">
<stop stop-color="#180D5B"/>
<stop offset="0.0951" stop-color="#1A1560"/>
<stop offset="0.2465" stop-color="#1E2D6E"/>
<stop offset="0.2819" stop-color="#1F3372"/>
<stop offset="0.3779" stop-color="#22447C"/>
<stop offset="0.5681" stop-color="#2B7097"/>
<stop offset="0.832" stop-color="#39B7C2"/>
<stop offset="1" stop-color="#42E8E0"/>
</linearGradient>
<linearGradient id="paint34_linear_182_3621" x1="191.485" y1="145.235" x2="118.879" y2="98.0771" gradientUnits="userSpaceOnUse">
<stop stop-color="#180D5B"/>
<stop offset="0.095" stop-color="#1A1660"/>
<stop offset="0.2466" stop-color="#1E2D6E"/>
<stop offset="0.436" stop-color="#255385"/>
<stop offset="0.6555" stop-color="#2F87A5"/>
<stop offset="0.8978" stop-color="#3CCACE"/>
<stop offset="1" stop-color="#42E8E0"/>
</linearGradient>
<linearGradient id="paint35_linear_182_3621" x1="148.233" y1="142.58" x2="210.116" y2="142.58" gradientUnits="userSpaceOnUse">
<stop stop-color="#2B237C"/>
<stop offset="1" stop-color="#180D5B"/>
</linearGradient>
<linearGradient id="paint36_linear_182_3621" x1="159.94" y1="153.27" x2="109.218" y2="124.673" gradientUnits="userSpaceOnUse">
<stop stop-color="#180D5B"/>
<stop offset="0.0951" stop-color="#1A1560"/>
<stop offset="0.2465" stop-color="#1E2D6E"/>
<stop offset="0.2819" stop-color="#1F3372"/>
<stop offset="0.3779" stop-color="#22447C"/>
<stop offset="0.5681" stop-color="#2B7097"/>
<stop offset="0.832" stop-color="#39B7C2"/>
<stop offset="1" stop-color="#42E8E0"/>
</linearGradient>
<linearGradient id="paint37_linear_182_3621" x1="177.049" y1="129.746" x2="118.678" y2="116.565" gradientUnits="userSpaceOnUse">
<stop stop-color="#180D5B"/>
<stop offset="0.095" stop-color="#1A1660"/>
<stop offset="0.2466" stop-color="#1E2D6E"/>
<stop offset="0.436" stop-color="#255385"/>
<stop offset="0.6555" stop-color="#2F87A5"/>
<stop offset="0.8978" stop-color="#3CCACE"/>
<stop offset="1" stop-color="#42E8E0"/>
</linearGradient>
<linearGradient id="paint38_linear_182_3621" x1="188.842" y1="141.719" x2="122.885" y2="98.879" gradientUnits="userSpaceOnUse">
<stop stop-color="#180D5B"/>
<stop offset="0.095" stop-color="#1A1660"/>
<stop offset="0.2466" stop-color="#1E2D6E"/>
<stop offset="0.436" stop-color="#255385"/>
<stop offset="0.6555" stop-color="#2F87A5"/>
<stop offset="0.8978" stop-color="#3CCACE"/>
<stop offset="1" stop-color="#42E8E0"/>
</linearGradient>
<linearGradient id="paint39_linear_182_3621" x1="149.551" y1="136.902" x2="205.767" y2="136.902" gradientUnits="userSpaceOnUse">
<stop stop-color="#2B237C"/>
<stop offset="1" stop-color="#180D5B"/>
</linearGradient>
<linearGradient id="paint40_linear_182_3621" x1="159.349" y1="146.142" x2="115.51" y2="121.425" gradientUnits="userSpaceOnUse">
<stop stop-color="#180D5B"/>
<stop offset="0.0951" stop-color="#1A1560"/>
<stop offset="0.2465" stop-color="#1E2D6E"/>
<stop offset="0.2819" stop-color="#1F3372"/>
<stop offset="0.3779" stop-color="#22447C"/>
<stop offset="0.5681" stop-color="#2B7097"/>
<stop offset="0.832" stop-color="#39B7C2"/>
<stop offset="1" stop-color="#42E8E0"/>
</linearGradient>
<linearGradient id="paint41_linear_182_3621" x1="175.728" y1="127.648" x2="122.702" y2="115.674" gradientUnits="userSpaceOnUse">
<stop stop-color="#180D5B"/>
<stop offset="0.095" stop-color="#1A1660"/>
<stop offset="0.2466" stop-color="#1E2D6E"/>
<stop offset="0.436" stop-color="#255385"/>
<stop offset="0.6555" stop-color="#2F87A5"/>
<stop offset="0.8978" stop-color="#3CCACE"/>
<stop offset="1" stop-color="#42E8E0"/>
</linearGradient>
<linearGradient id="paint42_linear_182_3621" x1="166.3" y1="235.719" x2="240.314" y2="235.719" gradientUnits="userSpaceOnUse">
<stop stop-color="#42E8E0"/>
<stop offset="0.1022" stop-color="#3CCACE"/>
<stop offset="0.3445" stop-color="#2F87A5"/>
<stop offset="0.564" stop-color="#255385"/>
<stop offset="0.7534" stop-color="#1E2D6E"/>
<stop offset="0.905" stop-color="#1A1660"/>
<stop offset="1" stop-color="#180D5B"/>
</linearGradient>
<linearGradient id="paint43_linear_182_3621" x1="219.667" y1="235.717" x2="256.674" y2="235.717" gradientUnits="userSpaceOnUse">
<stop stop-color="#2B237C"/>
<stop offset="1" stop-color="#180D5B"/>
</linearGradient>
<linearGradient id="paint44_linear_182_3621" x1="182.66" y1="227.542" x2="256.679" y2="227.542" gradientUnits="userSpaceOnUse">
<stop stop-color="#42E8E0"/>
<stop offset="0.1022" stop-color="#3CCACE"/>
<stop offset="0.3445" stop-color="#2F87A5"/>
<stop offset="0.564" stop-color="#255385"/>
<stop offset="0.7534" stop-color="#1E2D6E"/>
<stop offset="0.905" stop-color="#1A1660"/>
<stop offset="1" stop-color="#180D5B"/>
</linearGradient>
<linearGradient id="paint45_linear_182_3621" x1="182.66" y1="227.543" x2="220.438" y2="227.543" gradientUnits="userSpaceOnUse">
<stop stop-color="#42E8E0"/>
<stop offset="0.1022" stop-color="#3CCACE"/>
<stop offset="0.3445" stop-color="#2F87A5"/>
<stop offset="0.564" stop-color="#255385"/>
<stop offset="0.7534" stop-color="#1E2D6E"/>
<stop offset="0.905" stop-color="#1A1660"/>
<stop offset="1" stop-color="#180D5B"/>
</linearGradient>
<linearGradient id="paint46_linear_182_3621" x1="192.728" y1="249.08" x2="254.681" y2="208.586" gradientUnits="userSpaceOnUse">
<stop stop-color="#42E8E0"/>
<stop offset="0.1022" stop-color="#3CCACE"/>
<stop offset="0.3445" stop-color="#2F87A5"/>
<stop offset="0.564" stop-color="#255385"/>
<stop offset="0.7534" stop-color="#1E2D6E"/>
<stop offset="0.905" stop-color="#1A1660"/>
<stop offset="1" stop-color="#180D5B"/>
</linearGradient>
<linearGradient id="paint47_linear_182_3621" x1="52.204" y1="235.719" x2="126.218" y2="235.719" gradientUnits="userSpaceOnUse">
<stop stop-color="#42E8E0"/>
<stop offset="0.1022" stop-color="#3CCACE"/>
<stop offset="0.3445" stop-color="#2F87A5"/>
<stop offset="0.564" stop-color="#255385"/>
<stop offset="0.7534" stop-color="#1E2D6E"/>
<stop offset="0.905" stop-color="#1A1660"/>
<stop offset="1" stop-color="#180D5B"/>
</linearGradient>
<linearGradient id="paint48_linear_182_3621" x1="105.571" y1="235.717" x2="142.578" y2="235.717" gradientUnits="userSpaceOnUse">
<stop stop-color="#2B237C"/>
<stop offset="1" stop-color="#180D5B"/>
</linearGradient>
<linearGradient id="paint49_linear_182_3621" x1="68.5644" y1="227.542" x2="142.583" y2="227.542" gradientUnits="userSpaceOnUse">
<stop stop-color="#42E8E0"/>
<stop offset="0.1022" stop-color="#3CCACE"/>
<stop offset="0.3445" stop-color="#2F87A5"/>
<stop offset="0.564" stop-color="#255385"/>
<stop offset="0.7534" stop-color="#1E2D6E"/>
<stop offset="0.905" stop-color="#1A1660"/>
<stop offset="1" stop-color="#180D5B"/>
</linearGradient>
<linearGradient id="paint50_linear_182_3621" x1="68.5644" y1="227.543" x2="106.342" y2="227.543" gradientUnits="userSpaceOnUse">
<stop stop-color="#42E8E0"/>
<stop offset="0.1022" stop-color="#3CCACE"/>
<stop offset="0.3445" stop-color="#2F87A5"/>
<stop offset="0.564" stop-color="#255385"/>
<stop offset="0.7534" stop-color="#1E2D6E"/>
<stop offset="0.905" stop-color="#1A1660"/>
<stop offset="1" stop-color="#180D5B"/>
</linearGradient>
<linearGradient id="paint51_linear_182_3621" x1="78.6317" y1="249.08" x2="140.585" y2="208.586" gradientUnits="userSpaceOnUse">
<stop stop-color="#42E8E0"/>
<stop offset="0.1022" stop-color="#3CCACE"/>
<stop offset="0.3445" stop-color="#2F87A5"/>
<stop offset="0.564" stop-color="#255385"/>
<stop offset="0.7534" stop-color="#1E2D6E"/>
<stop offset="0.905" stop-color="#1A1660"/>
<stop offset="1" stop-color="#180D5B"/>
</linearGradient>
<clipPath id="clip0_182_3621">
<rect width="323.909" height="285" fill="white"/>
</clipPath>
</defs>
</svg>
