<svg width="298" height="256" viewBox="0 0 298 256" fill="none" xmlns="http://www.w3.org/2000/svg">
<path opacity="0.7" d="M149.219 256C231.123 256 297.52 252.124 297.52 247.342C297.52 242.56 231.123 238.683 149.219 238.683C67.314 238.683 0.917114 242.56 0.917114 247.342C0.917114 252.124 67.314 256 149.219 256Z" fill="url(#paint0_linear_222_504)"/>
<path d="M163.032 50.547L159.751 54.4861L166.306 57.2167L163.032 50.547Z" fill="url(#paint1_linear_222_504)"/>
<path d="M221.981 108.387L226.196 105.304L220.566 101.174L221.981 108.387Z" fill="url(#paint2_linear_222_504)"/>
<path d="M106.294 5.77886L105.973 0.814819L99.0965 2.72701L106.294 5.77886Z" fill="url(#paint3_linear_222_504)"/>
<path d="M109.246 152.52L105.965 156.459L112.52 159.19L109.246 152.52Z" fill="url(#paint4_linear_222_504)"/>
<path d="M145.524 85.1882L150.764 85.4941L150.114 90.9553L143.888 89.4332L145.524 85.1882Z" fill="url(#paint5_linear_222_504)"/>
<path d="M245.356 141.185L242.87 145.468L237.784 142.638L241.868 138.033L245.356 141.185Z" fill="url(#paint6_linear_222_504)"/>
<path d="M131.596 161.255L136.835 161.561L136.185 167.022L129.959 165.5L131.596 161.255Z" fill="url(#paint7_linear_222_504)"/>
<path d="M193.689 86.366L196.962 86.9703C196.962 86.9703 192.044 90.0068 194.339 92.4315C196.633 94.8561 192.702 96.9825 192.702 96.9825L189.749 95.1621C189.749 95.1621 192.373 93.3417 191.057 90.917C189.757 88.4924 193.689 86.366 193.689 86.366Z" fill="url(#paint8_linear_222_504)"/>
<path d="M185.451 31.4022L182.445 35.5248L189.168 37.8807L185.451 31.4022Z" fill="url(#paint9_linear_222_504)"/>
<path d="M225.125 30.362L226.953 25.6809L219.809 24.9237L225.125 30.362Z" fill="url(#paint10_linear_222_504)"/>
<path d="M220.016 64.6436L220.972 59.8632L226.746 61.1252L224.368 66.6705L220.016 64.6436Z" fill="url(#paint11_linear_222_504)"/>
<path d="M255.628 93.0969L252.309 93.4411C252.309 93.4411 255.995 89.1655 253.012 87.498C250.029 85.8306 253.081 82.7023 253.081 82.7023L256.485 83.6048C256.485 83.6048 254.588 86.0754 256.63 88.0182C258.68 89.9686 255.628 93.0969 255.628 93.0969Z" fill="url(#paint12_linear_222_504)"/>
<path d="M182.529 164.139L185.803 164.743C185.803 164.743 180.885 167.779 183.179 170.204C185.474 172.629 181.542 174.755 181.542 174.755L178.59 172.935C178.59 172.935 181.213 171.114 179.898 168.69C178.598 166.265 182.529 164.139 182.529 164.139Z" fill="url(#paint13_linear_222_504)"/>
<path d="M226.655 170.456L223.381 174.396L229.936 177.126L226.655 170.456Z" fill="url(#paint14_linear_222_504)"/>
<path d="M191.555 132.465L196.802 132.771L196.144 138.232L189.918 136.718L191.555 132.465Z" fill="url(#paint15_linear_222_504)"/>
<path d="M109.078 193.013L112.352 193.617C112.352 193.617 107.434 196.653 109.728 199.078C112.023 201.503 108.091 203.629 108.091 203.629L105.139 201.809C105.139 201.809 107.763 199.988 106.447 197.564C105.147 195.139 109.078 193.013 109.078 193.013Z" fill="url(#paint16_linear_222_504)"/>
<path d="M161.373 13.114L159.315 13.5576C159.315 13.5576 160.195 9.51144 157.632 8.11172C155.07 6.712 155.942 3.73663 155.942 3.73663L158.512 4.42502C158.512 4.42502 158.152 6.75024 160.202 8.44062C162.245 10.1386 161.373 13.114 161.373 13.114Z" fill="url(#paint17_linear_222_504)"/>
<path d="M151.789 134.186L148.691 135.349C148.691 135.349 150.993 130.308 147.635 129.451C144.278 128.595 146.305 124.816 146.305 124.816L149.846 124.832C149.846 124.832 148.737 127.685 151.276 129.046C153.808 130.415 151.789 134.186 151.789 134.186Z" fill="url(#paint18_linear_222_504)"/>
<path d="M108.749 59.8632C110.105 59.8632 111.205 58.8427 111.205 57.5838C111.205 56.325 110.105 55.3045 108.749 55.3045C107.393 55.3045 106.294 56.325 106.294 57.5838C106.294 58.8427 107.393 59.8632 108.749 59.8632Z" fill="url(#paint19_linear_222_504)"/>
<path d="M196.855 5.5723C196.855 6.82669 195.754 7.85162 194.4 7.85162C193.046 7.85162 191.945 6.83434 191.945 5.5723C191.945 4.3179 193.046 3.29297 194.4 3.29297C195.754 3.30062 196.855 4.3179 196.855 5.5723Z" fill="url(#paint20_linear_222_504)"/>
<path d="M125.339 21.2599L121.423 24.6789L127.427 28.335L125.339 21.2599Z" fill="url(#paint21_linear_222_504)"/>
<path d="M93.3829 124.472L95.9835 120.12L89.069 118.323L93.3829 124.472Z" fill="url(#paint22_linear_222_504)"/>
<path d="M55.1926 131.899L53.8159 136.71L60.998 136.886L55.1926 131.899Z" fill="url(#paint23_linear_222_504)"/>
<path d="M35.9561 93.7318L35.4513 98.5735L29.577 97.778L31.4204 92.072L35.9561 93.7318Z" fill="url(#paint24_linear_222_504)"/>
<path d="M107.128 86.9091L110.401 86.2972C110.401 86.2972 107.135 90.8559 110.264 92.2709C113.392 93.6859 110.654 97.0514 110.654 97.0514L107.174 96.4242C107.174 96.4242 108.833 93.8083 106.608 92.0338C104.389 90.2746 107.128 86.9091 107.128 86.9091Z" fill="url(#paint25_linear_222_504)"/>
<path d="M48.1329 59.1595L51.0165 54.9679L44.2321 52.7804L48.1329 59.1595Z" fill="url(#paint26_linear_222_504)"/>
<path d="M81.5044 83.9337L76.2574 84.0561L76.3874 78.5643L82.7358 79.5663L81.5044 83.9337Z" fill="url(#paint27_linear_222_504)"/>
<path d="M76.418 32.2435L73.0984 31.907C73.0984 31.907 77.703 28.4803 75.1865 26.2545C72.6701 24.0211 76.3874 21.5888 76.3874 21.5888L79.5004 23.1644C79.5004 23.1644 77.0605 25.1914 78.5979 27.5013C80.1276 29.8112 76.418 32.2435 76.418 32.2435Z" fill="url(#paint28_linear_222_504)"/>
<path d="M68.6009 177.333C68.4785 176.078 69.4805 174.977 70.8343 174.862C72.1881 174.755 73.3813 175.68 73.4961 176.927C73.6185 178.182 72.6165 179.283 71.2626 179.398C69.9165 179.505 68.7233 178.579 68.6009 177.333Z" fill="url(#paint29_linear_222_504)"/>
<g opacity="0.7">
<path d="M163.032 50.547L159.751 54.4861L166.306 57.2167L163.032 50.547Z" fill="url(#paint30_linear_222_504)"/>
<path d="M221.981 108.387L226.196 105.304L220.566 101.174L221.981 108.387Z" fill="url(#paint31_linear_222_504)"/>
<path d="M106.294 5.77886L105.973 0.814819L99.0965 2.72701L106.294 5.77886Z" fill="url(#paint32_linear_222_504)"/>
<path d="M109.246 152.52L105.965 156.459L112.52 159.19L109.246 152.52Z" fill="url(#paint33_linear_222_504)"/>
<path d="M145.524 85.1882L150.764 85.4941L150.114 90.9553L143.888 89.4332L145.524 85.1882Z" fill="url(#paint34_linear_222_504)"/>
<path d="M245.356 141.185L242.87 145.468L237.784 142.638L241.868 138.033L245.356 141.185Z" fill="url(#paint35_linear_222_504)"/>
<path d="M131.596 161.255L136.835 161.561L136.185 167.022L129.959 165.5L131.596 161.255Z" fill="url(#paint36_linear_222_504)"/>
<path d="M193.689 86.366L196.962 86.9703C196.962 86.9703 192.044 90.0068 194.339 92.4315C196.633 94.8561 192.702 96.9825 192.702 96.9825L189.749 95.1621C189.749 95.1621 192.373 93.3417 191.057 90.917C189.757 88.4924 193.689 86.366 193.689 86.366Z" fill="url(#paint37_linear_222_504)"/>
<path d="M185.451 31.4022L182.445 35.5248L189.168 37.8807L185.451 31.4022Z" fill="url(#paint38_linear_222_504)"/>
<path d="M225.125 30.362L226.953 25.6809L219.809 24.9237L225.125 30.362Z" fill="url(#paint39_linear_222_504)"/>
<path d="M220.016 64.6436L220.972 59.8632L226.746 61.1252L224.368 66.6705L220.016 64.6436Z" fill="url(#paint40_linear_222_504)"/>
<path d="M255.628 93.0969L252.309 93.4411C252.309 93.4411 255.995 89.1655 253.012 87.498C250.029 85.8306 253.081 82.7023 253.081 82.7023L256.485 83.6048C256.485 83.6048 254.588 86.0754 256.63 88.0182C258.68 89.9686 255.628 93.0969 255.628 93.0969Z" fill="url(#paint41_linear_222_504)"/>
<path d="M182.529 164.139L185.803 164.743C185.803 164.743 180.885 167.779 183.179 170.204C185.474 172.629 181.542 174.755 181.542 174.755L178.59 172.935C178.59 172.935 181.213 171.114 179.898 168.69C178.598 166.265 182.529 164.139 182.529 164.139Z" fill="url(#paint42_linear_222_504)"/>
<path d="M226.655 170.456L223.381 174.396L229.936 177.126L226.655 170.456Z" fill="url(#paint43_linear_222_504)"/>
<path d="M191.555 132.465L196.802 132.771L196.144 138.232L189.918 136.718L191.555 132.465Z" fill="url(#paint44_linear_222_504)"/>
<path d="M109.078 193.013L112.352 193.617C112.352 193.617 107.434 196.653 109.728 199.078C112.023 201.503 108.091 203.629 108.091 203.629L105.139 201.809C105.139 201.809 107.763 199.988 106.447 197.564C105.147 195.139 109.078 193.013 109.078 193.013Z" fill="url(#paint45_linear_222_504)"/>
<path d="M161.373 13.114L159.315 13.5576C159.315 13.5576 160.195 9.51144 157.632 8.11172C155.07 6.712 155.942 3.73663 155.942 3.73663L158.512 4.42502C158.512 4.42502 158.152 6.75024 160.202 8.44062C162.245 10.1386 161.373 13.114 161.373 13.114Z" fill="url(#paint46_linear_222_504)"/>
<path d="M151.789 134.186L148.691 135.349C148.691 135.349 150.993 130.308 147.635 129.451C144.278 128.595 146.305 124.816 146.305 124.816L149.846 124.832C149.846 124.832 148.737 127.685 151.276 129.046C153.808 130.415 151.789 134.186 151.789 134.186Z" fill="url(#paint47_linear_222_504)"/>
<path d="M108.749 59.8632C110.105 59.8632 111.205 58.8427 111.205 57.5838C111.205 56.325 110.105 55.3045 108.749 55.3045C107.393 55.3045 106.294 56.325 106.294 57.5838C106.294 58.8427 107.393 59.8632 108.749 59.8632Z" fill="url(#paint48_linear_222_504)"/>
<path d="M196.855 5.5723C196.855 6.82669 195.754 7.85162 194.4 7.85162C193.046 7.85162 191.945 6.83434 191.945 5.5723C191.945 4.3179 193.046 3.29297 194.4 3.29297C195.754 3.30062 196.855 4.3179 196.855 5.5723Z" fill="url(#paint49_linear_222_504)"/>
<path d="M125.339 21.2599L121.423 24.6789L127.427 28.335L125.339 21.2599Z" fill="url(#paint50_linear_222_504)"/>
<path d="M93.3829 124.472L95.9835 120.12L89.069 118.323L93.3829 124.472Z" fill="url(#paint51_linear_222_504)"/>
<path d="M55.1926 131.899L53.8159 136.71L60.998 136.886L55.1926 131.899Z" fill="url(#paint52_linear_222_504)"/>
<path d="M35.9561 93.7318L35.4513 98.5735L29.577 97.778L31.4204 92.072L35.9561 93.7318Z" fill="url(#paint53_linear_222_504)"/>
<path d="M107.128 86.9091L110.401 86.2972C110.401 86.2972 107.135 90.8559 110.264 92.2709C113.392 93.6859 110.654 97.0514 110.654 97.0514L107.174 96.4242C107.174 96.4242 108.833 93.8083 106.608 92.0338C104.389 90.2746 107.128 86.9091 107.128 86.9091Z" fill="url(#paint54_linear_222_504)"/>
<path d="M48.1329 59.1595L51.0165 54.9679L44.2321 52.7804L48.1329 59.1595Z" fill="url(#paint55_linear_222_504)"/>
<path d="M81.5044 83.9337L76.2574 84.0561L76.3874 78.5643L82.7358 79.5663L81.5044 83.9337Z" fill="url(#paint56_linear_222_504)"/>
<path d="M76.418 32.2435L73.0984 31.907C73.0984 31.907 77.703 28.4803 75.1865 26.2545C72.6701 24.0211 76.3874 21.5888 76.3874 21.5888L79.5004 23.1644C79.5004 23.1644 77.0605 25.1914 78.5979 27.5013C80.1276 29.8112 76.418 32.2435 76.418 32.2435Z" fill="url(#paint57_linear_222_504)"/>
<path d="M68.6009 177.333C68.4785 176.078 69.4805 174.977 70.8343 174.862C72.1881 174.755 73.3813 175.68 73.4961 176.927C73.6185 178.182 72.6165 179.283 71.2626 179.398C69.9165 179.505 68.7233 178.579 68.6009 177.333Z" fill="url(#paint58_linear_222_504)"/>
</g>
<path d="M54.7796 149.843H57.2349H60.3326H181.902H187.447C190.377 149.843 193.038 152.214 193.398 155.144L201.888 224.273H185.742H74.7658H67.5607H58.6193L50.1292 155.144C49.7697 152.214 51.8578 149.843 54.7796 149.843Z" fill="#263238"/>
<path d="M54.7796 149.843H57.2349H60.3326H181.902H187.447C190.377 149.843 193.038 152.214 193.398 155.144L201.888 224.273H185.742H74.7658H67.5607H58.6193L50.1292 155.144C49.7697 152.214 51.8578 149.843 54.7796 149.843Z" fill="#4EDCDB"/>
<path opacity="0.2" d="M74.7658 224.273H58.6193L50.1292 155.144C49.7697 152.214 51.8501 149.843 54.7796 149.843H60.3249C63.2544 149.843 65.9162 152.214 66.2757 155.144L74.7658 224.273Z" fill="black"/>
<path d="M63.3003 248.244H68.9604L71.2703 225.007H61.5717L63.3003 248.244Z" fill="#263238"/>
<path d="M88.1358 248.244H93.7958L96.1058 225.007H86.4072L88.1358 248.244Z" fill="#263238"/>
<path d="M190.071 248.244H195.731L198.041 225.007H188.334L190.071 248.244Z" fill="#263238"/>
<path d="M214.906 248.244H220.566L222.876 225.007H213.17L214.906 248.244Z" fill="#263238"/>
<path opacity="0.2" d="M88.1358 248.244H93.7958L96.1058 225.007H86.4072L88.1358 248.244Z" fill="white"/>
<path opacity="0.2" d="M214.906 248.244H220.566L222.876 225.007H213.17L214.906 248.244Z" fill="white"/>
<path d="M59.1471 223.891L59.6595 232.388C59.6978 232.863 60.0879 233.222 60.5697 233.222H223.442C223.916 233.222 224.314 232.855 224.352 232.388L224.865 223.891H59.1471Z" fill="#263238"/>
<path opacity="0.2" d="M83.7071 223.891L84.2196 232.388C84.2578 232.863 84.6479 233.222 85.1298 233.222H223.45C223.924 233.222 224.322 232.855 224.36 232.388L224.872 223.891H83.7071Z" fill="white"/>
<path d="M97.3067 208.884H188.931L191.249 182.381C191.708 177.134 196.106 173.103 201.376 173.103H235.298C237.807 173.103 239.772 175.252 239.558 177.753L239.023 183.849C238.847 185.853 237.302 187.46 235.305 187.72L234.105 187.873C232.621 188.064 231.466 189.265 231.336 190.756L228.414 224.189C228.2 226.629 226.158 228.495 223.71 228.495H97.3067V208.884Z" fill="#263238"/>
<path opacity="0.6" d="M97.3067 208.884H188.931L191.249 182.381C191.708 177.134 196.106 173.103 201.376 173.103H235.298C237.807 173.103 239.772 175.252 239.558 177.753L239.023 183.849C238.847 185.853 237.302 187.46 235.305 187.72L234.105 187.873C232.621 188.064 231.466 189.265 231.336 190.756L228.414 224.189C228.2 226.629 226.158 228.495 223.71 228.495H97.3067V208.884Z" fill="white"/>
<path opacity="0.2" d="M214.738 182.381C215.197 177.134 219.595 173.103 224.865 173.103H211.808H201.376C196.106 173.103 191.708 177.134 191.249 182.381L188.931 208.884H212.42L214.738 182.381Z" fill="black"/>
<path opacity="0.7" d="M97.3067 208.884H212.42L214.738 182.381C215.197 177.134 219.595 173.103 224.865 173.103H235.298C237.807 173.103 239.772 175.252 239.558 177.753L239.023 183.849C238.847 185.853 237.302 187.46 235.305 187.72L234.105 187.873C232.621 188.064 231.466 189.265 231.336 190.756L228.414 224.189C228.2 226.629 226.158 228.495 223.71 228.495H97.3067V208.884Z" fill="#00A4A2"/>
<path d="M46.8402 173.103H84.2579C89.5278 173.103 93.9259 177.134 94.3848 182.381L96.7024 208.884H99.3641V228.495H58.4357C55.9881 228.495 53.9459 226.621 53.7317 224.189L50.8099 190.756C50.6798 189.265 49.5249 188.064 48.041 187.873L46.8402 187.72C44.8438 187.467 43.2988 185.853 43.1229 183.849L42.5875 177.753C42.3656 175.252 44.3314 173.103 46.8402 173.103Z" fill="#263238"/>
<path opacity="0.6" d="M46.8402 173.103H84.2579C89.5278 173.103 93.9259 177.134 94.3848 182.381L96.7024 208.884H99.3641V228.495H58.4357C55.9881 228.495 53.9459 226.621 53.7317 224.189L50.8099 190.756C50.6798 189.265 49.5249 188.064 48.041 187.873L46.8402 187.72C44.8438 187.467 43.2988 185.853 43.1229 183.849L42.5875 177.753C42.3656 175.252 44.3314 173.103 46.8402 173.103Z" fill="white"/>
<g opacity="0.8">
<path d="M80.7164 224.189L77.7946 190.756C77.6646 189.265 76.5096 188.064 75.0258 187.873L73.8249 187.72C71.8286 187.467 70.2835 185.853 70.1076 183.849L69.5722 177.753C69.3504 175.252 71.3238 173.103 73.8326 173.103H46.8478C44.339 173.103 42.3733 175.252 42.5874 177.753L43.1228 183.849C43.2988 185.853 44.8438 187.46 46.8401 187.72L48.041 187.873C49.5248 188.064 50.6798 189.265 50.8098 190.756L53.7317 224.189C53.9458 226.629 55.988 228.495 58.4356 228.495H85.4204C82.9652 228.495 80.9306 226.629 80.7164 224.189Z" fill="#0B8B8B"/>
</g>
<path opacity="0.7" d="M73.8249 173.103H84.2578C89.5278 173.103 93.9258 177.134 94.3847 182.381L96.7023 208.884H99.3641V228.495H85.4204C82.9728 228.495 80.9306 226.621 80.7164 224.189L77.7946 190.756C77.6646 189.265 76.5096 188.064 75.0257 187.873L73.8249 187.72C71.8286 187.467 70.2835 185.853 70.1076 183.849L69.5722 177.753C69.3427 175.252 71.3161 173.103 73.8249 173.103Z" fill="#00A4A2"/>
<path d="M38.1512 248.237C45.3452 248.237 51.177 242.405 51.177 235.211C51.177 228.017 45.3452 222.185 38.1512 222.185C30.9573 222.185 25.1254 228.017 25.1254 235.211C25.1254 242.405 30.9573 248.237 38.1512 248.237Z" fill="#263238"/>
<path opacity="0.8" d="M51.1771 235.218C51.1771 235.823 51.1388 236.427 51.047 237.008C51.0394 237.146 51.0164 237.276 50.9858 237.414C50.4275 240.764 48.5765 243.678 45.9683 245.636C45.8535 245.72 45.7311 245.812 45.6088 245.888C43.4901 247.38 40.9201 248.244 38.1436 248.244C36.4838 248.244 34.8929 247.931 33.432 247.365C32.3841 246.959 31.405 246.424 30.5101 245.774C30.2348 245.575 29.9671 245.361 29.707 245.139C29.424 244.902 29.1563 244.657 28.9039 244.389C27.1064 242.584 25.8368 240.259 25.3472 237.658C25.1943 236.871 25.1178 236.052 25.1178 235.218C25.1178 234.033 25.2784 232.886 25.5767 231.792C25.6914 231.363 25.8215 230.95 25.9821 230.545C26.0739 230.293 26.1809 230.048 26.288 229.811C28.2308 225.543 32.4147 222.514 37.3328 222.208C37.6005 222.193 37.8682 222.185 38.1436 222.185C41.509 222.185 44.5838 223.47 46.9014 225.566C49.5249 227.952 51.1771 231.394 51.1771 235.218Z" fill="white"/>
<path d="M49.0048 237.115L44.4538 231.478C44.6527 229.153 44.6297 227.547 44.5456 226.484L46.9014 225.566C44.5838 223.47 41.509 222.185 38.1436 222.185C37.8682 222.185 37.6005 222.193 37.3328 222.208L37.1493 223.049C33.2866 224.021 30.9691 227.203 29.7606 229.535L26.4257 230.897C26.3722 230.56 26.3186 230.201 26.288 229.811C26.1809 230.048 26.0739 230.293 25.9821 230.545C26.005 230.759 26.0356 230.958 26.0739 231.149C25.9515 231.287 25.7756 231.501 25.5767 231.792C25.2784 232.886 25.1178 234.033 25.1178 235.218C25.1178 236.052 25.1943 236.871 25.3472 237.658L27.2135 238.737C27.3894 240.06 27.8254 242.156 28.9039 244.389C29.1563 244.657 29.424 244.902 29.707 245.139C28.3532 242.707 27.8254 240.32 27.6113 238.844L31.3668 234.775C32.5753 234.836 34.5028 235.058 37.2181 235.731L38.2583 242.462C37.4017 243.28 35.5889 244.711 32.5371 245.934L30.5101 245.774C31.405 246.424 32.3841 246.959 33.432 247.365L33.0342 246.148C35.8337 244.986 37.5317 243.678 38.4189 242.852L45.4099 243.869C45.4864 244.466 45.5629 245.154 45.6088 245.888C45.7311 245.812 45.8535 245.72 45.9683 245.636C45.9224 244.886 45.8459 244.198 45.7617 243.601L49.1654 237.498C49.6779 237.49 50.2898 237.467 50.9858 237.414C51.0164 237.276 51.0394 237.146 51.047 237.008C50.2516 237.092 49.5632 237.115 49.0048 237.115ZM44.079 231.363L37.2334 235.341C34.5716 234.683 32.6747 234.454 31.4586 234.392L30.0971 229.711C31.298 227.409 33.6002 224.235 37.4552 223.371L44.1555 226.529C44.2396 227.562 44.2626 229.122 44.079 231.363Z" fill="url(#paint59_linear_222_504)"/>
<path opacity="0.1" d="M51.177 235.218C51.177 235.823 51.1388 236.427 51.047 237.008C51.0393 237.146 51.0164 237.276 50.9858 237.414C50.4274 240.764 48.5764 243.678 45.9682 245.636C45.8535 245.72 45.7311 245.812 45.6087 245.888C43.49 247.38 40.92 248.244 38.1435 248.244C36.4838 248.244 34.8928 247.931 33.4319 247.365C32.384 246.959 31.405 246.424 30.5101 245.774C30.2347 245.575 29.967 245.361 29.707 245.139C29.424 244.902 29.1563 244.657 28.9039 244.389C27.5653 243.043 26.5175 241.414 25.8673 239.593C26.2344 240.106 26.6475 240.595 27.0988 241.047C27.3359 241.299 27.5806 241.529 27.8483 241.75C28.0931 241.957 28.3455 242.163 28.5979 242.347C29.4393 242.951 30.3571 243.456 31.3362 243.839C32.7053 244.366 34.1968 244.657 35.7495 244.657C38.3501 244.657 40.7518 243.846 42.7404 242.454C42.8552 242.385 42.9699 242.293 43.077 242.217C45.5169 240.381 47.2532 237.658 47.7733 234.515C47.8039 234.392 47.8269 234.27 47.8269 234.14C47.9186 233.597 47.9492 233.031 47.9492 232.465C47.9492 229.023 46.5266 225.925 44.2472 223.707C45.211 224.219 46.1059 224.839 46.9014 225.566C49.5249 227.952 51.177 231.394 51.177 235.218Z" fill="black"/>
<path d="M87.394 158.257C86.0478 156.949 84.7552 155.603 83.4473 154.264L79.6076 150.157C78.3379 148.772 77.0911 147.373 75.8521 145.912L74.9189 144.787L74.4294 144.168C74.2917 144.007 74.024 143.625 73.8481 143.365C73.1903 142.301 72.7773 141.406 72.3719 140.481C70.8192 136.848 69.6566 133.306 68.5398 129.696C67.4308 126.101 66.4517 122.483 65.5798 118.82C65.3656 117.91 65.924 116.992 66.8342 116.778C67.6449 116.586 68.4634 117.015 68.7846 117.757V117.764L73.1826 127.991C74.6588 131.364 76.1198 134.798 77.7336 137.911C78.139 138.661 78.5674 139.433 78.9269 139.93C78.9727 139.991 79.0033 140.014 79.0339 140.06L79.0875 140.129L79.1946 140.244L79.6152 140.695L80.5484 141.651L84.4416 145.544L88.373 149.476C89.6657 150.807 90.9813 152.122 92.251 153.461L92.2586 153.469C93.5513 154.838 93.4901 157.002 92.1133 158.295C90.7748 159.542 88.6943 159.511 87.394 158.257Z" fill="#CE7A63"/>
<path d="M160.218 201.709C154.183 217.121 139.803 241.705 139.803 241.705L134.885 239.999C139.52 224.288 149.104 198.818 149.104 198.818C149.104 198.818 121.79 212.945 114.249 210.368C112.918 209.916 111.839 209.014 110.96 207.828C106.852 202.313 107.166 190.749 107.166 190.749L119.121 189.326L119.878 189.242L128.789 188.179C156.447 181.899 158.696 184.041 162.482 190.251C163.461 191.888 162.367 196.21 160.218 201.709Z" fill="#CE7A63"/>
<path d="M122.402 188.041L130.074 186.901L128.598 211.492L115.473 210.368L122.402 188.041Z" fill="url(#paint60_linear_222_504)"/>
<path d="M122.402 188.041L130.074 186.901L128.598 211.492L115.473 210.368L122.402 188.041Z" fill="#34349A"/>
<path opacity="0.2" d="M160.218 201.709C154.183 217.122 139.803 241.705 139.803 241.705L134.885 239.999C139.52 224.288 149.104 198.818 149.104 198.818C149.104 198.818 121.79 212.945 114.249 210.368C112.918 209.916 111.839 209.014 110.96 207.828L119.121 189.326L119.136 189.288C119.136 189.288 119.396 189.272 119.871 189.242C124.284 188.951 147.276 187.536 152.867 189.288C155.919 190.251 158.451 196.072 160.218 201.709Z" fill="black"/>
<path d="M146.603 248.183C142.511 248.443 139.23 247.801 136.943 247.464C134.985 247.166 135.122 247.609 133.134 247.38C131.818 247.227 131.244 245.659 131.803 244.596C132.239 243.77 132.935 242.798 133.287 241.697L138.381 240.81C139.275 242.714 143.964 245.812 147.093 245.827C149.326 245.842 148.24 248.076 146.603 248.183Z" fill="#263238"/>
<path d="M132.483 243.41C132.483 243.41 133.608 238.706 134.334 238.247C135.061 237.788 138.61 239.586 138.656 241.276C138.656 241.276 140.4 240.267 140.882 240.97C141.364 241.674 141.126 243.563 141.715 243.915C142.32 244.267 132.483 243.41 132.483 243.41Z" fill="#263238"/>
<path d="M100.512 188.14C100.512 188.14 96.5112 205.962 103.28 210.184C110.05 214.406 139.566 208.042 139.566 208.042C139.566 208.042 123.771 225.474 115.694 239.724L119.503 242.362C119.503 242.362 160.952 208.088 158.673 201.181C156.393 194.267 150.504 190.703 122.142 190.542L122.746 184.622L100.512 188.14Z" fill="#CE7A63"/>
<path d="M127.573 248.183C123.481 248.443 120.199 247.801 117.912 247.464C115.954 247.166 116.092 247.609 114.103 247.38C112.788 247.227 112.214 245.659 112.773 244.596C113.209 243.77 113.905 242.798 114.256 241.697L119.35 240.81C120.245 242.714 124.934 245.812 128.062 245.827C130.303 245.842 129.21 248.076 127.573 248.183Z" fill="#263238"/>
<path d="M113.453 243.41C113.453 243.41 114.578 238.706 115.304 238.247C116.031 237.788 119.58 239.586 119.626 241.276C119.626 241.276 121.37 240.267 121.852 240.97C122.333 241.674 122.096 243.563 122.685 243.915C123.29 244.267 113.453 243.41 113.453 243.41Z" fill="#263238"/>
<path d="M100.42 187.177C100.42 187.177 94.3926 205.189 98.4158 210.689C102.439 216.188 125.416 211.821 125.416 211.821C125.416 211.821 123.748 201.793 120.941 201.954C120.941 201.954 125.936 200.822 127.297 189.984L123.641 189.334L122.754 184.622L100.42 187.177Z" fill="url(#paint61_linear_222_504)"/>
<path d="M100.42 187.177C100.42 187.177 94.3926 205.189 98.4158 210.689C102.439 216.188 125.416 211.821 125.416 211.821C125.416 211.821 123.748 201.793 120.941 201.954C120.941 201.954 125.936 200.822 127.297 189.984L123.641 189.334L122.754 184.622L100.42 187.177Z" fill="#34349A"/>
<path d="M113.43 152.788C114.279 151.143 115.182 149.522 116.061 147.885L118.754 143.02L121.423 138.202L122.058 137.031L122.333 136.488L122.402 136.351L122.433 136.274C122.456 136.221 122.479 136.19 122.502 136.121C122.716 135.54 122.915 134.683 123.091 133.85C123.787 130.408 124.246 126.706 124.728 123.057L126.135 112.012V112.005C126.25 111.079 127.106 110.421 128.032 110.536C128.865 110.643 129.477 111.332 129.508 112.142C129.676 115.906 129.73 119.653 129.661 123.417C129.584 127.195 129.447 130.92 128.95 134.844C128.812 135.846 128.667 136.817 128.322 138.018C128.231 138.316 128.07 138.76 127.986 138.951L127.688 139.678L127.099 141.016C126.303 142.76 125.492 144.451 124.659 146.133L122.104 151.136C121.217 152.78 120.345 154.432 119.412 156.061C118.471 157.691 116.383 158.257 114.754 157.316C113.17 156.406 112.597 154.409 113.423 152.803L113.43 152.788Z" fill="#CE7A63"/>
<path d="M125.691 149.659L120.666 162.219L118.907 159.848L116.13 162.219L115.327 160.75L112.054 154.715L109.667 150.325L109.637 150.264L110.302 149.874L111.403 149.239L114.578 147.395L120.291 139.487C120.299 139.479 125.691 142.722 125.691 149.659Z" fill="url(#paint62_linear_222_504)"/>
<path d="M123.726 186.618L122.494 186.855L118.853 187.551L116.574 187.987L112.925 188.691L110.333 189.188L106.684 189.884L104.497 190.305L100.84 191.001L97.0467 191.728C96.6183 186.725 97.5362 178.273 94.8668 168.322C94.1631 165.676 93.1994 162.915 91.8914 160.077C91.0195 158.188 91.2489 156.169 92.2892 154.677C92.7863 153.95 93.4824 153.361 94.339 152.956C94.3773 152.941 94.4155 152.918 94.4537 152.91C94.7062 152.795 94.9739 152.704 95.2569 152.627C96.1212 152.398 97.0467 152.176 98.0028 151.977C98.0257 151.969 98.0563 151.962 98.0793 151.962C98.8059 151.816 99.5172 151.671 100.206 151.533C101.506 151.273 102.737 151.044 103.961 150.86C104.833 150.723 105.697 150.608 106.569 150.516C107.082 150.47 107.587 150.424 108.099 150.386C108.619 150.348 109.147 150.325 109.675 150.31C109.95 150.294 110.218 150.287 110.493 150.279C110.83 150.264 111.159 150.256 111.488 150.248C111.64 150.248 111.793 150.248 111.939 150.264C113.782 150.371 115.503 151.335 116.88 152.727C118.364 154.218 119.45 156.199 119.863 158.134C119.916 158.394 119.97 158.647 120.024 158.899C122.808 172.338 123.726 186.618 123.726 186.618Z" fill="url(#paint63_linear_222_504)"/>
<path d="M125.133 107.698L124.628 109.075C124.437 109.595 124.513 110.169 124.819 110.628L126.273 112.754C126.854 113.603 127.81 114.123 128.843 114.139L129.477 114.146C130.472 111.921 129.906 108.777 129.906 108.777L129.844 107.867C129.791 107.056 129.141 106.459 128.353 106.505L126.54 106.605C125.921 106.643 125.362 107.079 125.133 107.698Z" fill="#CE7A63"/>
<path d="M80.7625 155.32L88.0441 161.53L89.1532 162.479L94.4384 166.992L95.188 164.582L96.0064 157.331L98.3928 152.941L98.9818 152.237L98.4234 152.031C98.4234 152.031 97.1385 152 96.7331 151.801C95.6164 151.243 93.4671 150.011 93.4671 150.011L84.6404 144.879C84.6404 144.864 80.7625 148.39 80.7625 155.32Z" fill="url(#paint64_linear_222_504)"/>
<path d="M74.4905 112.196L74.9954 113.573C75.1866 114.093 75.1101 114.666 74.8041 115.125L73.3432 117.252C72.7619 118.101 71.8058 118.621 70.7732 118.636L70.1384 118.644C69.1441 116.418 69.7101 113.274 69.7101 113.274L69.7713 112.364C69.8248 111.553 70.4749 110.957 71.2628 111.003L73.0755 111.102C73.7027 111.14 74.2687 111.576 74.4905 112.196Z" fill="#CE7A63"/>
<g opacity="0.2">
<path d="M104.489 190.313L100.833 191.009C100.412 179.436 99.3261 171.022 98.1252 165.018C96.8096 158.463 93.4748 150.004 93.4748 149.996L95.3334 151.074C95.3334 151.074 97.0468 152.191 98.0029 151.985C98.0258 151.977 98.0946 152.696 98.1176 152.688C100.198 157.301 103.617 167.466 104.489 190.313Z" fill="black"/>
</g>
<g opacity="0.2">
<path d="M110.325 189.196L106.676 189.892C105.797 165.194 101.881 154.884 100.198 151.549C101.498 151.289 102.73 151.059 103.954 150.876C106.049 155.526 109.468 166.441 110.325 189.196Z" fill="black"/>
</g>
<g opacity="0.2">
<path d="M116.574 187.987L112.926 188.691C112.061 164.521 108.298 154.103 106.562 150.524C107.074 150.478 107.579 150.432 108.092 150.394C108.612 150.355 109.139 150.333 109.667 150.317L109.637 150.256L110.302 149.866C110.356 150.004 110.417 150.141 110.478 150.287C110.96 151.426 111.495 152.887 112.046 154.708C113.912 160.857 115.939 171.214 116.574 187.987Z" fill="black"/>
</g>
<g opacity="0.2">
<path d="M122.494 186.855L118.853 187.551C118.127 175.436 116.758 166.793 115.335 160.742C114.111 155.48 112.841 152.176 111.939 150.264C111.74 149.851 111.572 149.506 111.419 149.223L114.593 147.38C115.205 148.497 116.008 150.218 116.88 152.734C117.545 154.631 118.234 156.972 118.907 159.848C120.383 166.081 121.76 174.809 122.494 186.855Z" fill="black"/>
</g>
<path d="M109.69 133.169C109.69 133.169 112.245 137.75 112.245 143.127C112.245 143.127 97.2685 149.988 93.3064 148.206C89.3444 146.424 88.35 130.836 95.9299 126.614C103.502 122.392 109.736 125.069 109.69 133.169Z" fill="#263238"/>
<path d="M96.9014 140.512C98.2935 143.625 100.32 149.407 98.5459 151.908C98.5459 151.908 101.552 150.96 108.726 153.966C110.187 150.952 108.65 150.31 108.65 150.31C104.826 150.027 104.29 147.357 104.336 144.764L96.9014 140.512Z" fill="#CE7A63"/>
<path d="M107.227 153.369C105.124 154.019 104.963 157.377 104.963 157.377C104.963 157.377 99.219 154.539 97.1691 152.222C97.8728 151.702 98.8671 150.723 98.8671 150.723C98.8671 150.723 105.774 152.321 107.227 153.369Z" fill="url(#paint65_linear_222_504)"/>
<path d="M109.216 152.696C109.216 152.696 111.151 152.903 112.245 155.411C111.985 150.593 109.644 150.141 109.644 150.141C109.644 150.141 108.895 149.767 107.655 150.164C109.506 150.799 109.216 152.696 109.216 152.696Z" fill="url(#paint66_linear_222_504)"/>
<path opacity="0.2" d="M99.9302 142.248L104.328 144.764C104.313 145.376 104.336 145.996 104.435 146.585C103.005 146.608 100.749 145.407 100.267 143.999C100.022 143.288 99.892 142.6 99.9302 142.248Z" fill="black"/>
<path d="M93.0999 134.431C94.9126 139.525 95.5781 141.705 98.9665 143.755C104.068 146.829 109.942 143.846 109.682 138.4C109.453 133.505 106.523 126.002 100.84 125.122C95.2415 124.258 91.2795 129.337 93.0999 134.431Z" fill="#CE7A63"/>
<path d="M99.9379 134.24C100.076 134.676 100.404 134.974 100.687 134.905C100.97 134.836 101.085 134.431 100.955 134.002C100.817 133.566 100.489 133.268 100.206 133.337C99.9226 133.406 99.8002 133.811 99.9379 134.24Z" fill="#263238"/>
<path d="M105.368 132.794C105.506 133.23 105.835 133.528 106.118 133.459C106.401 133.391 106.516 132.985 106.386 132.557C106.248 132.121 105.919 131.823 105.636 131.891C105.353 131.953 105.231 132.358 105.368 132.794Z" fill="#263238"/>
<path d="M105.514 131.937L106.455 131.394C106.455 131.394 106.179 132.335 105.514 131.937Z" fill="#263238"/>
<path d="M103.992 134.133C103.992 134.133 105.3 135.831 106.378 136.542C105.973 137.207 104.933 137.192 104.933 137.192L103.992 134.133Z" fill="#BA4D3C"/>
<path d="M97.9798 130.966C98.041 131.004 98.1098 131.019 98.1787 130.997C99.2648 130.683 99.9761 131.341 99.9838 131.348C100.091 131.448 100.251 131.44 100.343 131.325C100.435 131.211 100.42 131.042 100.32 130.943C100.282 130.905 99.3871 130.079 98.041 130.469C97.9033 130.507 97.8268 130.66 97.865 130.805C97.888 130.874 97.9262 130.928 97.9798 130.966Z" fill="#263238"/>
<path d="M106.799 129.054C106.837 129 106.852 128.931 106.845 128.87C106.822 128.732 106.676 128.641 106.531 128.671C105.047 128.954 104.535 130.033 104.512 130.086C104.451 130.216 104.512 130.362 104.65 130.415C104.787 130.469 104.948 130.4 105.009 130.27C105.032 130.224 105.437 129.39 106.615 129.168C106.699 129.153 106.761 129.107 106.799 129.054Z" fill="#263238"/>
<path d="M100.083 133.391L101.024 132.847C101.024 132.847 100.749 133.788 100.083 133.391Z" fill="#263238"/>
<path d="M105.307 139.173C104.91 139.869 104.451 141.2 104.451 141.2C104.321 141.177 104.191 141.162 104.068 141.131C102.34 140.825 101.636 140.106 101.384 139.41C101.246 139.028 101.246 138.645 101.292 138.339C101.338 137.987 101.452 137.743 101.452 137.743C102.271 138.454 103.869 138.867 104.726 139.051C105.078 139.135 105.307 139.173 105.307 139.173Z" fill="#263238"/>
<path d="M104.718 139.058L104.451 139.647C102.821 139.357 101.712 138.928 101.292 138.339C101.338 137.987 101.452 137.743 101.452 137.743C102.263 138.462 103.854 138.875 104.718 139.058Z" fill="white"/>
<path d="M104.068 141.139C102.34 140.833 101.636 140.114 101.383 139.418C101.972 139.548 102.661 139.762 103.242 140.144C103.678 140.42 103.923 140.787 104.068 141.139Z" fill="#DE5753"/>
<path d="M94.4385 137.192C94.4385 137.192 100.58 132.786 99.609 125.52C99.609 125.52 105.514 124.839 109.69 133.161C109.69 133.161 110.769 127.585 107.051 124.113C103.334 120.632 98.324 123.225 98.324 123.225C98.324 123.225 96.7713 121.443 93.7118 123.386C83.0342 130.163 87.4857 146.455 90.9583 148.55C94.4385 150.646 97.2226 149.109 97.2226 149.109C97.2226 149.109 94.362 141.858 94.4385 137.192Z" fill="#263238"/>
<path d="M92.6104 139.081C93.4976 139.991 94.6755 140.404 95.6469 140.404C97.1155 140.397 97.3526 138.882 96.5265 137.62C95.7846 136.488 94.1248 135.119 92.8475 135.739C91.6007 136.343 91.5931 138.041 92.6104 139.081Z" fill="#CE7A63"/>
<path d="M97.628 125.115C97.628 125.115 104.206 125.512 107.395 131.226" stroke="#263238" stroke-width="0.401" stroke-miterlimit="10" stroke-linecap="round" stroke-linejoin="round"/>
<path d="M99.6779 137.995L97.1844 138.531L97.1002 138.018L96.9778 137.314L96.9014 136.863L99.3719 136.282L99.4637 136.794L99.5937 137.498L99.6779 137.995Z" fill="url(#paint67_linear_222_504)"/>
<path opacity="0.2" d="M99.5937 137.498L97.1002 138.018L96.9778 137.314L99.4637 136.794L99.5937 137.498Z" fill="black"/>
<path d="M109.254 136.427L107.717 136.603L107.602 136.106L107.449 135.41L107.349 134.966L108.864 134.744L108.979 135.242L109.139 135.938L109.254 136.427Z" fill="url(#paint68_linear_222_504)"/>
<path opacity="0.2" d="M109.139 135.938L107.602 136.106L107.449 135.41L108.979 135.242L109.139 135.938Z" fill="black"/>
<path d="M103.135 164.238C103.135 164.238 103.747 170.372 104.068 170.38C104.389 170.388 118.471 167.466 118.471 167.466L117.576 161.813L103.135 164.238Z" fill="url(#paint69_linear_222_504)"/>
<path d="M140.079 132.037C140.079 132.037 141.387 139.158 141.991 139.418C142.595 139.678 141.792 135.876 141.486 134.744C141.18 133.612 140.599 133.238 141.142 132.672C141.685 132.106 143.199 134.316 142.993 135.731C142.794 137.146 143.696 137.437 143.696 135.976C143.696 134.523 142.993 132.197 142.389 130.889C141.784 129.581 142.993 131.119 143.696 132.672C144.4 134.224 144.806 132.909 143.696 130.889C142.587 128.87 143.482 128.985 142.228 128.174C140.973 127.363 140.874 127.929 140.874 126.989C140.874 126.989 141.983 127.669 142.993 128.174C144.002 128.671 144.171 131.149 144.385 130.362C144.607 129.582 143.383 127.057 142.228 126.453C141.073 125.849 140.071 124.885 140.071 124.105C140.071 123.325 140.071 122.919 140.071 122.919L139.161 125.023L140.079 132.037Z" fill="#263238"/>
<path d="M60.654 129.543C60.654 129.543 59.0783 134.982 57.4644 135.004C55.8505 135.027 56.5542 136.427 57.059 136.282C57.5639 136.136 59.5831 133.054 59.6826 133.49C59.782 133.918 58.7724 136.572 57.7627 138.018C56.7531 139.464 55.361 140.955 56.4624 140.512C57.5639 140.068 59.7744 135.012 60.1797 135.678C60.5851 136.343 58.3364 139.816 58.3517 141.208C58.367 142.6 57.3574 142.699 58.367 142.6C59.3766 142.5 59.1778 141.468 59.6749 140.519C60.1797 139.571 60.784 137.253 61.1894 137.758C61.5948 138.263 61.1052 140.382 60.6463 141.59C60.1797 142.799 58.6653 145.33 60.1797 144.42C61.6942 143.51 61.7936 139.946 62.0996 139.655C62.4055 139.372 62.8415 138.531 63.1245 139.655C63.4075 140.779 61.2888 144.627 62.0996 144.871C62.9103 145.116 62.3902 145.827 63.1551 143.808C63.92 141.789 63.4993 139.28 63.9582 141.139C64.4171 142.997 64.1189 144.42 64.4172 144.412C64.7231 144.405 65.335 141.429 65.5186 139.647C65.7021 137.873 60.654 129.543 60.654 129.543Z" fill="#263238"/>
<path d="M140.079 122.919V132.672C140.079 132.672 139.291 128.687 138.258 124.954C138.251 124.946 138.258 124.939 138.258 124.939C137.807 123.325 137.31 121.764 136.813 120.587C136.4 119.615 135.979 118.904 135.589 118.651C135.206 118.407 134.801 117.986 134.373 117.458V117.451C133.921 116.892 133.462 116.211 133.011 115.508C132.537 114.774 132.086 114.009 131.68 113.32C130.938 112.089 130.349 111.11 130.082 111.003C129.378 110.72 72.7543 117.818 70.9033 116.946C70.4061 116.709 70.299 117.374 70.3602 118.483C70.3985 119.179 70.4979 120.051 70.5974 120.977C70.7733 122.568 70.9568 124.327 70.8345 125.627C70.7274 126.797 70.3755 127.6 69.5495 127.616C69.1441 127.623 68.7846 127.83 68.4557 128.182C67.2701 129.444 66.5206 132.595 66.0769 135.272C65.6792 137.643 65.5262 139.647 65.5262 139.647C65.5262 139.647 60.1874 131.677 60.1874 128.664C60.1874 128.021 60.2639 127.47 60.3939 126.989C60.8146 125.336 61.8548 124.426 62.765 123.264C62.8492 123.149 62.9333 123.034 63.0174 122.919C63.3157 122.499 63.2163 121.497 62.941 120.189C62.6121 118.682 62.046 116.762 61.5565 114.835C61.09 113.007 60.6922 111.163 60.654 109.672C60.6157 108.593 60.7611 107.698 61.197 107.102C61.197 107.102 129.378 98.6576 131.397 99.5449C131.428 99.5602 131.458 99.5755 131.489 99.6061C132.621 100.287 133.049 104.279 133.807 107.928C133.807 107.936 133.807 107.936 133.807 107.936C134.036 109.037 134.296 110.108 134.617 111.041C135.038 112.288 135.566 113.297 136.262 113.833C136.453 113.986 136.637 114.146 136.82 114.33C137.662 115.217 138.296 116.449 138.786 117.711C139.757 120.265 140.079 122.919 140.079 122.919Z" fill="url(#paint70_linear_222_504)"/>
<path d="M69.5266 111.806C69.3048 109.901 70.6051 108.356 72.5632 108.127C73.6034 108.004 74.5365 108.28 75.2096 108.899L74.5289 109.71C74.0088 109.259 73.4045 109.083 72.7391 109.159C71.4158 109.312 70.5668 110.353 70.7198 111.668C70.8728 112.984 71.936 113.802 73.2592 113.649C73.9246 113.573 74.4677 113.259 74.8731 112.693L75.7221 113.336C75.2096 114.093 74.3606 114.575 73.3127 114.697C71.3623 114.919 69.7484 113.71 69.5266 111.806Z" fill="white"/>
<path d="M81.9099 107.14L82.6518 113.519L81.4663 113.657L81.1527 110.926L77.8561 111.309L78.1697 114.039L76.9841 114.177L76.2422 107.798L77.4277 107.66L77.7337 110.291L81.0303 109.909L80.7244 107.278L81.9099 107.14Z" fill="white"/>
<path d="M88.3349 111.37L85.1454 111.737L84.6865 113.29L83.4626 113.427L85.5967 106.719L86.7593 106.582L90.3771 112.624L89.138 112.77L88.3349 111.37ZM87.8301 110.483L86.308 107.836L85.436 110.766L87.8301 110.483Z" fill="white"/>
<path d="M97.0544 111.852L96.5572 107.622L94.8669 111.362L94.3391 111.423L91.8456 108.219L92.3275 112.395L91.1955 112.525L90.4612 106.146L91.4326 106.031L94.4538 109.97L96.4502 105.457L97.4215 105.343L98.1711 111.722L97.0544 111.852Z" fill="white"/>
<path d="M104.764 106.796C104.925 108.196 103.992 109.182 102.309 109.381L100.871 109.549L101.085 111.393L99.8997 111.53L99.1578 105.151L101.781 104.845C103.464 104.647 104.604 105.389 104.764 106.796ZM103.571 106.934C103.479 106.13 102.89 105.725 101.85 105.847L100.466 106.008L100.756 108.54L102.141 108.379C103.181 108.264 103.663 107.737 103.571 106.934Z" fill="white"/>
<path d="M105.69 104.387L106.875 104.249L107.61 110.628L106.424 110.766L105.69 104.387Z" fill="white"/>
<path d="M108.512 107.293C108.29 105.404 109.591 103.843 111.564 103.614C113.545 103.385 115.159 104.601 115.381 106.498C115.603 108.394 114.302 109.947 112.321 110.177C110.356 110.406 108.734 109.182 108.512 107.293ZM114.195 106.643C114.042 105.343 112.979 104.509 111.694 104.662C110.409 104.807 109.56 105.863 109.713 107.163C109.866 108.463 110.929 109.297 112.214 109.144C113.492 108.991 114.341 107.943 114.195 106.643Z" fill="white"/>
<path d="M121.943 102.513L122.678 108.892L121.706 109.006L117.691 105.09L118.188 109.412L117.01 109.549L116.276 103.17L117.247 103.056L121.263 106.972L120.766 102.65L121.943 102.513Z" fill="white"/>
<path d="M123.787 108.081L124.093 107.117C124.651 107.469 125.493 107.668 126.28 107.576C127.275 107.461 127.649 107.056 127.596 106.582C127.435 105.205 123.749 106.543 123.473 104.18C123.351 103.147 124.07 102.184 125.821 101.977C126.586 101.885 127.412 102 128.009 102.298L127.741 103.262C127.129 102.994 126.479 102.903 125.928 102.964C124.942 103.079 124.59 103.507 124.643 103.989C124.804 105.35 128.483 104.027 128.751 106.368C128.866 107.385 128.139 108.356 126.395 108.563C125.393 108.67 124.368 108.471 123.787 108.081Z" fill="white"/>
<path opacity="0.2" d="M70.5973 120.977C70.2302 120.648 69.863 120.288 69.5112 119.898C67.0483 117.175 64.4324 117.726 61.5565 114.835C61.0899 113.007 60.6922 111.163 60.654 109.672C62.0613 112.051 64.3713 114.322 66.2452 115.255C67.8055 116.036 69.1823 117.321 70.3602 118.483C70.3985 119.179 70.4979 120.051 70.5973 120.977Z" fill="black"/>
<path opacity="0.2" d="M70.8268 125.627C70.7197 126.797 70.3679 127.6 69.5418 127.616C69.1364 127.623 68.7769 127.83 68.448 128.182C67.2319 127.187 66.0693 126.055 65.5721 125.023C65.0061 123.837 63.8818 123.455 62.7574 123.264C62.8415 123.149 62.9256 123.034 63.0098 122.919C63.3081 122.499 63.2087 121.497 62.9333 120.189C64.8531 120.625 67.1478 120.816 67.9509 122.3C68.5169 123.34 69.6795 124.564 70.8268 125.627Z" fill="black"/>
<path opacity="0.2" d="M66.0769 135.272C65.6792 137.643 65.5262 139.647 65.5262 139.647C65.5262 139.647 60.1874 131.677 60.1874 128.664C60.1874 128.021 60.2639 127.471 60.3939 126.989C61.9925 128.381 63.9276 129.78 63.9659 129.979C64.0041 130.193 65.1056 133.108 66.0769 135.272Z" fill="black"/>
<path opacity="0.2" d="M133.807 107.928C133.807 107.936 133.807 107.936 133.807 107.936C133.508 109.657 133.218 111.339 133.218 112.532C133.218 113.359 133.133 114.414 133.011 115.508C132.537 114.774 132.086 114.009 131.68 113.32C131.948 111.645 132.07 108.792 132.208 106.505C132.338 104.295 132.124 101.664 131.489 99.6061C132.621 100.287 133.049 104.279 133.807 107.928Z" fill="black"/>
<path opacity="0.2" d="M136.813 120.587C136.399 119.615 135.979 118.904 135.589 118.651C135.206 118.407 134.801 117.986 134.373 117.458V117.451C134.365 115.73 134.373 113.932 134.403 113.037C134.426 112.502 134.51 111.791 134.617 111.041C135.038 112.288 135.566 113.297 136.262 113.833C136.453 113.986 136.637 114.146 136.82 114.33C136.606 115.485 136.499 116.877 136.744 118.292C136.874 119.08 136.889 119.852 136.813 120.587Z" fill="black"/>
<path opacity="0.2" d="M140.079 122.919V132.672C140.079 132.672 139.291 128.687 138.258 124.954C138.251 124.946 138.258 124.939 138.258 124.939C138.404 122.292 138.625 119.5 138.786 117.711C139.757 120.265 140.079 122.919 140.079 122.919Z" fill="black"/>
<path d="M119.542 139.41L125.684 151.266L126.571 149.659C126.571 149.659 126.418 144.137 120.368 138.699L119.542 139.41Z" fill="url(#paint71_linear_222_504)"/>
<path d="M79.7529 155.855L81.1144 156.712C81.1144 156.712 81.9481 150.08 85.5812 145.185L84.2962 143.923C84.2886 143.931 80.4336 149.101 79.7529 155.855Z" fill="url(#paint72_linear_222_504)"/>
<path opacity="0.7" d="M119.542 139.41L125.684 151.266L126.571 149.659C126.571 149.659 126.418 144.137 120.368 138.699L119.542 139.41Z" fill="white"/>
<path opacity="0.7" d="M79.7529 155.855L81.1144 156.712C81.1144 156.712 81.9481 150.08 85.5812 145.185L84.2962 143.923C84.2886 143.931 80.4336 149.101 79.7529 155.855Z" fill="white"/>
<path opacity="0.7" d="M107.227 153.369C105.124 154.019 104.963 157.377 104.963 157.377C104.963 157.377 99.219 154.539 97.1691 152.222C97.8728 151.702 98.8671 150.723 98.8671 150.723C98.8671 150.723 105.774 152.321 107.227 153.369Z" fill="white"/>
<path opacity="0.7" d="M109.216 152.696C109.216 152.696 111.151 152.903 112.245 155.411C111.985 150.593 109.644 150.141 109.644 150.141C109.644 150.141 108.895 149.767 107.655 150.164C109.506 150.799 109.216 152.696 109.216 152.696Z" fill="white"/>
<path opacity="0.7" d="M103.135 164.238C103.135 164.238 103.747 170.372 104.068 170.38C104.389 170.388 118.471 167.466 118.471 167.466L117.576 161.813L103.135 164.238Z" fill="white"/>
<path opacity="0.2" d="M117.576 161.813L104.068 170.38L118.471 167.466L117.576 161.813Z" fill="black"/>
<path d="M157.487 236.588L161.334 240.68L171.905 232.924L168.058 228.832L157.487 236.588Z" fill="#7F3E3B"/>
<path d="M163.086 238.905L156.799 236.175C156.584 236.083 156.34 236.152 156.202 236.335L153.15 240.458C152.837 240.886 153.005 241.498 153.494 241.697C155.529 242.538 157.059 243.066 159.606 244.167C161.174 244.848 165.824 247.059 167.989 247.999C170.107 248.917 171.385 246.929 170.589 246.355C167.002 243.762 164.539 241.269 163.782 239.578C163.644 239.28 163.392 239.043 163.086 238.905Z" fill="#263238"/>
<path d="M163.124 239.777C163.078 239.746 163.063 239.693 163.078 239.639C163.094 239.586 163.132 239.548 163.185 239.54C163.422 239.502 165.541 239.211 165.985 239.746C166.054 239.831 166.115 239.976 166.038 240.182C165.931 240.465 165.755 240.641 165.495 240.718C165.174 240.81 164.776 240.718 164.386 240.549C163.912 240.335 163.445 240.014 163.124 239.777ZM163.552 239.754C164.348 240.312 165.036 240.572 165.426 240.458C165.595 240.404 165.717 240.289 165.786 240.091C165.824 239.991 165.801 239.945 165.771 239.915C165.74 239.876 165.686 239.846 165.625 239.815C165.235 239.639 164.287 239.678 163.552 239.754Z" fill="url(#paint73_linear_222_504)"/>
<path d="M163.094 239.739C163.071 239.701 163.063 239.647 163.086 239.601C163.116 239.54 163.904 238.11 164.723 237.888C164.937 237.827 165.136 237.85 165.312 237.957C165.587 238.117 165.587 238.331 165.556 238.446C165.411 239.066 163.874 239.739 163.216 239.8C163.193 239.8 163.17 239.8 163.155 239.792C163.132 239.777 163.109 239.762 163.094 239.739ZM164.792 238.148C164.271 238.293 163.721 239.089 163.468 239.494C164.18 239.326 165.212 238.76 165.296 238.393C165.304 238.362 165.319 238.278 165.174 238.194C165.159 238.186 165.136 238.171 165.12 238.163C165.021 238.117 164.914 238.11 164.792 238.148Z" fill="url(#paint74_linear_222_504)"/>
<path d="M177.244 104.096C179.707 110.039 181.565 116.173 183.003 121.986C184.051 126.239 184.869 130.323 185.52 134.041C187.042 142.753 187.661 149.461 188.189 151.694C192.511 150.822 208.795 147.525 217.675 145.728C217.889 113.458 208.183 98.1222 208.183 98.1222C208.183 98.1222 204.81 97.8928 200.962 98.1758C200.458 98.2064 199.938 98.2599 199.417 98.3134C196.044 98.6806 190.614 99.9044 186.881 100.853C186.093 101.052 185.305 101.273 184.541 101.503C180.632 102.666 177.244 104.096 177.244 104.096Z" fill="url(#paint75_linear_222_504)"/>
<path opacity="0.7" d="M177.244 104.096C179.707 110.039 181.565 116.173 183.003 121.986C184.051 126.239 184.869 130.323 185.52 134.041C187.042 142.753 187.661 149.461 188.189 151.694C192.511 150.822 208.795 147.525 217.675 145.728C217.889 113.458 208.183 98.1222 208.183 98.1222C208.183 98.1222 204.81 97.8928 200.962 98.1758C200.458 98.2064 199.938 98.2599 199.417 98.3134C196.044 98.6806 190.614 99.9044 186.881 100.853C186.093 101.052 185.305 101.273 184.541 101.503C180.632 102.666 177.244 104.096 177.244 104.096Z" fill="white"/>
<path d="M183.63 112.081C179.102 111.507 174.75 110.712 170.322 109.626C168.111 109.075 165.908 108.463 163.675 107.675C162.558 107.285 161.434 106.842 160.279 106.322C159.124 105.771 157.961 105.182 156.669 104.203C156.355 103.973 156.003 103.66 155.674 103.331C155.483 103.147 155.414 103.056 155.307 102.933L155.001 102.581C154.573 102.107 154.229 101.664 153.854 101.212C153.135 100.302 152.454 99.4072 151.796 98.5046C150.458 96.7071 149.203 94.8791 147.957 93.0587C145.486 89.3949 143.138 85.67 140.92 81.838L144.324 79.3445C147.299 82.5646 150.205 85.8383 153.081 89.1043C154.504 90.7488 155.957 92.3627 157.38 93.9612C158.091 94.7567 158.818 95.5445 159.529 96.2941C159.881 96.6613 160.241 97.0513 160.577 97.3649L160.83 97.6173C160.906 97.6938 161.021 97.8086 161.036 97.8086C161.105 97.8468 161.158 97.9004 161.296 97.9845C161.77 98.2904 162.589 98.6729 163.438 98.9941C164.302 99.3307 165.228 99.6443 166.199 99.9196C168.134 100.478 170.169 100.968 172.226 101.403C176.334 102.268 180.609 103.01 184.747 103.652L183.63 112.081Z" fill="#803E3C"/>
<path d="M183.355 101.006L181.864 116.839L179.179 115.837L166.887 111.263L165.817 97.6862L174.957 99.4148L183.355 101.006Z" fill="url(#paint76_linear_222_504)"/>
<path d="M142.174 83.5972L136.95 81.3179L142.365 76.5527C142.365 76.5527 146.373 79.4822 145.027 81.7768L142.174 83.5972Z" fill="#7F3E3B"/>
<path d="M134.724 77.2105L139.382 73.4779L142.365 76.5527L136.958 81.3179L134.724 77.2105Z" fill="#7F3E3B"/>
<path d="M207.326 96.34C211.181 94.7032 215.151 92.9363 218.914 91.093C220.803 90.1675 222.654 89.1961 224.391 88.1788C225.263 87.674 226.089 87.1386 226.838 86.6032C227.588 86.083 228.284 85.5094 228.666 85.0964C228.789 84.9816 228.819 84.9204 228.88 84.8593C228.896 84.8593 228.98 84.7216 229.033 84.6298L229.217 84.3238C229.462 83.9338 229.714 83.4672 229.967 83.0236C230.471 82.121 230.984 81.1879 231.481 80.2394C232.468 78.3349 233.485 76.415 234.464 74.4722C236.453 70.602 238.472 66.7088 240.568 62.8615L244.476 64.4447C243.26 68.7051 241.899 72.889 240.4 77.0499C239.635 79.1227 238.87 81.2031 238.013 83.2683C237.592 84.3085 237.156 85.3411 236.682 86.3966C236.437 86.9244 236.2 87.4445 235.91 88.0105L235.696 88.4236C235.619 88.5689 235.581 88.676 235.435 88.8978C235.191 89.2955 234.931 89.6933 234.686 89.9916C233.676 91.2613 232.69 92.1179 231.703 92.9363C230.716 93.7241 229.73 94.4278 228.743 95.078C226.777 96.3936 224.781 97.5256 222.777 98.6041C218.746 100.746 214.723 102.574 210.478 104.249L207.326 96.34Z" fill="#803E3C"/>
<path d="M226.502 99.3613L217.912 105.289L213.353 108.44L208.03 93.4488L211.372 91.8961L224.215 85.9301L226.502 99.3613Z" fill="url(#paint77_linear_222_504)"/>
<path d="M238.854 241.307L244.392 242.278L248.201 229.727L242.664 228.763L238.854 241.307Z" fill="#7F3E3B"/>
<path d="M244.744 241.376H237.891C237.661 241.376 237.462 241.536 237.409 241.758L236.246 246.753C236.124 247.273 236.529 247.762 237.057 247.755C239.26 247.716 240.874 247.586 243.65 247.586C245.356 247.586 250.511 247.762 252.867 247.762C255.177 247.762 255.559 245.429 254.596 245.215C250.274 244.267 247.023 242.959 245.654 241.712C245.409 241.498 245.081 241.376 244.744 241.376Z" fill="#263238"/>
<path d="M245.126 242.156C245.073 242.14 245.035 242.102 245.027 242.049C245.019 241.995 245.042 241.942 245.088 241.911C245.295 241.781 247.123 240.664 247.735 240.986C247.834 241.031 247.949 241.139 247.956 241.36C247.972 241.659 247.88 241.896 247.673 242.064C247.413 242.278 247.016 242.347 246.587 242.347C246.075 242.362 245.517 242.248 245.126 242.156ZM245.516 241.972C246.465 242.163 247.199 242.125 247.513 241.873C247.65 241.758 247.712 241.597 247.696 241.391C247.689 241.284 247.651 241.253 247.612 241.238C247.566 241.215 247.513 241.207 247.436 241.207C247.008 241.192 246.151 241.605 245.516 241.972Z" fill="url(#paint78_linear_222_504)"/>
<path d="M245.088 242.14C245.05 242.118 245.027 242.064 245.027 242.018C245.035 241.949 245.18 240.328 245.845 239.792C246.014 239.655 246.205 239.593 246.411 239.624C246.733 239.662 246.809 239.861 246.832 239.976C246.947 240.603 245.807 241.835 245.226 242.148C245.203 242.156 245.188 242.163 245.165 242.163C245.134 242.163 245.111 242.156 245.088 242.14ZM246.006 239.999C245.585 240.343 245.394 241.284 245.325 241.758C245.907 241.322 246.633 240.389 246.564 240.022C246.557 239.991 246.541 239.907 246.373 239.884C246.35 239.884 246.335 239.876 246.312 239.876C246.205 239.884 246.105 239.922 246.006 239.999Z" fill="url(#paint79_linear_222_504)"/>
<path d="M243.696 66.487L248.201 62.9991L241.784 59.7025C241.784 59.7025 238.617 63.5192 240.476 65.4161L243.696 66.487Z" fill="#7F3E3B"/>
<path d="M249.348 58.4711L243.926 55.9929L241.784 59.7025L248.201 62.9991L249.348 58.4711Z" fill="#7F3E3B"/>
<path d="M185.405 88.7678C186.973 92.6457 189.183 99.8738 186.881 103.14C189.359 104.853 192.771 106.046 197.283 105.029C200.741 104.249 200.45 101.786 199.417 100.6C194.713 100.44 194.186 97.0744 194.369 93.7778L185.405 88.7678Z" fill="#7F3E3B"/>
<path opacity="0.2" d="M189.053 90.8177L194.354 93.7854C194.308 94.5656 194.308 95.3457 194.392 96.0877C192.625 96.1871 189.902 94.7797 189.375 93.0129C189.122 92.1333 188.992 91.2613 189.053 90.8177Z" fill="black"/>
<path d="M195.631 74.74C197.161 76.4151 198.706 80.5989 195.356 80.5683C192.006 80.5378 193 71.8641 195.631 74.74Z" fill="#263238"/>
<path d="M182.743 83.9797C184.793 89.1579 185.726 92.3015 189.283 94.1143C194.629 96.8449 200.351 92.225 199.892 86.519C199.479 81.3867 196.197 73.7762 190.338 73.4091C184.564 73.0572 180.693 78.7938 182.743 83.9797Z" fill="#7F3E3B"/>
<path d="M194.216 76.7822C197.696 75.0459 198.79 70.1966 193.023 68.9422C191.149 68.5369 188.985 68.9346 188.985 68.9346C188.985 68.9346 190.484 69.8677 189.971 71.2598C189.038 70.3037 186.254 68.7128 183.324 70.3955C184.403 71.2369 184.64 73.8833 182.644 73.9369C179.622 74.021 176.112 76.2162 177.863 79.2451C175.309 82.4423 179.286 86.8709 184.931 87.3222C186.46 84.2244 183.982 79.6505 183.982 79.6505C186.82 79.6046 191.065 78.3502 194.216 76.7822Z" fill="#263238"/>
<path d="M178.712 79.3675C178.712 79.3675 176.135 79.008 177.014 76.5833C175.087 78.1972 176.494 79.6811 178.712 79.3675Z" fill="#263238"/>
<path d="M179.24 79.7652C179.24 79.7652 176.747 79.0386 176.548 81.6086C175.454 79.3446 177.343 78.5644 179.24 79.7652Z" fill="#263238"/>
<path d="M182.139 89.0508C183.003 90.2746 184.357 90.9783 185.573 91.1542C187.409 91.4219 188.105 89.7163 187.409 88.1024C186.782 86.6491 185.084 84.7522 183.332 85.2265C181.604 85.6854 181.145 87.6511 182.139 89.0508Z" fill="#7F3E3B"/>
<path d="M191.233 82.7559C191.371 83.1842 191.715 83.4596 191.998 83.3678C192.281 83.276 192.396 82.8477 192.251 82.4193C192.105 81.991 191.769 81.7157 191.486 81.8074C191.203 81.8992 191.088 82.3276 191.233 82.7559Z" fill="#263238"/>
<path d="M196.09 81.1191C196.228 81.5474 196.572 81.8227 196.855 81.731C197.138 81.6392 197.253 81.2108 197.107 80.7825C196.97 80.3542 196.626 80.0788 196.343 80.1706C196.067 80.2624 195.953 80.6907 196.09 81.1191Z" fill="#263238"/>
<path d="M194.614 81.8533C194.614 81.8533 196.396 83.9109 197.857 84.7063C197.329 85.6318 195.93 85.7389 195.93 85.7389L194.614 81.8533Z" fill="#630F0F"/>
<path d="M189.222 81.6927C189.313 81.6774 189.39 81.6086 189.428 81.5168C189.811 80.3848 190.759 80.1324 190.767 80.1247C190.912 80.0865 190.996 79.9412 190.958 79.7958C190.92 79.6505 190.774 79.5664 190.637 79.6046C190.583 79.6199 189.398 79.9411 188.923 81.3409C188.877 81.4785 188.946 81.6315 189.084 81.6774C189.13 81.6927 189.176 81.7004 189.222 81.6927Z" fill="#263238"/>
<path d="M197.635 78.7403C197.689 78.7327 197.735 78.7097 197.773 78.6715C197.88 78.5644 197.88 78.3961 197.781 78.2967C196.756 77.2411 195.555 77.4783 195.501 77.4859C195.356 77.5165 195.264 77.6542 195.287 77.7995C195.318 77.9448 195.455 78.0366 195.593 78.006C195.639 77.9907 196.572 77.8225 197.391 78.6715C197.459 78.7327 197.551 78.7556 197.635 78.7403Z" fill="#263238"/>
<path d="M196.128 87.7734C195.608 88.676 195.019 90.397 195.019 90.397C194.851 90.374 194.69 90.3434 194.522 90.3128C192.281 89.9151 191.371 88.9896 191.05 88.087C190.874 87.5899 190.874 87.1004 190.927 86.7026C190.988 86.2437 191.134 85.9377 191.134 85.9377C192.197 86.8556 194.254 87.391 195.364 87.6281C195.83 87.7275 196.128 87.7734 196.128 87.7734Z" fill="#263238"/>
<path d="M195.363 87.6205L195.019 88.3854C192.908 88.0029 191.478 87.4522 190.927 86.695C190.988 86.2361 191.134 85.9301 191.134 85.9301C192.197 86.8556 194.254 87.3834 195.363 87.6205Z" fill="white"/>
<path d="M194.522 90.3128C192.281 89.9151 191.371 88.9896 191.05 88.087C191.807 88.2553 192.702 88.5383 193.451 89.0202C194.025 89.3873 194.339 89.8615 194.522 90.3128Z" fill="#DE5753"/>
<path d="M249.494 232.48L239.573 231.608C239.573 231.608 250.282 194.259 246.557 189.938C244.874 187.98 237.103 185.417 229.079 183.207C219.541 180.56 209.652 178.403 209.292 178.335C209.284 178.327 209.284 178.327 209.284 178.327C209.284 178.327 206.309 202.283 199.907 214.322C193.505 226.353 168.111 237.735 168.111 237.735L162.069 231.493C162.069 231.493 186.675 214.972 187.669 208.119C188.663 201.273 186.193 167.405 188.189 151.694L218.019 142.997L222.869 158.127C222.869 158.127 250.695 169.692 258.259 180.224C265.824 190.749 249.494 232.48 249.494 232.48Z" fill="#34349A"/>
<path d="M168.356 239.7L160.195 230.736L162.895 228.327L171.959 237.184L168.356 239.7Z" fill="#263238"/>
<path d="M249.754 235.501L237.776 233.658L238.357 230.086L250.978 231.287L249.754 235.501Z" fill="#263238"/>
<path opacity="0.2" d="M168.356 239.7L160.195 230.736L162.895 228.327L171.959 237.184L168.356 239.7Z" fill="white"/>
<path opacity="0.2" d="M249.754 235.501L237.776 233.658L238.357 230.086L250.978 231.287L249.754 235.501Z" fill="white"/>
<path opacity="0.2" d="M229.079 183.207C219.541 180.56 209.651 178.403 209.292 178.335C209.284 178.327 209.284 178.327 209.284 178.327L212.604 172.552C212.604 172.552 224.612 176.69 229.079 183.207Z" fill="black"/>
<path opacity="0.2" d="M174.957 99.4149L183.355 101.006L181.864 116.839L179.179 115.837C176.624 111.928 175.469 104.463 174.957 99.4149Z" fill="black"/>
<path opacity="0.2" d="M217.912 105.289L213.353 108.44L208.03 93.4488L211.372 91.8961C213.461 97.0973 214.57 103.002 214.57 103.002C216.099 103.545 217.178 104.448 217.912 105.289Z" fill="black"/>
<path d="M213.476 111.431C213.476 111.431 212.351 109.029 210.256 106.505C209.368 105.434 208.313 104.348 207.097 103.407C206.133 102.658 205.07 102.008 203.907 101.533C202.355 100.891 200.634 100.57 198.752 100.769C198.645 100.776 198.53 100.792 198.423 100.807C196.924 101.013 195.517 101.694 194.216 102.711C192.901 103.721 191.685 105.06 190.583 106.566C189.512 108.027 188.549 109.649 187.692 111.278C186.552 113.45 185.611 115.645 184.885 117.512C183.745 120.434 183.141 122.56 183.141 122.56C183.141 122.56 180.188 121.841 180.724 117.978L178.712 113.473C178.712 113.473 177.894 101.426 178.123 90.351C178.223 85.8 178.498 81.4173 179.087 78.0977C179.431 76.1091 179.898 74.5028 180.494 73.4779C180.93 72.7283 181.458 72.0399 182.07 71.4127C183.041 70.4107 184.219 69.5847 185.535 69.011C186.896 68.4144 188.419 68.0779 190.025 68.0855C191.685 68.0932 193.436 68.4603 195.218 69.2634H195.226C197.161 70.143 199.119 71.5351 201.031 73.5467L201.039 73.5544C203.012 75.6501 204.932 78.4037 206.691 81.9527C209.774 88.1482 212.374 96.7377 213.981 108.341C213.981 108.341 215.602 110.406 213.476 111.431Z" fill="url(#paint80_linear_222_504)"/>
<path opacity="0.2" d="M203.907 101.534C202.354 100.891 200.634 100.57 198.752 100.769C197.926 84.3545 193.031 73.3709 190.025 68.0856C191.684 68.0932 193.436 68.4604 195.218 69.2635H195.226C201.551 80.4995 203.387 93.8466 203.907 101.534Z" fill="black"/>
<path opacity="0.2" d="M210.256 106.505C209.368 105.434 208.313 104.348 207.097 103.407C206.844 96.9901 205.697 85.3029 201.039 73.5544C203.012 75.6501 204.932 78.4037 206.691 81.9527C208.114 87.3221 209.544 95.2309 210.256 106.505Z" fill="black"/>
<path opacity="0.2" d="M194.216 102.711C192.901 103.721 191.684 105.06 190.583 106.566C189.742 97.9233 187.501 81.6468 182.07 71.4128C183.041 70.4108 184.219 69.5847 185.535 69.011C188.25 73.7686 192.748 84.1632 194.216 102.711Z" fill="black"/>
<path opacity="0.2" d="M187.692 111.278C186.552 113.45 185.611 115.645 184.885 117.512C183.141 105.281 180.288 96.0646 178.123 90.351C178.223 85.8 178.498 81.4173 179.087 78.0977C183.34 87.0926 186.407 103.507 187.692 111.278Z" fill="black"/>
<g opacity="0.5">
<path d="M194.041 127.172C193.941 127.226 191.646 128.427 190.339 126.606C189.62 125.597 190.04 123.424 190.782 121.719C191.348 120.411 191.914 119.806 192.113 119.745C192.281 119.845 192.503 119.791 192.618 119.631C192.74 119.455 192.694 119.217 192.518 119.095C192.32 118.957 191.891 118.812 191.31 119.409C190.124 120.61 188.304 125.069 189.719 127.05C190.43 128.044 191.409 128.365 192.32 128.365C193.138 128.365 193.918 128.105 194.4 127.845C194.584 127.746 194.652 127.516 194.553 127.325C194.454 127.142 194.224 127.073 194.041 127.172Z" fill="black"/>
<path d="M196.266 117.137C196.06 117.168 195.914 117.366 195.953 117.573L197.085 124.564L195.517 124.992L194.193 118.131C194.155 117.925 193.949 117.787 193.742 117.825C193.536 117.864 193.398 118.07 193.436 118.277L194.775 125.191L194.301 125.321C194.094 125.375 193.979 125.589 194.033 125.788C194.079 125.956 194.232 126.071 194.4 126.071C194.431 126.071 194.469 126.063 194.499 126.055L194.92 125.941L195.325 128.052C195.364 128.235 195.524 128.365 195.7 128.365C195.723 128.365 195.746 128.365 195.777 128.358C195.983 128.319 196.121 128.113 196.083 127.906L195.662 125.742L197.207 125.321L197.521 127.264C197.551 127.455 197.712 127.585 197.895 127.585C197.918 127.585 197.934 127.585 197.957 127.578C198.163 127.547 198.309 127.348 198.27 127.142L196.702 117.443C196.672 117.244 196.48 117.091 196.266 117.137Z" fill="black"/>
<path d="M201.896 122.958L202.003 122.919C202.202 122.858 202.316 122.636 202.248 122.438C202.186 122.239 201.965 122.124 201.766 122.193L201.567 122.254L199.295 117.343C199.219 117.183 199.043 117.091 198.867 117.129C198.691 117.168 198.569 117.321 198.569 117.504V123.218L198.301 123.302C198.102 123.363 197.987 123.585 198.056 123.784C198.11 123.944 198.255 124.051 198.423 124.051C198.461 124.051 198.5 124.044 198.538 124.036L198.569 124.028V126.675C198.569 126.889 198.737 127.057 198.951 127.057C199.165 127.057 199.333 126.889 199.333 126.675V123.776L201.154 123.187L202.385 125.849C202.477 126.04 202.699 126.124 202.89 126.032C203.081 125.941 203.165 125.719 203.074 125.528L201.896 122.958ZM199.341 122.981V119.248L200.84 122.491L199.341 122.981Z" fill="black"/>
<path d="M205.697 115.202C205.529 115.187 205.368 115.271 205.307 115.424L204.336 117.596L202.133 115.86C202.003 115.76 201.835 115.753 201.697 115.837C201.559 115.921 201.49 116.081 201.521 116.242L203.548 125.772C203.586 125.956 203.747 126.078 203.923 126.078C203.946 126.078 203.976 126.078 203.999 126.071C204.206 126.025 204.336 125.826 204.297 125.619L202.492 117.122L204.252 118.506C204.343 118.583 204.466 118.606 204.58 118.575C204.695 118.544 204.787 118.468 204.841 118.361L205.514 116.846L207.059 124.931C207.097 125.138 207.296 125.275 207.51 125.237C207.716 125.199 207.854 125 207.816 124.793L206.041 115.515C205.996 115.347 205.858 115.225 205.697 115.202Z" fill="black"/>
<path d="M207.342 114.659C207.143 114.705 207.013 114.904 207.051 115.102L208.045 120.258C208.038 120.258 208.038 120.258 208.03 120.258C207.816 120.258 207.648 120.434 207.648 120.64C207.648 120.854 207.824 121.023 208.03 121.023C208.038 121.023 208.091 121.023 208.183 121.015L208.94 124.939C208.978 125.122 209.139 125.252 209.315 125.252C209.338 125.252 209.361 125.252 209.384 125.245C209.59 125.206 209.728 125.008 209.69 124.793L208.925 120.816C209.185 120.701 209.476 120.525 209.743 120.258C210.355 119.63 210.654 118.713 210.638 117.512C210.623 116.426 210.294 115.623 209.667 115.125C208.703 114.36 207.395 114.644 207.342 114.659ZM208.78 120.044L207.877 115.362C208.229 115.347 208.772 115.393 209.193 115.722C209.629 116.066 209.858 116.67 209.873 117.512C209.896 119.087 209.307 119.753 208.78 120.044Z" fill="black"/>
<path d="M212.971 122.942C212.986 122.942 213.002 122.942 213.025 122.942C213.231 122.912 213.384 122.721 213.354 122.514C212.849 118.72 211.548 113.626 211.541 113.58C211.487 113.374 211.281 113.251 211.074 113.305C210.868 113.359 210.745 113.565 210.799 113.772C210.814 113.825 212.099 118.866 212.596 122.621C212.619 122.805 212.788 122.942 212.971 122.942Z" fill="black"/>
<path d="M213.744 125.52L213.315 124.686C213.216 124.495 212.986 124.426 212.803 124.518C212.612 124.617 212.543 124.847 212.635 125.031L213.063 125.864C213.132 125.994 213.262 126.071 213.399 126.071C213.461 126.071 213.522 126.055 213.575 126.025C213.767 125.941 213.843 125.711 213.744 125.52Z" fill="black"/>
</g>
<defs>
<linearGradient id="paint0_linear_222_504" x1="0.91719" y1="247.342" x2="297.521" y2="247.342" gradientUnits="userSpaceOnUse">
<stop stop-opacity="0"/>
<stop offset="0.0001" stop-color="#1B1F4E" stop-opacity="0"/>
<stop offset="0.5346" stop-color="#1DB7EB"/>
<stop offset="1" stop-color="#222661" stop-opacity="0"/>
</linearGradient>
<linearGradient id="paint1_linear_222_504" x1="163.028" y1="50.547" x2="163.028" y2="57.2167" gradientUnits="userSpaceOnUse">
<stop stop-color="#8A01D7"/>
<stop offset="1" stop-color="#407BFF"/>
</linearGradient>
<linearGradient id="paint2_linear_222_504" x1="223.381" y1="101.174" x2="223.381" y2="108.387" gradientUnits="userSpaceOnUse">
<stop stop-color="#8A01D7"/>
<stop offset="1" stop-color="#407BFF"/>
</linearGradient>
<linearGradient id="paint3_linear_222_504" x1="102.695" y1="0.814819" x2="102.695" y2="5.77886" gradientUnits="userSpaceOnUse">
<stop stop-color="#8A01D7"/>
<stop offset="1" stop-color="#407BFF"/>
</linearGradient>
<linearGradient id="paint4_linear_222_504" x1="109.243" y1="152.52" x2="109.243" y2="159.19" gradientUnits="userSpaceOnUse">
<stop stop-color="#8A01D7"/>
<stop offset="1" stop-color="#407BFF"/>
</linearGradient>
<linearGradient id="paint5_linear_222_504" x1="147.326" y1="85.1882" x2="147.326" y2="90.9553" gradientUnits="userSpaceOnUse">
<stop stop-color="#8A01D7"/>
<stop offset="1" stop-color="#407BFF"/>
</linearGradient>
<linearGradient id="paint6_linear_222_504" x1="241.57" y1="138.033" x2="241.57" y2="145.468" gradientUnits="userSpaceOnUse">
<stop stop-color="#8A01D7"/>
<stop offset="1" stop-color="#407BFF"/>
</linearGradient>
<linearGradient id="paint7_linear_222_504" x1="133.397" y1="161.255" x2="133.397" y2="167.022" gradientUnits="userSpaceOnUse">
<stop stop-color="#8A01D7"/>
<stop offset="1" stop-color="#407BFF"/>
</linearGradient>
<linearGradient id="paint8_linear_222_504" x1="193.356" y1="86.366" x2="193.356" y2="96.9825" gradientUnits="userSpaceOnUse">
<stop stop-color="#8A01D7"/>
<stop offset="1" stop-color="#407BFF"/>
</linearGradient>
<linearGradient id="paint9_linear_222_504" x1="185.807" y1="31.4022" x2="185.807" y2="37.8807" gradientUnits="userSpaceOnUse">
<stop stop-color="#8A01D7"/>
<stop offset="1" stop-color="#407BFF"/>
</linearGradient>
<linearGradient id="paint10_linear_222_504" x1="223.381" y1="24.9237" x2="223.381" y2="30.362" gradientUnits="userSpaceOnUse">
<stop stop-color="#8A01D7"/>
<stop offset="1" stop-color="#407BFF"/>
</linearGradient>
<linearGradient id="paint11_linear_222_504" x1="223.381" y1="59.8632" x2="223.381" y2="66.6705" gradientUnits="userSpaceOnUse">
<stop stop-color="#8A01D7"/>
<stop offset="1" stop-color="#407BFF"/>
</linearGradient>
<linearGradient id="paint12_linear_222_504" x1="254.521" y1="82.7023" x2="254.521" y2="93.4411" gradientUnits="userSpaceOnUse">
<stop stop-color="#8A01D7"/>
<stop offset="1" stop-color="#407BFF"/>
</linearGradient>
<linearGradient id="paint13_linear_222_504" x1="182.196" y1="164.139" x2="182.196" y2="174.755" gradientUnits="userSpaceOnUse">
<stop stop-color="#8A01D7"/>
<stop offset="1" stop-color="#407BFF"/>
</linearGradient>
<linearGradient id="paint14_linear_222_504" x1="226.658" y1="170.456" x2="226.658" y2="177.126" gradientUnits="userSpaceOnUse">
<stop stop-color="#8A01D7"/>
<stop offset="1" stop-color="#407BFF"/>
</linearGradient>
<linearGradient id="paint15_linear_222_504" x1="193.36" y1="132.465" x2="193.36" y2="138.232" gradientUnits="userSpaceOnUse">
<stop stop-color="#8A01D7"/>
<stop offset="1" stop-color="#407BFF"/>
</linearGradient>
<linearGradient id="paint16_linear_222_504" x1="108.745" y1="193.013" x2="108.745" y2="203.629" gradientUnits="userSpaceOnUse">
<stop stop-color="#8A01D7"/>
<stop offset="1" stop-color="#407BFF"/>
</linearGradient>
<linearGradient id="paint17_linear_222_504" x1="158.678" y1="3.73663" x2="158.678" y2="13.5576" gradientUnits="userSpaceOnUse">
<stop stop-color="#8A01D7"/>
<stop offset="1" stop-color="#407BFF"/>
</linearGradient>
<linearGradient id="paint18_linear_222_504" x1="149.125" y1="124.816" x2="149.125" y2="135.349" gradientUnits="userSpaceOnUse">
<stop stop-color="#8A01D7"/>
<stop offset="1" stop-color="#407BFF"/>
</linearGradient>
<linearGradient id="paint19_linear_222_504" x1="108.749" y1="55.3045" x2="108.749" y2="59.8632" gradientUnits="userSpaceOnUse">
<stop stop-color="#8A01D7"/>
<stop offset="1" stop-color="#407BFF"/>
</linearGradient>
<linearGradient id="paint20_linear_222_504" x1="194.4" y1="3.29297" x2="194.4" y2="7.85162" gradientUnits="userSpaceOnUse">
<stop stop-color="#8A01D7"/>
<stop offset="1" stop-color="#407BFF"/>
</linearGradient>
<linearGradient id="paint21_linear_222_504" x1="124.425" y1="21.2599" x2="124.425" y2="28.335" gradientUnits="userSpaceOnUse">
<stop stop-color="#8A01D7"/>
<stop offset="1" stop-color="#407BFF"/>
</linearGradient>
<linearGradient id="paint22_linear_222_504" x1="92.5262" y1="118.323" x2="92.5262" y2="124.472" gradientUnits="userSpaceOnUse">
<stop stop-color="#8A01D7"/>
<stop offset="1" stop-color="#407BFF"/>
</linearGradient>
<linearGradient id="paint23_linear_222_504" x1="57.4069" y1="131.899" x2="57.4069" y2="136.886" gradientUnits="userSpaceOnUse">
<stop stop-color="#8A01D7"/>
<stop offset="1" stop-color="#407BFF"/>
</linearGradient>
<linearGradient id="paint24_linear_222_504" x1="32.7666" y1="92.072" x2="32.7666" y2="98.5735" gradientUnits="userSpaceOnUse">
<stop stop-color="#8A01D7"/>
<stop offset="1" stop-color="#407BFF"/>
</linearGradient>
<linearGradient id="paint25_linear_222_504" x1="108.752" y1="86.2972" x2="108.752" y2="97.0514" gradientUnits="userSpaceOnUse">
<stop stop-color="#8A01D7"/>
<stop offset="1" stop-color="#407BFF"/>
</linearGradient>
<linearGradient id="paint26_linear_222_504" x1="47.6243" y1="52.7804" x2="47.6243" y2="59.1595" gradientUnits="userSpaceOnUse">
<stop stop-color="#8A01D7"/>
<stop offset="1" stop-color="#407BFF"/>
</linearGradient>
<linearGradient id="paint27_linear_222_504" x1="79.4966" y1="78.5643" x2="79.4966" y2="84.0561" gradientUnits="userSpaceOnUse">
<stop stop-color="#8A01D7"/>
<stop offset="1" stop-color="#407BFF"/>
</linearGradient>
<linearGradient id="paint28_linear_222_504" x1="76.2994" y1="21.5888" x2="76.2994" y2="32.2435" gradientUnits="userSpaceOnUse">
<stop stop-color="#8A01D7"/>
<stop offset="1" stop-color="#407BFF"/>
</linearGradient>
<linearGradient id="paint29_linear_222_504" x1="71.0485" y1="174.854" x2="71.0485" y2="179.406" gradientUnits="userSpaceOnUse">
<stop stop-color="#8A01D7"/>
<stop offset="1" stop-color="#407BFF"/>
</linearGradient>
<linearGradient id="paint30_linear_222_504" x1="159.751" y1="53.8818" x2="166.306" y2="53.8818" gradientUnits="userSpaceOnUse">
<stop stop-opacity="0"/>
<stop offset="0.0001" stop-color="#1B1F4E" stop-opacity="0"/>
<stop offset="0.5346" stop-color="#1DB7EB"/>
<stop offset="1" stop-color="#222661" stop-opacity="0"/>
</linearGradient>
<linearGradient id="paint31_linear_222_504" x1="220.566" y1="104.78" x2="226.196" y2="104.78" gradientUnits="userSpaceOnUse">
<stop stop-opacity="0"/>
<stop offset="0.0001" stop-color="#1B1F4E" stop-opacity="0"/>
<stop offset="0.5346" stop-color="#1DB7EB"/>
<stop offset="1" stop-color="#222661" stop-opacity="0"/>
</linearGradient>
<linearGradient id="paint32_linear_222_504" x1="99.0965" y1="3.29683" x2="106.294" y2="3.29683" gradientUnits="userSpaceOnUse">
<stop stop-opacity="0"/>
<stop offset="0.0001" stop-color="#1B1F4E" stop-opacity="0"/>
<stop offset="0.5346" stop-color="#1DB7EB"/>
<stop offset="1" stop-color="#222661" stop-opacity="0"/>
</linearGradient>
<linearGradient id="paint33_linear_222_504" x1="105.965" y1="155.855" x2="112.52" y2="155.855" gradientUnits="userSpaceOnUse">
<stop stop-opacity="0"/>
<stop offset="0.0001" stop-color="#1B1F4E" stop-opacity="0"/>
<stop offset="0.5346" stop-color="#1DB7EB"/>
<stop offset="1" stop-color="#222661" stop-opacity="0"/>
</linearGradient>
<linearGradient id="paint34_linear_222_504" x1="143.888" y1="88.0717" x2="150.764" y2="88.0717" gradientUnits="userSpaceOnUse">
<stop stop-opacity="0"/>
<stop offset="0.0001" stop-color="#1B1F4E" stop-opacity="0"/>
<stop offset="0.5346" stop-color="#1DB7EB"/>
<stop offset="1" stop-color="#222661" stop-opacity="0"/>
</linearGradient>
<linearGradient id="paint35_linear_222_504" x1="237.784" y1="141.751" x2="245.356" y2="141.751" gradientUnits="userSpaceOnUse">
<stop stop-opacity="0"/>
<stop offset="0.0001" stop-color="#1B1F4E" stop-opacity="0"/>
<stop offset="0.5346" stop-color="#1DB7EB"/>
<stop offset="1" stop-color="#222661" stop-opacity="0"/>
</linearGradient>
<linearGradient id="paint36_linear_222_504" x1="129.959" y1="164.139" x2="136.835" y2="164.139" gradientUnits="userSpaceOnUse">
<stop stop-opacity="0"/>
<stop offset="0.0001" stop-color="#1B1F4E" stop-opacity="0"/>
<stop offset="0.5346" stop-color="#1DB7EB"/>
<stop offset="1" stop-color="#222661" stop-opacity="0"/>
</linearGradient>
<linearGradient id="paint37_linear_222_504" x1="189.749" y1="91.6742" x2="196.962" y2="91.6742" gradientUnits="userSpaceOnUse">
<stop stop-opacity="0"/>
<stop offset="0.0001" stop-color="#1B1F4E" stop-opacity="0"/>
<stop offset="0.5346" stop-color="#1DB7EB"/>
<stop offset="1" stop-color="#222661" stop-opacity="0"/>
</linearGradient>
<linearGradient id="paint38_linear_222_504" x1="182.445" y1="34.6414" x2="189.168" y2="34.6414" gradientUnits="userSpaceOnUse">
<stop stop-opacity="0"/>
<stop offset="0.0001" stop-color="#1B1F4E" stop-opacity="0"/>
<stop offset="0.5346" stop-color="#1DB7EB"/>
<stop offset="1" stop-color="#222661" stop-opacity="0"/>
</linearGradient>
<linearGradient id="paint39_linear_222_504" x1="219.809" y1="27.6428" x2="226.953" y2="27.6428" gradientUnits="userSpaceOnUse">
<stop stop-opacity="0"/>
<stop offset="0.0001" stop-color="#1B1F4E" stop-opacity="0"/>
<stop offset="0.5346" stop-color="#1DB7EB"/>
<stop offset="1" stop-color="#222661" stop-opacity="0"/>
</linearGradient>
<linearGradient id="paint40_linear_222_504" x1="220.016" y1="63.2668" x2="226.746" y2="63.2668" gradientUnits="userSpaceOnUse">
<stop stop-opacity="0"/>
<stop offset="0.0001" stop-color="#1B1F4E" stop-opacity="0"/>
<stop offset="0.5346" stop-color="#1DB7EB"/>
<stop offset="1" stop-color="#222661" stop-opacity="0"/>
</linearGradient>
<linearGradient id="paint41_linear_222_504" x1="251.704" y1="88.0717" x2="257.338" y2="88.0717" gradientUnits="userSpaceOnUse">
<stop stop-opacity="0"/>
<stop offset="0.0001" stop-color="#1B1F4E" stop-opacity="0"/>
<stop offset="0.5346" stop-color="#1DB7EB"/>
<stop offset="1" stop-color="#222661" stop-opacity="0"/>
</linearGradient>
<linearGradient id="paint42_linear_222_504" x1="178.59" y1="169.447" x2="185.803" y2="169.447" gradientUnits="userSpaceOnUse">
<stop stop-opacity="0"/>
<stop offset="0.0001" stop-color="#1B1F4E" stop-opacity="0"/>
<stop offset="0.5346" stop-color="#1DB7EB"/>
<stop offset="1" stop-color="#222661" stop-opacity="0"/>
</linearGradient>
<linearGradient id="paint43_linear_222_504" x1="223.381" y1="173.791" x2="229.936" y2="173.791" gradientUnits="userSpaceOnUse">
<stop stop-opacity="0"/>
<stop offset="0.0001" stop-color="#1B1F4E" stop-opacity="0"/>
<stop offset="0.5346" stop-color="#1DB7EB"/>
<stop offset="1" stop-color="#222661" stop-opacity="0"/>
</linearGradient>
<linearGradient id="paint44_linear_222_504" x1="189.918" y1="135.349" x2="196.802" y2="135.349" gradientUnits="userSpaceOnUse">
<stop stop-opacity="0"/>
<stop offset="0.0001" stop-color="#1B1F4E" stop-opacity="0"/>
<stop offset="0.5346" stop-color="#1DB7EB"/>
<stop offset="1" stop-color="#222661" stop-opacity="0"/>
</linearGradient>
<linearGradient id="paint45_linear_222_504" x1="105.139" y1="198.321" x2="112.352" y2="198.321" gradientUnits="userSpaceOnUse">
<stop stop-opacity="0"/>
<stop offset="0.0001" stop-color="#1B1F4E" stop-opacity="0"/>
<stop offset="0.5346" stop-color="#1DB7EB"/>
<stop offset="1" stop-color="#222661" stop-opacity="0"/>
</linearGradient>
<linearGradient id="paint46_linear_222_504" x1="155.799" y1="8.64712" x2="161.558" y2="8.64712" gradientUnits="userSpaceOnUse">
<stop stop-opacity="0"/>
<stop offset="0.0001" stop-color="#1B1F4E" stop-opacity="0"/>
<stop offset="0.5346" stop-color="#1DB7EB"/>
<stop offset="1" stop-color="#222661" stop-opacity="0"/>
</linearGradient>
<linearGradient id="paint47_linear_222_504" x1="145.698" y1="130.082" x2="152.552" y2="130.082" gradientUnits="userSpaceOnUse">
<stop stop-opacity="0"/>
<stop offset="0.0001" stop-color="#1B1F4E" stop-opacity="0"/>
<stop offset="0.5346" stop-color="#1DB7EB"/>
<stop offset="1" stop-color="#222661" stop-opacity="0"/>
</linearGradient>
<linearGradient id="paint48_linear_222_504" x1="106.294" y1="57.5838" x2="111.205" y2="57.5838" gradientUnits="userSpaceOnUse">
<stop stop-opacity="0"/>
<stop offset="0.0001" stop-color="#1B1F4E" stop-opacity="0"/>
<stop offset="0.5346" stop-color="#1DB7EB"/>
<stop offset="1" stop-color="#222661" stop-opacity="0"/>
</linearGradient>
<linearGradient id="paint49_linear_222_504" x1="191.945" y1="5.57229" x2="196.855" y2="5.57229" gradientUnits="userSpaceOnUse">
<stop stop-opacity="0"/>
<stop offset="0.0001" stop-color="#1B1F4E" stop-opacity="0"/>
<stop offset="0.5346" stop-color="#1DB7EB"/>
<stop offset="1" stop-color="#222661" stop-opacity="0"/>
</linearGradient>
<linearGradient id="paint50_linear_222_504" x1="121.423" y1="24.7974" x2="127.427" y2="24.7974" gradientUnits="userSpaceOnUse">
<stop stop-opacity="0"/>
<stop offset="0.0001" stop-color="#1B1F4E" stop-opacity="0"/>
<stop offset="0.5346" stop-color="#1DB7EB"/>
<stop offset="1" stop-color="#222661" stop-opacity="0"/>
</linearGradient>
<linearGradient id="paint51_linear_222_504" x1="89.069" y1="121.397" x2="95.9835" y2="121.397" gradientUnits="userSpaceOnUse">
<stop stop-opacity="0"/>
<stop offset="0.0001" stop-color="#1B1F4E" stop-opacity="0"/>
<stop offset="0.5346" stop-color="#1DB7EB"/>
<stop offset="1" stop-color="#222661" stop-opacity="0"/>
</linearGradient>
<linearGradient id="paint52_linear_222_504" x1="53.8159" y1="134.393" x2="60.998" y2="134.393" gradientUnits="userSpaceOnUse">
<stop stop-opacity="0"/>
<stop offset="0.0001" stop-color="#1B1F4E" stop-opacity="0"/>
<stop offset="0.5346" stop-color="#1DB7EB"/>
<stop offset="1" stop-color="#222661" stop-opacity="0"/>
</linearGradient>
<linearGradient id="paint53_linear_222_504" x1="29.577" y1="95.3227" x2="35.9561" y2="95.3227" gradientUnits="userSpaceOnUse">
<stop stop-opacity="0"/>
<stop offset="0.0001" stop-color="#1B1F4E" stop-opacity="0"/>
<stop offset="0.5346" stop-color="#1DB7EB"/>
<stop offset="1" stop-color="#222661" stop-opacity="0"/>
</linearGradient>
<linearGradient id="paint54_linear_222_504" x1="105.741" y1="91.6743" x2="111.763" y2="91.6743" gradientUnits="userSpaceOnUse">
<stop stop-opacity="0"/>
<stop offset="0.0001" stop-color="#1B1F4E" stop-opacity="0"/>
<stop offset="0.5346" stop-color="#1DB7EB"/>
<stop offset="1" stop-color="#222661" stop-opacity="0"/>
</linearGradient>
<linearGradient id="paint55_linear_222_504" x1="44.2321" y1="55.9699" x2="51.0165" y2="55.9699" gradientUnits="userSpaceOnUse">
<stop stop-opacity="0"/>
<stop offset="0.0001" stop-color="#1B1F4E" stop-opacity="0"/>
<stop offset="0.5346" stop-color="#1DB7EB"/>
<stop offset="1" stop-color="#222661" stop-opacity="0"/>
</linearGradient>
<linearGradient id="paint56_linear_222_504" x1="76.2574" y1="81.3102" x2="82.7359" y2="81.3102" gradientUnits="userSpaceOnUse">
<stop stop-opacity="0"/>
<stop offset="0.0001" stop-color="#1B1F4E" stop-opacity="0"/>
<stop offset="0.5346" stop-color="#1DB7EB"/>
<stop offset="1" stop-color="#222661" stop-opacity="0"/>
</linearGradient>
<linearGradient id="paint57_linear_222_504" x1="73.0984" y1="26.9161" x2="79.5004" y2="26.9161" gradientUnits="userSpaceOnUse">
<stop stop-opacity="0"/>
<stop offset="0.0001" stop-color="#1B1F4E" stop-opacity="0"/>
<stop offset="0.5346" stop-color="#1DB7EB"/>
<stop offset="1" stop-color="#222661" stop-opacity="0"/>
</linearGradient>
<linearGradient id="paint58_linear_222_504" x1="68.5908" y1="177.13" x2="73.5062" y2="177.13" gradientUnits="userSpaceOnUse">
<stop stop-opacity="0"/>
<stop offset="0.0001" stop-color="#1B1F4E" stop-opacity="0"/>
<stop offset="0.5346" stop-color="#1DB7EB"/>
<stop offset="1" stop-color="#222661" stop-opacity="0"/>
</linearGradient>
<linearGradient id="paint59_linear_222_504" x1="38.0824" y1="222.185" x2="38.0824" y2="247.365" gradientUnits="userSpaceOnUse">
<stop stop-color="#8A01D7"/>
<stop offset="1" stop-color="#407BFF"/>
</linearGradient>
<linearGradient id="paint60_linear_222_504" x1="122.773" y1="186.901" x2="122.773" y2="211.492" gradientUnits="userSpaceOnUse">
<stop stop-color="#8A01D7"/>
<stop offset="1" stop-color="#407BFF"/>
</linearGradient>
<linearGradient id="paint61_linear_222_504" x1="112.165" y1="184.622" x2="112.165" y2="213.466" gradientUnits="userSpaceOnUse">
<stop stop-color="#8A01D7"/>
<stop offset="1" stop-color="#407BFF"/>
</linearGradient>
<linearGradient id="paint62_linear_222_504" x1="109.637" y1="150.853" x2="125.692" y2="150.853" gradientUnits="userSpaceOnUse">
<stop stop-color="#F4B070"/>
<stop offset="1" stop-color="#E9747F"/>
</linearGradient>
<linearGradient id="paint63_linear_222_504" x1="91.3545" y1="170.988" x2="123.726" y2="170.988" gradientUnits="userSpaceOnUse">
<stop stop-color="#F4B070"/>
<stop offset="1" stop-color="#E9747F"/>
</linearGradient>
<linearGradient id="paint64_linear_222_504" x1="80.7627" y1="155.935" x2="98.9822" y2="155.935" gradientUnits="userSpaceOnUse">
<stop stop-color="#F4B070"/>
<stop offset="1" stop-color="#E9747F"/>
</linearGradient>
<linearGradient id="paint65_linear_222_504" x1="102.198" y1="150.723" x2="102.198" y2="157.377" gradientUnits="userSpaceOnUse">
<stop stop-color="#8A01D7"/>
<stop offset="1" stop-color="#407BFF"/>
</linearGradient>
<linearGradient id="paint66_linear_222_504" x1="109.95" y1="149.981" x2="109.95" y2="155.411" gradientUnits="userSpaceOnUse">
<stop stop-color="#8A01D7"/>
<stop offset="1" stop-color="#407BFF"/>
</linearGradient>
<linearGradient id="paint67_linear_222_504" x1="98.2896" y1="136.282" x2="98.2896" y2="138.531" gradientUnits="userSpaceOnUse">
<stop stop-color="#8A01D7"/>
<stop offset="1" stop-color="#407BFF"/>
</linearGradient>
<linearGradient id="paint68_linear_222_504" x1="108.302" y1="134.744" x2="108.302" y2="136.603" gradientUnits="userSpaceOnUse">
<stop stop-color="#8A01D7"/>
<stop offset="1" stop-color="#407BFF"/>
</linearGradient>
<linearGradient id="paint69_linear_222_504" x1="110.803" y1="161.813" x2="110.803" y2="170.38" gradientUnits="userSpaceOnUse">
<stop stop-color="#8A01D7"/>
<stop offset="1" stop-color="#407BFF"/>
</linearGradient>
<linearGradient id="paint70_linear_222_504" x1="100.133" y1="99.4796" x2="100.133" y2="139.647" gradientUnits="userSpaceOnUse">
<stop stop-color="#8A01D7"/>
<stop offset="1" stop-color="#407BFF"/>
</linearGradient>
<linearGradient id="paint71_linear_222_504" x1="123.056" y1="138.699" x2="123.056" y2="151.266" gradientUnits="userSpaceOnUse">
<stop stop-color="#8A01D7"/>
<stop offset="1" stop-color="#407BFF"/>
</linearGradient>
<linearGradient id="paint72_linear_222_504" x1="82.667" y1="143.923" x2="82.667" y2="156.712" gradientUnits="userSpaceOnUse">
<stop stop-color="#8A01D7"/>
<stop offset="1" stop-color="#407BFF"/>
</linearGradient>
<linearGradient id="paint73_linear_222_504" x1="164.573" y1="239.427" x2="164.573" y2="240.754" gradientUnits="userSpaceOnUse">
<stop stop-color="#8A01D7"/>
<stop offset="1" stop-color="#407BFF"/>
</linearGradient>
<linearGradient id="paint74_linear_222_504" x1="164.321" y1="237.854" x2="164.321" y2="239.8" gradientUnits="userSpaceOnUse">
<stop stop-color="#8A01D7"/>
<stop offset="1" stop-color="#407BFF"/>
</linearGradient>
<linearGradient id="paint75_linear_222_504" x1="197.461" y1="98.0344" x2="197.461" y2="151.694" gradientUnits="userSpaceOnUse">
<stop stop-color="#8A01D7"/>
<stop offset="1" stop-color="#407BFF"/>
</linearGradient>
<linearGradient id="paint76_linear_222_504" x1="165.817" y1="107.262" x2="183.355" y2="107.262" gradientUnits="userSpaceOnUse">
<stop stop-color="#F4B070"/>
<stop offset="1" stop-color="#E9747F"/>
</linearGradient>
<linearGradient id="paint77_linear_222_504" x1="208.03" y1="97.1852" x2="226.502" y2="97.1852" gradientUnits="userSpaceOnUse">
<stop stop-color="#F4B070"/>
<stop offset="1" stop-color="#E9747F"/>
</linearGradient>
<linearGradient id="paint78_linear_222_504" x1="246.492" y1="240.928" x2="246.492" y2="242.348" gradientUnits="userSpaceOnUse">
<stop stop-color="#8A01D7"/>
<stop offset="1" stop-color="#407BFF"/>
</linearGradient>
<linearGradient id="paint79_linear_222_504" x1="245.934" y1="239.616" x2="245.934" y2="242.163" gradientUnits="userSpaceOnUse">
<stop stop-color="#8A01D7"/>
<stop offset="1" stop-color="#407BFF"/>
</linearGradient>
<linearGradient id="paint80_linear_222_504" x1="178.083" y1="95.3226" x2="214.573" y2="95.3226" gradientUnits="userSpaceOnUse">
<stop stop-color="#F4B070"/>
<stop offset="1" stop-color="#E9747F"/>
</linearGradient>
</defs>
</svg>
