<svg width="380" height="263" viewBox="0 0 380 263" fill="none" xmlns="http://www.w3.org/2000/svg">
<path opacity="0.1" d="M214.772 89.2209C214.772 89.2209 225.916 41.9511 263.509 36.7552C263.509 36.7552 270.824 35.8569 273.26 43.9163C275.696 51.9774 261.152 52.0353 252.163 55.2776C243.173 58.5183 222.215 72.2633 214.772 89.2209Z" fill="#D2E0FF"/>
<path opacity="0.1" d="M213.917 80.374C213.917 80.374 210.009 41.2199 237.444 27.3244C237.444 27.3244 242.811 24.7074 246.799 30.2408C250.788 35.7742 239.66 39.6534 233.627 44.5086C227.594 49.3621 215.155 65.4198 213.917 80.374Z" fill="#D2E0FF"/>
<g opacity="0.8">
<path opacity="0.1" d="M129.38 116.916C129.38 116.916 145.504 107.879 137.98 95.6145C137.98 95.6145 131.96 88.0844 125.51 86.1473C125.51 86.1473 128.95 104.437 125.51 104.867C122.07 105.297 123.145 84.2118 123.145 84.2118C123.145 84.2118 106.161 76.0366 99.4958 76.6818C99.4958 76.6818 110.03 94.5392 106.59 94.1091C103.151 93.679 91.3252 75.6049 91.3252 75.6049C91.3252 75.6049 73.9113 72.3774 71.1161 82.7048C68.321 93.0322 72.8369 98.1968 75.4155 98.8419C77.9958 99.4871 94.5502 99.272 94.1204 101.424C93.6906 103.576 82.51 107.019 76.2767 105.082C76.2767 105.082 83.1563 122.079 92.1864 121.219C101.217 120.359 104.012 114.764 109.6 114.334C115.191 113.904 119.275 115.409 116.48 116.916C113.685 118.421 104.225 117.409 99.7107 121.25C95.1965 125.091 91.5401 127.459 99.9256 129.179C108.311 130.901 123.36 129.824 126.37 123.369C129.38 116.916 129.38 116.916 129.38 116.916Z" fill="#AEC3FF"/>
<path opacity="0.2" d="M79.0702 85.9339C79.0702 85.9339 124.219 100.566 129.38 116.918C129.38 116.918 129.165 124.233 133.679 132.625V135.852C133.679 135.852 128.95 124.88 126.37 123.373C126.37 123.371 136.474 109.171 79.0702 85.9339Z" fill="#AEC3FF"/>
<path d="M133.679 132.623C133.679 132.623 140.641 143.205 136.673 156.085L134.881 155.604C134.881 155.604 136.62 141.417 132.977 134.282C129.335 127.146 133.679 132.623 133.679 132.623Z" fill="#AEC3FF"/>
</g>
<g opacity="0.5">
<path opacity="0.1" d="M138.337 189.876C138.337 189.876 148.899 158.206 123.965 150.977C123.965 150.977 106.785 148.239 95.8213 153.495C95.8213 153.495 122.614 173.734 118.543 178.492C114.472 183.248 90.3119 153.784 90.3119 153.784C90.3119 153.784 57.7073 163.514 49.5896 172.479C49.5896 172.479 85.3349 183.519 80.219 187.125C75.103 190.731 37.3759 180.975 37.3759 180.975C37.3759 180.975 10.2028 197.836 19.0082 215.025C27.8118 232.215 40.1099 233.621 44.3381 231.346C48.5664 229.072 70.4119 208.658 72.45 212.054C74.4881 215.451 63.7373 233.639 53.0608 238.633C53.0608 238.633 82.8802 252.967 93.8939 240.84C104.908 228.713 101.85 217.844 108.79 210.475C115.733 203.105 123.016 200.149 121.112 205.558C119.207 210.968 105.346 221.116 103.98 231.733C102.613 242.352 100.607 249.956 113.893 242.061C127.18 234.165 145.97 214.433 142.154 202.154C138.337 189.876 138.337 189.876 138.337 189.876Z" fill="#D2E0FF"/>
<path opacity="0.2" d="M33.5476 209.664C33.5476 209.664 111.597 174.313 138.337 189.876C138.337 189.876 147.427 201.029 142.152 202.156C142.152 202.156 138.408 170.907 33.5476 209.664Z" fill="#D2E0FF"/>
</g>
<path opacity="0.1" d="M253.762 193.261C253.762 193.261 256.874 174.32 271.491 177.334C271.491 177.334 280.961 180.551 285.13 186.166C285.13 186.166 266.081 189.271 266.878 192.783C267.675 196.295 287.854 187.792 287.854 187.792C287.854 187.792 301.83 201.489 303.555 208.225C303.555 208.225 282.419 204.25 284.054 207.457C285.689 210.665 307.491 215.825 307.491 215.825C307.491 215.825 316.794 231.69 307.711 238.071C298.628 244.451 291.998 241.867 290.456 239.576C288.915 237.285 283.272 221.042 281.326 222.223C279.381 223.404 279.976 235.538 284.067 240.942C284.067 240.942 265.061 240.231 262.709 231.11C260.357 221.987 264.823 217.28 263.268 211.669C261.712 206.058 258.8 202.601 258.319 205.863C257.838 209.125 262.169 218.005 260.02 223.771C257.871 229.538 256.854 233.943 252.213 226.364C247.571 218.784 243.3 203.707 248.53 198.485C253.762 193.261 253.762 193.261 253.762 193.261Z" fill="#BBD0FF"/>
<path opacity="0.2" d="M301.755 231.439C301.755 231.439 271.531 192.52 253.763 193.261C253.763 193.261 246.707 196.056 236.928 194.614L233.781 195.755C233.781 195.755 246.151 196.496 248.532 198.483C248.532 198.482 258.807 183.593 301.755 231.439Z" fill="#BBD0FF"/>
<path d="M236.928 194.612C236.928 194.612 224.149 191.552 212.993 199.982L214.096 201.562C214.096 201.562 227.314 194.849 235.559 195.884C243.804 196.92 236.928 194.612 236.928 194.612Z" fill="#BBD0FF"/>
<path opacity="0.1" d="M248.08 114.815C248.08 114.815 228.371 103.768 237.568 88.7775C237.568 88.7775 244.927 79.5717 252.81 77.2045C252.81 77.2045 248.604 99.5599 252.81 100.086C257.015 100.612 255.701 74.8373 255.701 74.8373C255.701 74.8373 276.462 64.8424 284.609 65.6315C284.609 65.6315 271.731 87.4608 275.936 86.9347C280.141 86.4087 294.595 64.3164 294.595 64.3164C294.595 64.3164 315.882 60.371 319.298 72.9961C322.715 85.6213 317.196 91.9322 314.042 92.7212C310.888 93.5103 290.652 93.2473 291.178 95.8775C291.704 98.5078 305.369 102.716 312.991 100.349C312.991 100.349 304.58 121.126 293.543 120.074C282.505 119.022 279.09 112.183 272.257 111.657C265.423 111.131 260.43 112.972 263.846 114.814C267.263 116.655 278.826 115.417 284.345 120.112C289.864 124.807 294.332 127.7 284.082 129.804C273.832 131.908 255.436 130.593 251.757 122.703C248.08 114.815 248.08 114.815 248.08 114.815Z" fill="#D2E0FF"/>
<path opacity="0.2" d="M309.577 76.9415C309.577 76.9415 254.388 94.8254 248.08 114.815C248.08 114.815 248.343 123.758 242.824 134.014V137.96C242.824 137.96 248.606 124.547 251.76 122.706C251.76 122.706 239.409 105.346 309.577 76.9415Z" fill="#D2E0FF"/>
<path d="M242.826 134.014C242.826 134.014 234.315 146.949 239.168 162.694L241.358 162.105C241.358 162.105 239.232 144.764 243.685 136.041C248.137 127.32 242.826 134.014 242.826 134.014Z" fill="#D2E0FF"/>
<path d="M263.197 60.1163H115.87V261.744H263.197V60.1163Z" fill="#4456A6"/>
<path d="M256.921 65.557H122.148V256.188H256.921V65.557Z" fill="#43ABDA"/>
<path d="M161.593 60.1163V66.9847C161.593 70.7778 164.662 73.853 168.449 73.853H205.279C209.066 73.853 212.135 70.7778 212.135 66.9847V60.1163H161.593Z" fill="#4456A6"/>
<path d="M154.467 229.206H137.792V230.895H154.467V229.206Z" fill="#AEC3FF"/>
<path d="M175.003 229.206H158.328V230.895H175.003V229.206Z" fill="#AEC3FF"/>
<path d="M160.917 232.952H137.792V234.641H160.917V232.952Z" fill="#AEC3FF"/>
<path d="M157.156 88.589H163.26C164.958 88.589 166.274 89.0654 167.151 89.9438C167.895 90.6882 168.295 91.7386 168.295 93.0355C168.295 95.1927 167.132 96.5475 165.434 97.1777L168.695 101.95H165.262L162.363 97.674H160.093V101.95H157.156V88.589ZM163.07 95.0785C164.5 95.0785 165.322 94.3143 165.322 93.1497C165.322 91.8892 164.444 91.2407 163.014 91.2407H160.097V95.0769H163.07V95.0785Z" fill="white"/>
<path d="M170.738 96.2249V88.589H173.676V96.1488C173.676 98.3258 174.763 99.4507 176.555 99.4507C178.349 99.4507 179.435 98.3622 179.435 96.2431V88.589H182.372V96.129C182.372 100.175 180.102 102.16 176.516 102.16C172.932 102.16 170.738 100.157 170.738 96.2249Z" fill="white"/>
<path d="M185.369 88.589H188.306V99.2786H194.963V101.952H185.369V88.589Z" fill="white"/>
<path d="M197.176 88.589H207.247V91.2043H200.095V93.9156H206.389V96.5309H200.095V99.3365H207.343V101.952H197.178V88.589H197.176Z" fill="white"/>
<path d="M209.041 100.003L210.776 97.9222C211.978 98.9147 213.238 99.545 214.763 99.545C215.965 99.545 216.691 99.0669 216.691 98.2464C216.691 97.502 216.233 97.1199 214.001 96.5475C211.312 95.861 209.576 95.1166 209.576 92.4235C209.576 90 211.522 88.3954 214.249 88.3954C216.195 88.3954 217.854 89.0058 219.208 90.0943L217.682 92.3093C216.501 91.4888 215.337 90.9926 214.211 90.9926C213.086 90.9926 212.494 91.5087 212.494 92.1952C212.494 93.0736 213.066 93.3598 215.373 93.952C218.081 94.6584 219.608 95.6311 219.608 97.9983C219.608 100.652 217.587 102.14 214.706 102.14C212.684 102.142 210.643 101.436 209.041 100.003Z" fill="white"/>
<path d="M224.585 105.102H152.179V106.036H224.585V105.102Z" fill="#8C9DF4"/>
<path d="M243.439 136.396H219.064V112.003H243.439V136.396ZM220.212 135.247H242.29V113.151H220.212V135.247Z" fill="#AFCDFB"/>
<path d="M231.857 131.493C231.346 131.493 230.858 131.265 230.529 130.868L223.008 121.761C222.402 121.027 222.506 119.942 223.238 119.335C223.97 118.728 225.056 118.832 225.663 119.565L231.629 126.787L242.419 108.661C242.907 107.844 243.963 107.576 244.779 108.063C245.596 108.551 245.864 109.608 245.378 110.425L233.336 130.651C233.05 131.133 232.548 131.444 231.989 131.487C231.944 131.492 231.901 131.493 231.857 131.493Z" fill="#FECB09"/>
<path d="M200.254 115.603H146.104V117.983H200.254V115.603Z" fill="#AEC3FF"/>
<path d="M196.009 126.233H146.104V128.613H196.009V126.233Z" fill="#AEC3FF"/>
<path d="M200.254 120.918H185.493V123.298H200.254V120.918Z" fill="#AEC3FF"/>
<path d="M181.403 120.918H146.104V123.298H181.403V120.918Z" fill="#AEC3FF"/>
<path d="M133.982 117.73L131.558 118.403L131.059 116.479L134.674 115.325H136.327V128.889H133.982V117.73Z" fill="#AEC3FF"/>
<path d="M137.876 128.034C137.876 127.561 138.259 127.177 138.732 127.177C139.205 127.177 139.588 127.561 139.588 128.034C139.588 128.507 139.205 128.891 138.732 128.891C138.259 128.891 137.876 128.507 137.876 128.034Z" fill="#AEC3FF"/>
<path d="M243.627 172.836H219.253V148.443H243.627V172.836ZM220.4 171.688H242.479V149.592H220.4V171.688Z" fill="#AFCDFB"/>
<path d="M232.045 167.933C231.534 167.933 231.047 167.704 230.718 167.307L223.197 158.201C222.59 157.466 222.694 156.381 223.427 155.774C224.159 155.167 225.245 155.271 225.851 156.004L231.817 163.226L242.607 145.101C243.095 144.284 244.151 144.016 244.968 144.502C245.784 144.99 246.052 146.047 245.566 146.864L233.524 167.091C233.239 167.572 232.736 167.883 232.177 167.926C232.133 167.931 232.09 167.933 232.045 167.933Z" fill="#FECB09"/>
<path d="M130.955 163.478L135.557 159.561C137.39 158.012 138.058 157.154 138.058 155.949C138.058 154.631 137.122 153.867 135.901 153.867C134.679 153.867 133.839 154.535 132.808 155.873L131.147 154.575C132.426 152.778 133.686 151.766 136.073 151.766C138.688 151.766 140.483 153.371 140.483 155.797C140.483 157.9 139.357 159.026 137.008 160.975L134.259 163.268H140.617V165.331H130.957V163.478H130.955Z" fill="#AEC3FF"/>
<path d="M142.205 164.48C142.205 164.011 142.585 163.63 143.055 163.63C143.524 163.63 143.904 164.011 143.904 164.48C143.904 164.95 143.524 165.331 143.055 165.331C142.585 165.331 142.205 164.95 142.205 164.48Z" fill="#AEC3FF"/>
<path d="M203.454 152.042H146.552V154.423H203.454V152.042Z" fill="#AEC3FF"/>
<path d="M198.993 162.674H146.552V165.054H198.993V162.674Z" fill="#AEC3FF"/>
<path d="M203.454 157.359H187.942V159.739H203.454V157.359Z" fill="#AEC3FF"/>
<path d="M183.645 157.359H146.552V159.739H183.645V157.359Z" fill="#AEC3FF"/>
<path d="M243.627 209.545H219.253V185.152H243.627V209.545ZM220.4 208.397H242.479V186.301H220.4V208.397Z" fill="#AFCDFB"/>
<path d="M232.045 204.642C231.534 204.642 231.047 204.414 230.718 204.017L223.197 194.91C222.59 194.177 222.694 193.09 223.427 192.483C224.159 191.876 225.245 191.98 225.851 192.713L231.817 199.936L242.608 181.81C243.095 180.993 244.151 180.725 244.968 181.211C245.785 181.698 246.052 182.756 245.566 183.574L233.525 203.8C233.239 204.281 232.736 204.594 232.177 204.637C232.133 204.64 232.09 204.642 232.045 204.642Z" fill="#FECB09"/>
<path d="M203.454 188.753H146.552V191.133H203.454V188.753Z" fill="#AEC3FF"/>
<path d="M198.993 199.381H146.552V201.762H198.993V199.381Z" fill="#AEC3FF"/>
<path d="M203.454 194.066H187.942V196.447H203.454V194.066Z" fill="#AEC3FF"/>
<path d="M183.645 194.066H146.552V196.447H183.645V194.066Z" fill="#AEC3FF"/>
<path d="M130.785 199.613L132.391 198.118C133.325 199.221 134.372 199.838 135.83 199.838C137.119 199.838 138.091 199.052 138.091 197.818C138.091 196.528 136.914 195.798 135.082 195.798H134.018L133.644 194.359L137.175 190.601H131.514V188.601H140.164V190.321L136.52 194.061C138.593 194.361 140.369 195.426 140.369 197.782C140.369 200.194 138.501 201.914 135.792 201.914C133.514 201.912 131.887 200.96 130.785 199.613Z" fill="#AEC3FF"/>
<path d="M141.028 201.08C141.028 200.62 141.4 200.248 141.86 200.248C142.319 200.248 142.691 200.62 142.691 201.08C142.691 201.54 142.319 201.912 141.86 201.912C141.4 201.912 141.028 201.54 141.028 201.08Z" fill="#AEC3FF"/>
<path d="M199.454 234.598C194.564 234.598 190.305 231.125 189.326 226.337C189.248 225.953 189.495 225.58 189.878 225.502C190.26 225.424 190.635 225.671 190.713 226.054C191.557 230.185 195.234 233.182 199.454 233.182C203.632 233.182 207.3 230.22 208.176 226.139C208.259 225.757 208.636 225.513 209.018 225.594C209.4 225.677 209.644 226.053 209.562 226.436C208.547 231.166 204.295 234.598 199.454 234.598Z" fill="#AEC3FF"/>
<path d="M190 223.118C189.956 223.118 189.911 223.115 189.865 223.105C189.481 223.03 189.23 222.658 189.304 222.274C190.242 217.426 194.511 213.906 199.454 213.906C204.203 213.906 208.327 217.121 209.481 221.725C209.576 222.104 209.345 222.489 208.966 222.585C208.588 222.68 208.203 222.45 208.107 222.071C207.11 218.097 203.551 215.323 199.454 215.323C195.187 215.323 191.505 218.36 190.695 222.544C190.629 222.883 190.333 223.118 190 223.118Z" fill="#AEC3FF"/>
<path d="M199.454 238.961C191.351 238.961 184.757 232.364 184.757 224.253C184.757 216.144 191.349 209.545 199.454 209.545C207.558 209.545 214.15 216.142 214.15 224.253C214.15 232.362 207.558 238.961 199.454 238.961ZM199.454 211.56C192.46 211.56 186.771 217.254 186.771 224.253C186.771 231.252 192.46 236.946 199.454 236.946C206.447 236.946 212.137 231.252 212.137 224.253C212.137 217.254 206.447 211.56 199.454 211.56Z" fill="#AEC3FF"/>
<path d="M202.363 222.41H196.543V223.343H202.363V222.41Z" fill="#AEC3FF"/>
<path d="M202.363 226.226H196.543V227.159H202.363V226.226Z" fill="#AEC3FF"/>
<path d="M203.738 224.253H195.171V225.186H203.738V224.253Z" fill="#AEC3FF"/>
<path d="M104.111 161.006C104.111 161.006 104.569 159.976 104.865 159.488C105.161 159 106.428 157.571 106.643 157.895C106.858 158.219 107.721 160.398 107.263 161.006C106.805 161.617 107.293 162.677 105.015 163.321L104.111 161.006Z" fill="#FFB27D"/>
<path d="M78.7892 154.502C78.7892 154.502 90.4525 164.245 95.0014 163.344C98.5569 162.639 104.015 160.765 104.015 160.765L105.106 163.559C105.106 163.559 100.212 170.204 95.1088 170.247C87.1317 170.315 81.2388 166.791 81.2388 166.791L78.7892 154.502Z" fill="#6980E2"/>
<path d="M58.3337 257.275C58.3337 257.275 58.6726 262.74 59.7288 262.82C59.8693 262.83 65.0877 262.83 65.0877 262.83L71.7508 262.792C71.7508 262.792 71.7078 261.185 69.759 260.846C67.8118 260.507 64.5522 259.137 63.372 256.562C62.1322 253.85 58.3337 257.275 58.3337 257.275Z" fill="#1C4B8E"/>
<path d="M57.9503 257.655C57.9503 257.655 59.9752 258.333 61.557 258.333C63.3207 258.333 64.9241 257.852 64.9241 257.852C64.9241 257.852 65.3059 254.161 67.4036 246.031C68.5044 241.77 70.0747 236.289 72.3095 229.48C78.49 210.662 80.3677 199.653 80.5396 198.611C80.5496 198.556 80.5529 198.528 80.5529 198.528L80.533 198.52L61.5339 190.171C61.5339 190.171 63.8828 216.106 60.8859 226.061C60.4661 227.452 60.1074 229.073 59.7983 230.83C57.9073 241.644 57.9503 257.655 57.9503 257.655Z" fill="#34349A"/>
<path d="M67.4036 246.031C68.5044 241.77 70.0747 236.289 72.3095 229.48C78.49 210.662 80.3677 199.653 80.5396 198.611C80.538 198.579 80.5363 198.551 80.533 198.52L61.5339 190.171C61.5339 190.171 63.8827 216.106 60.8859 226.061C60.4661 227.454 67.4036 246.031 67.4036 246.031Z" fill="#17166F"/>
<path d="M73.174 257.275C73.174 257.275 73.5129 262.74 74.5691 262.82C74.7096 262.83 79.928 262.83 79.928 262.83L86.5911 262.792C86.5911 262.792 86.5482 261.185 84.601 260.846C82.6538 260.507 79.3941 259.137 78.2139 256.562C76.9725 253.85 73.174 257.275 73.174 257.275Z" fill="#1C4B8E"/>
<path d="M83.9447 190.783C83.9447 190.783 84.191 207.59 81.2851 228.225C78.3792 248.86 79.3644 257.62 79.3644 257.62C79.3644 257.62 77.3676 258.267 76.5626 258.333C74.5096 258.5 72.4054 257.852 72.4054 257.852C72.4054 257.852 68.2466 237.209 69.4383 226.88C70.6301 216.551 63.7439 191.438 63.7439 191.438L83.9447 190.783Z" fill="#34349A"/>
<path d="M70.4731 151.452L74.1824 153.885L77.561 152.929C78.1792 152.047 78.3412 150.348 78.3511 148.876C78.3594 147.415 78.2189 146.176 78.2189 146.176L73.2154 143.966L71.3492 143.142C71.3541 143.172 71.4946 144.676 71.5145 144.896C71.8616 148.8 70.4731 151.452 70.4731 151.452Z" fill="#FFB27D"/>
<path d="M84.0307 195.454C79.414 199.914 61.9455 199.165 60.8678 194.25C59.7933 189.335 62.0414 152.416 69.9276 150.097C71.5641 149.615 80.3115 152.446 80.3115 152.446C80.3115 152.446 81.6835 156.039 82.5844 160.614C82.7596 161.504 83.2687 170.94 83.6505 179.765C83.829 183.893 83.9795 187.889 84.0555 190.816C84.1266 193.557 84.1299 195.357 84.0307 195.454Z" fill="#8C9DF4"/>
<path d="M71.8864 144.967C72.9013 146.684 76.4634 148.188 78.3494 148.876C78.3577 147.415 78.2172 146.176 78.2172 146.176L73.2137 143.966C72.1079 143.953 71.4335 144.201 71.8864 144.967Z" fill="#FCA56B"/>
<path d="M80.1049 145.873C80.1049 145.873 72.0434 148.39 70.5541 143.342C69.0648 138.294 67.0217 135.219 72.1062 133.399C77.1907 131.579 78.7627 133.209 79.6702 134.772C80.576 136.335 82.1628 145.088 80.1049 145.873Z" fill="#FFB27D"/>
<path d="M79.3528 134.284C79.3528 134.284 78.8387 140.158 77.6238 139.903C76.4105 139.649 75.0733 139.103 75.2518 140.874C75.4303 142.646 74.0716 145.682 72.3211 145.673C68.5672 145.658 64.4877 136.016 65.5159 134.188C68.4813 128.913 83.6389 127.849 79.3528 134.284Z" fill="#163560"/>
<path d="M78.1676 150.224C78.0635 150.181 72.1657 147.533 71.4764 147.761C70.7872 147.989 69.9276 150.097 69.9276 150.097L80.3115 152.446C80.3115 152.447 79.4933 150.783 78.1676 150.224Z" fill="#6980E2"/>
<path d="M114.883 178.818L81.824 209.967C81.176 210.577 80.3595 210.772 80.0074 210.399L78.8916 209.213C78.5412 208.84 78.7842 208.035 79.4322 207.424L112.491 176.273C113.139 175.663 113.956 175.468 114.308 175.842L115.424 177.028C115.776 177.402 115.531 178.207 114.883 178.818Z" fill="#1F4D84"/>
<path d="M96.332 196.298L81.824 209.967C81.176 210.577 80.3595 210.772 80.0074 210.399L78.8916 209.213C78.5412 208.84 78.7842 208.035 79.4322 207.424L93.9402 193.755L96.332 196.298Z" fill="#739AF0"/>
<path d="M107.285 167.056C108.554 171.241 110.905 175.162 114.316 178.376C124.74 188.189 141.139 187.688 150.944 177.258C160.621 166.963 160.26 150.848 150.232 140.995C150.1 140.863 149.962 140.732 149.825 140.603C139.403 130.79 123.006 131.288 113.2 141.72C106.605 148.735 104.671 158.457 107.285 167.056ZM114.691 143.122C120.397 137.051 128.528 134.633 136.163 135.956C140.613 136.727 144.893 138.767 148.427 142.094C158.027 151.132 158.487 166.247 149.455 175.855C146.129 179.392 141.984 181.688 137.592 182.728C130.049 184.515 121.786 182.598 115.72 176.885C106.119 167.847 105.658 152.732 114.691 143.122Z" fill="#1F4D84"/>
<g opacity="0.5">
<path d="M149.455 175.855C146.129 179.392 141.984 181.688 137.59 182.73C130.049 184.515 121.784 182.598 115.718 176.885C106.118 167.847 105.658 152.732 114.69 143.122C120.396 137.051 128.527 134.633 136.162 135.956C140.612 136.727 144.891 138.767 148.425 142.094C158.026 151.132 158.487 166.247 149.455 175.855Z" fill="#B3CFF9"/>
</g>
<path d="M84.0555 190.816C65.8399 177.825 67.354 160.49 67.354 160.49C74.0121 164.249 80.619 172.558 83.6505 179.765C83.829 183.894 83.9795 187.891 84.0555 190.816Z" fill="#6980E2"/>
<path d="M102.035 184.9C103.319 184.604 104.182 183.631 104.36 183.461C104.36 183.461 104.909 183.499 104.271 184.669C104.218 184.766 104.099 185.018 104.01 185.196C103.974 185.269 104.025 185.353 104.106 185.36C104.846 185.416 105.592 185.124 107.02 185.421C107.217 185.463 107.275 185.934 107.266 186.136C107.253 186.477 107.278 186.859 106.883 187.382C106.653 187.686 106.01 188.012 104.58 188.588C104.035 188.808 102.478 188.642 101.018 188.139L99.8512 187.598L100.213 185.43L100.506 185.491C100.974 185.588 101.55 185.019 102.035 184.9Z" fill="#FFB27D"/>
<path d="M73.0071 152.447C73.0071 152.447 56.6395 155.566 77.8222 179.287C81.2108 183.081 99.514 188.02 99.514 188.02C99.514 188.02 101.37 186.439 100.435 185.16C100.435 185.16 87.8325 176 85.0588 174.545C83.8109 173.89 80.2173 159.926 78.1842 156.563C76.151 153.2 73.0071 152.447 73.0071 152.447Z" fill="#8C9DF4"/>
<path d="M104.554 161.294C104.554 161.294 105.089 160.27 105.194 159.729C105.298 159.19 105.972 157.614 106.25 157.337C106.361 157.227 106.728 157.37 106.77 157.847C106.789 158.055 106.688 158.432 106.508 158.882C106.215 159.615 106.263 160.609 106.161 160.94C105.908 161.767 104.554 161.294 104.554 161.294Z" fill="#FFB27D"/>
<path d="M158.612 255.094C158.612 255.372 158.629 255.649 158.664 255.918C158.768 256.782 159.035 257.594 159.432 258.327C159.743 258.898 160.135 259.417 160.589 259.873C161.812 261.096 163.498 261.852 165.365 261.852H260.332C264.061 261.852 267.086 258.826 267.086 255.094C267.086 253.227 266.331 251.538 265.108 250.315C263.886 249.091 262.198 248.335 260.332 248.335H165.365C161.636 248.335 158.612 251.361 158.612 255.094Z" fill="#2B478B"/>
<path d="M165.857 247.113H198.419C198.989 247.113 199.455 246.646 199.455 246.076C199.455 245.505 198.989 245.038 198.419 245.038H165.857C165.287 245.038 164.821 245.505 164.821 246.076C164.821 246.645 165.287 247.113 165.857 247.113Z" fill="#2B478B"/>
<path d="M167.655 248.335H171.184V247.111H167.655V248.335Z" fill="#233862"/>
<path d="M159.432 258.327C159.743 258.897 160.135 259.417 160.589 259.873C161.812 261.096 163.498 261.852 165.365 261.852H185.481V258.327H159.432Z" fill="#233862"/>
<path d="M279.657 253.114V257.073C279.657 257.506 279.599 257.928 279.49 258.327C278.941 260.358 277.087 261.852 274.883 261.852H175.958C173.755 261.852 171.9 260.358 171.352 258.327C171.244 257.928 171.185 257.506 171.185 257.073V253.114C171.185 250.474 173.32 248.335 175.958 248.335H274.883C277.521 248.335 279.657 250.474 279.657 253.114Z" fill="#FECB09"/>
<path d="M279.49 258.327C278.941 260.358 277.087 261.852 274.883 261.852H175.958C173.755 261.852 171.9 260.358 171.352 258.327H279.49Z" fill="#F2A82E"/>
<path d="M269.832 255.118C269.832 257.217 270.594 259.093 271.795 260.335C271.824 260.363 271.848 260.39 271.876 260.418C272.805 261.344 273.984 261.898 275.265 261.898C277.268 261.898 282.231 258.874 285.307 256.866C286.839 255.865 287.904 255.116 287.904 255.116C287.904 255.116 286.839 254.367 285.307 253.366C282.231 251.356 277.267 248.332 275.265 248.332C274.685 248.332 274.128 248.446 273.602 248.654C272.719 249.01 271.933 249.639 271.313 250.463C270.629 251.367 270.143 252.506 269.938 253.769C269.936 253.784 269.933 253.799 269.933 253.814C269.866 254.236 269.832 254.671 269.832 255.118Z" fill="#8C9DF4"/>
<path d="M269.832 255.118C269.832 257.217 270.594 259.093 271.795 260.335L287.021 255.093L269.931 253.816C269.866 254.236 269.832 254.671 269.832 255.118Z" fill="#6980E2"/>
<path d="M271.313 250.466L286.502 254.616L273.602 248.656C272.72 249.012 271.934 249.642 271.313 250.466Z" fill="#9FB1FF"/>
<path d="M284.317 255.118C284.317 255.925 284.73 256.613 285.308 256.868C286.841 255.867 287.905 255.118 287.905 255.118C287.905 255.118 286.841 254.368 285.308 253.367C284.73 253.62 284.317 254.309 284.317 255.118Z" fill="#FECB09"/>
<path d="M311.255 131.563C308.739 130.258 306.724 131.078 306.724 131.078C299.026 130.173 296.782 139.157 296.886 142.247C296.988 145.338 297.342 148.658 293.906 152.674C283.976 164.274 304.772 164.785 304.772 164.785C304.947 155.518 316.049 158.899 315.563 159.837C329.791 163.256 316.976 134.534 311.255 131.563Z" fill="#163560"/>
<path d="M281.565 168.345C281.565 168.345 280.211 166.282 279.12 166.242C278.029 166.202 276.009 165.635 276.171 166.04C276.333 166.444 277.586 166.485 277.706 166.728C277.827 166.972 275.849 167.336 275.282 167.375C274.716 167.415 273.382 167.375 273.424 167.658C273.463 167.941 275.827 169.114 277.493 168.952C279.161 168.79 281.221 169.436 281.221 169.436L281.565 168.345Z" fill="#FFB27D"/>
<path d="M301.141 169.011C301.141 169.011 300.405 170.469 299.069 172.144C297.461 174.161 294.982 176.49 291.867 176.95C290.38 177.17 288.925 176.849 287.588 176.255C287.585 176.254 287.583 176.254 287.583 176.254C283.801 174.573 280.958 170.71 280.958 170.71C280.292 168.891 281.383 167.656 281.383 167.656C281.383 167.656 289.019 169.375 289.747 169.011C290.474 168.647 294.945 158.72 295.75 157.066C297.463 153.551 300.178 152.543 300.178 152.543L301.141 169.011Z" fill="#181770"/>
<path d="M299.069 172.146C297.461 174.163 294.982 176.492 291.867 176.952C290.38 177.172 288.925 176.851 287.588 176.257C287.737 176.277 291.514 176.743 293.018 174.048C294.553 171.299 296.215 166.932 298.496 168.388C299.481 169.013 299.436 170.575 299.069 172.146Z" fill="#32359A"/>
<path d="M329.631 251.508C329.631 251.508 331.962 253.637 331.507 255.149C331.052 256.661 328.95 257.67 328.666 259.518C328.381 261.366 327.244 262.375 326.223 262.375C325.199 262.375 321.345 262.375 321.345 262.375C321.345 262.375 320.591 261.074 322.411 260.682C324.229 260.29 324.915 258.118 324.801 256.102C324.687 254.085 324.971 251.397 324.971 251.397L328.836 250.501L329.631 251.508Z" fill="#1C4B8E"/>
<path d="M309.908 252.411C309.908 252.411 310.746 261.427 309.723 261.931L296.631 261.905C296.631 261.905 296.631 260.393 298.734 260.057C300.836 259.721 304.531 258.489 305.156 255.745C305.78 252.998 309.908 252.411 309.908 252.411Z" fill="#1C4B8E"/>
<path d="M319.979 162.93C319.979 162.93 320.174 165.683 319.979 168.986C319.849 171.177 317.637 174.11 317.323 174.834C316.535 176.654 315.647 176.95 315.647 176.95L308.772 178.636L306.356 179.228L298.734 176.95C298.734 176.95 295.263 167.253 296.656 161.794C298.049 156.335 300.18 152.543 300.18 152.543C300.18 152.543 305.347 150.502 314.498 152.027L319.979 162.93Z" fill="#181770"/>
<path d="M317.968 169.88C317.837 172.07 317.637 174.108 317.323 174.834C316.535 176.654 315.647 176.95 315.647 176.95L308.772 178.636L305.787 177.757C305.787 177.757 315.753 176.245 314.649 167.665L317.968 169.88Z" fill="#F2CCAA"/>
<path d="M299.218 178.422C299.218 178.422 295.443 190.181 295.201 194.184C294.958 198.187 302.417 251.051 302.717 252.896C303 254.635 305.157 255.743 305.157 255.743C305.157 255.743 306.149 256.328 307.566 255.928C309.531 255.372 310.151 254.707 310.151 254.707C310.151 254.707 313.088 217.004 311.27 203.537C309.452 190.068 309.43 178.422 309.43 178.422H299.218Z" fill="url(#paint0_linear_182_3420)"/>
<path d="M315.209 178.072C315.209 178.072 320.966 185.803 321.503 191.029C322.041 196.255 322.345 214.614 323.489 219.709C324.632 224.804 328.834 234.608 328.834 250.499C328.834 250.499 328.398 251.41 327.049 251.895C326.618 252.051 326.041 252.201 325.479 252.33C324.366 252.585 323.226 252.041 322.718 251.018C319.878 245.295 310.83 226.835 310.366 223.002C310.037 220.291 307.18 202.342 300.949 191.812C299.453 189.284 301.866 179.228 301.866 179.228L315.209 178.072Z" fill="url(#paint1_linear_182_3420)"/>
<path d="M298.615 176.608C298.615 176.608 300.131 177.807 303.141 177.868C306.736 177.941 315.645 176.95 315.645 176.95C315.645 176.95 316.04 178.057 316.025 179.226C316.025 179.226 305.144 181.972 298.84 179.626C298.838 179.626 298.025 178.096 298.615 176.608Z" fill="#233862"/>
<path d="M302.278 180.968C301.374 180.968 300.636 180.134 300.636 179.11C300.636 178.085 301.372 177.253 302.278 177.253C303.182 177.253 303.919 178.086 303.919 179.11C303.917 180.134 303.182 180.968 302.278 180.968ZM302.278 177.795C301.673 177.795 301.18 178.384 301.18 179.109C301.18 179.833 301.673 180.422 302.278 180.422C302.883 180.422 303.374 179.833 303.374 179.109C303.374 178.386 302.883 177.795 302.278 177.795Z" fill="white"/>
<path d="M326.203 179.742L317.366 187.443C316.728 187.999 315.759 187.932 315.204 187.294L303.929 174.336C303.374 173.698 303.44 172.728 304.078 172.173L312.915 164.472C313.553 163.916 314.521 163.982 315.077 164.621L326.351 177.579C326.909 178.217 326.842 179.185 326.203 179.742Z" fill="#2B478B"/>
<path d="M313.131 178.77C313.005 178.803 308.437 179.34 308.437 180.285C308.437 181.377 309.776 182.841 311.038 182.771C311.549 182.743 313.906 180.574 313.906 180.574L313.131 178.77Z" fill="#FFB27D"/>
<path d="M310.786 151.528C310.267 150.265 309.962 148.345 309.971 145.966L309.625 146.034L303.822 147.184C303.822 147.184 303.954 149.012 303.957 150.732C303.957 150.747 303.957 150.76 303.957 150.775C303.964 152.27 302.947 153.771 305.344 154.363C306.086 154.548 311.876 154.176 310.786 151.528Z" fill="#FFB27D"/>
<path d="M303.823 147.185C303.823 147.185 303.956 149.013 303.959 150.734C307.205 150.643 308.923 147.678 309.625 146.034L303.823 147.185Z" fill="#E8945B"/>
<path d="M302.739 148.815C302.739 148.815 310.422 148.942 310.427 144.153C310.432 139.364 311.427 136.155 306.523 135.87C301.618 135.587 300.663 137.414 300.273 139.012C299.881 140.61 300.741 148.658 302.739 148.815Z" fill="#FFB27D"/>
<path d="M303.023 135.753C303.023 135.753 305.127 141.372 308.356 142.203C311.584 143.033 312.984 142.168 312.984 142.168C312.984 142.168 310.508 140.199 309.994 136.764C309.992 136.762 304.608 133.08 303.023 135.753Z" fill="#163560"/>
<path d="M303.544 136.209C303.544 136.209 301.984 136.793 301.342 137.931C300.714 139.045 300.18 140.519 300.304 142.328C300.304 142.328 298.719 138.509 300.501 136.348C302.389 134.057 303.544 136.209 303.544 136.209Z" fill="#163560"/>
<path d="M313.131 178.77C313.131 178.77 312.037 178.417 311.305 178.52C310.572 178.622 310.032 178.505 310.032 178.71C310.032 178.915 310.976 179.011 311.177 179.109C311.377 179.208 313.131 178.77 313.131 178.77Z" fill="#FFB27D"/>
<path d="M313.933 152.055C313.933 152.055 319.386 152.437 321.477 157.524C323.568 162.611 327.533 171.149 327.533 172.586C327.533 174.024 325.318 178.45 313.419 180.996C313.419 180.996 312.189 179.701 312.263 178.675C312.263 178.675 319.692 172.29 319.672 171.544C319.634 170.133 318.454 168.269 311.933 161.741C310.159 159.966 313.933 152.055 313.933 152.055Z" fill="#181770"/>
<path d="M129.922 0.831763C129.922 0.831763 125.546 0.0906647 122.773 2.18824C119.999 4.28581 119.554 3.60757 117.989 4.90284C116.424 6.1981 118.025 7.73985 117.163 8.60501C116.3 9.46853 116.267 11.1343 117.546 11.5661C118.827 11.9979 117.964 14.3419 120.738 14.6512C123.512 14.9589 122.269 16.2443 124.9 16.4395C127.532 16.6347 129.707 16.7257 131.094 17.3079C132.481 17.8902 133.737 17.2881 134.134 16.2327C134.53 15.1756 135.639 16.5387 135.963 15.0946C136.287 13.6504 135.132 13.0797 135.778 11.9069C136.426 10.734 138.026 2.40494 129.922 0.831763Z" fill="#233862"/>
<path d="M137.489 84.8752C137.187 85.2276 137.15 85.618 137.304 86.0332C137.304 86.0348 137.306 86.0365 137.307 86.0381C137.592 86.8074 138.519 87.6626 139.595 88.5145C139.732 88.6237 139.854 88.723 139.962 88.8156C139.99 88.8404 140.018 88.8636 140.045 88.8884C140.066 88.9066 140.088 88.9264 140.107 88.9446C141.112 89.8578 140.737 90.0712 142.544 91.9272C144.603 94.0413 146.01 94.0695 146.41 93.8726C146.747 93.7055 146.051 92.5806 145.279 91.3168C145.241 91.2556 145.205 91.1944 145.167 91.1332C145.065 90.9645 144.962 90.7941 144.86 90.6253C143.955 89.1051 144.18 88.3855 144.375 86.1126C144.534 84.2648 147.174 75.7753 147.174 75.7753L143.251 75.1268C143.251 75.1268 142.119 81.881 140.826 82.9282C140.135 83.4873 139.357 83.4989 138.692 83.9141C138.646 83.9422 138.6 83.972 138.554 84.0034C138.177 84.2598 137.792 84.5229 137.489 84.8752Z" fill="#FFB27D"/>
<path d="M137.489 84.8752C137.187 85.2276 137.15 85.618 137.304 86.0332C137.304 86.0348 137.306 86.0365 137.307 86.0381C137.654 86.8057 138.559 87.656 139.598 88.5063C139.734 88.6171 139.854 88.7196 139.96 88.8156C139.988 88.8404 140.016 88.8636 140.043 88.8884C140.064 88.9066 140.086 88.9264 140.106 88.9446C141.111 89.8578 140.735 90.0712 142.542 91.9272C144.602 94.0413 146.008 94.0694 146.408 93.8726C146.746 93.7055 146.05 92.5806 145.278 91.3168C144.879 91.1745 143.025 90.4351 141.615 88.6551C140.373 87.0919 139.537 85.0787 138.691 83.9141C138.645 83.9422 138.598 83.972 138.552 84.0034C138.177 84.2598 137.792 84.5229 137.489 84.8752Z" fill="#233862"/>
<path d="M169.061 82.2036C169.312 83.4129 171.033 83.1978 172.955 82.7131C174.877 82.2284 174.423 82.7909 177.162 82.4683C179.901 82.1457 180.724 81.1168 180.805 80.7082C180.878 80.3459 179.522 80.2285 178.068 80.0713C177.884 80.0515 177.701 80.03 177.517 80.0101C175.876 79.8166 174.667 78.7645 173.172 77.9059C171.755 77.092 169.626 73.7505 169.626 73.7505L165.869 74.0747C165.869 74.0747 167.862 77.059 168.634 78.3575C169.089 79.1218 169.072 80.1358 169.021 80.9183C168.996 81.3418 168.971 81.7768 169.061 82.2036Z" fill="#FFB27D"/>
<path d="M172.955 82.7131C174.877 82.2284 174.423 82.7909 177.162 82.4683C179.901 82.1457 180.724 81.1168 180.805 80.7082C180.878 80.3459 179.522 80.2285 178.068 80.0713L178.054 80.0994C178.054 80.0994 176.42 81.2773 174.139 81.3484C172.279 81.4063 170.307 80.8869 169.023 80.9166C168.996 81.3418 168.971 81.7768 169.061 82.2036C169.31 83.4112 171.033 83.1978 172.955 82.7131Z" fill="#233862"/>
<path d="M154.487 58.2519L151.04 67.739L146.541 80.1259C146.541 80.1259 145.296 80.2549 144.103 79.9208C143.003 79.6114 141.737 78.7893 141.737 78.7893C141.737 78.7893 142.917 65.514 145.24 57.883C145.835 55.9244 146.506 54.338 147.253 53.4431C150.905 49.0593 154.487 58.2519 154.487 58.2519Z" fill="url(#paint2_linear_182_3420)"/>
<path d="M150.807 43.2497C148.499 42.5235 141.941 43.5226 135.355 44.8626L133.958 42.593L119.705 41.5806C119.705 41.5806 115.242 51.4613 117.698 58.6754C118.174 60.0749 120.457 60.1245 120.457 60.1245C120.457 60.1245 128.808 60.2155 131.56 60.1957C138.645 60.1461 146.519 55.2164 147.541 55.0047C149.214 54.6573 149.906 58.0055 151.605 61.5125C153.305 65.0194 167.457 76.9878 167.457 76.9878C167.457 76.9878 169.619 76.9944 170.51 76.652C171.467 76.2848 171.816 75.8133 171.816 75.8133C171.816 75.8133 156.011 44.889 150.807 43.2497Z" fill="url(#paint3_linear_182_3420)"/>
<path d="M129.467 20.6098C129.49 20.6247 126.978 21.5031 125.289 20.7686C123.7 20.0788 122.482 17.48 122.505 17.4783C123.226 17.4403 124.013 16.8034 124.593 12.6628L124.9 12.7704L130.072 14.5917C130.072 14.5917 129.71 16.2509 129.479 17.8307C129.285 19.1557 129.185 20.4245 129.467 20.6098Z" fill="#FFB27D"/>
<path d="M130.072 14.5917C130.072 14.5917 129.852 15.7546 129.545 17.4171C126.578 16.9043 125.328 14.3717 124.898 12.7704L130.072 14.5917Z" fill="#ED975D"/>
<path d="M130.852 16.2294C130.852 16.2294 123.786 15.3311 124.414 10.9358C125.041 6.54053 124.551 3.4653 129.089 3.85239C133.626 4.23948 134.263 6.0426 134.41 7.55953C134.555 9.07978 132.705 16.3501 130.852 16.2294Z" fill="#FFB27D"/>
<path d="M134.134 5.15759C134.134 5.15759 129.642 9.0864 126.571 9.42221C123.5 9.75802 122.33 8.77872 122.33 8.77872C122.33 8.77872 124.132 7.26013 125.204 4.82344C125.52 4.1055 126.196 3.60923 126.976 3.53644C129.17 3.33132 133.329 3.21552 134.134 5.15759Z" fill="#233862"/>
<path d="M131.307 4.82839C131.307 4.82839 132.829 6.28081 133.312 7.36268C133.778 8.40651 133.934 10.9094 133.575 11.9069C133.575 11.9069 135.897 7.30644 134.548 5.08976C133.119 2.73744 131.307 4.82839 131.307 4.82839Z" fill="#233862"/>
<path d="M135.484 30.9752C135.372 45.2761 135.506 42.2869 133.952 43.655C133.578 43.9841 132.52 44.186 131.127 44.2885C126.748 44.6111 119.04 43.9428 118.741 43.1339C117.711 40.3366 118.419 39.4615 117.544 35.1737C117.454 34.7171 117.341 34.2242 117.209 33.6865C116.485 30.7436 115.794 29.7445 118.255 24.9902C120.487 20.6842 122.812 17.1855 123.024 17.3096C129.016 20.8133 129.477 17.829 129.477 17.829C129.477 17.829 135.54 23.9993 135.484 30.9752Z" fill="#181770"/>
<path d="M151.038 67.739L146.539 80.1259C146.539 80.1259 145.294 80.2549 144.101 79.9208C143.002 79.6114 141.736 78.7893 141.736 78.7893C141.736 78.7893 142.916 65.514 145.238 57.8831L151.038 67.739Z" fill="url(#paint4_linear_182_3420)"/>
<path d="M129.479 17.829C129.479 17.829 135.626 18.8282 136.367 21.4684C137.106 24.1085 141.46 39.6335 141.46 39.6335C141.46 39.6335 138.342 40.2175 136.889 38.7832C135.436 37.3507 131.776 25.4286 131.776 25.4286L129.479 17.829Z" fill="#181770"/>
<path d="M131.129 44.2885C126.75 44.6111 119.042 43.9428 118.743 43.1339C117.713 40.3366 118.421 39.4615 117.546 35.1737L119.617 29.2036C119.617 29.2036 119.315 35.837 121.282 37.569C123.246 39.2994 129.307 40.8791 130.267 42.3299C130.73 43.0263 131.036 43.7261 131.129 44.2885Z" fill="#32359A"/>
<path d="M126.089 41.5342C126.089 41.5342 130.405 40.54 131.105 40.9188C131.806 41.2977 133.52 42.6839 133.737 43.1686C133.953 43.6533 132.181 42.8096 131.606 42.6608C131.234 42.5632 130.256 42.9105 129.773 43.076C127.738 43.7707 126.485 43.43 126.485 43.43L126.089 41.5342Z" fill="#FFB27D"/>
<path d="M123.022 17.308C123.022 17.308 117.22 17.7066 115.232 20.5254C112.43 24.4923 106.939 41.3572 110.171 43.5789C113.81 46.0801 126.656 44.1231 126.656 44.1231C126.656 44.1231 127.069 42.1182 126.467 41.1538C125.865 40.1893 116.177 38.6939 115.728 38.2506C115.278 37.8072 121.249 29.4964 121.239 28.1548C121.231 26.8148 123.022 17.308 123.022 17.308Z" fill="#181770"/>
<path d="M131.322 42.1231C131.322 42.1231 132.236 43.2861 132.534 43.4234C132.831 43.5607 133.023 43.5243 133.023 43.5243L132.405 42.4292L131.322 42.1231Z" fill="#FFB27D"/>
<path d="M131.104 40.9205L133.745 42.181C133.745 42.181 133.634 42.3647 133.31 42.3531C132.986 42.3398 132.167 42.047 132.167 42.047L131.104 40.9205Z" fill="#FFB27D"/>
<path d="M131.97 45.3092L152.8 45.162L158.956 29.5245L138.159 29.6717L131.97 45.3092Z" fill="#233862"/>
<path d="M153.04 44.5532L125.535 44.7484L125.538 45.3555L152.8 45.1619L153.04 44.5532Z" fill="#233862"/>
<path d="M147.486 37.4036C147.64 36.8544 147.319 36.4127 146.772 36.416C146.225 36.4193 145.656 36.8676 145.503 37.4168C145.349 37.9661 145.67 38.4077 146.217 38.4044C146.766 38.4011 147.334 37.9528 147.486 37.4036Z" fill="#EBF3FA"/>
<path d="M379.051 263H0.523089C0.258616 263 0.0437317 262.783 0.0437317 262.52V262.226C0.0437317 261.961 0.260269 261.746 0.523089 261.746H379.051C379.316 261.746 379.532 261.963 379.532 262.226V262.52C379.532 262.785 379.316 263 379.051 263Z" fill="#233862"/>
<defs>
<linearGradient id="paint0_linear_182_3420" x1="295.195" y1="217.245" x2="311.864" y2="217.245" gradientUnits="userSpaceOnUse">
<stop stop-color="#F4B070"/>
<stop offset="1" stop-color="#E9747F"/>
</linearGradient>
<linearGradient id="paint1_linear_182_3420" x1="300.46" y1="215.232" x2="328.835" y2="215.232" gradientUnits="userSpaceOnUse">
<stop stop-color="#F4B070"/>
<stop offset="1" stop-color="#E9747F"/>
</linearGradient>
<linearGradient id="paint2_linear_182_3420" x1="141.735" y1="66.2046" x2="154.486" y2="66.2046" gradientUnits="userSpaceOnUse">
<stop stop-color="#F4B070"/>
<stop offset="1" stop-color="#E9747F"/>
</linearGradient>
<linearGradient id="paint3_linear_182_3420" x1="116.96" y1="59.2833" x2="171.816" y2="59.2833" gradientUnits="userSpaceOnUse">
<stop stop-color="#F4B070"/>
<stop offset="1" stop-color="#E9747F"/>
</linearGradient>
<linearGradient id="paint4_linear_182_3420" x1="141.735" y1="69.0168" x2="151.039" y2="69.0168" gradientUnits="userSpaceOnUse">
<stop stop-color="#F4B070"/>
<stop offset="1" stop-color="#E9747F"/>
</linearGradient>
</defs>
</svg>
