<svg width="212" height="158" viewBox="0 0 212 158" fill="none" xmlns="http://www.w3.org/2000/svg">
<g clip-path="url(#clip0_211_1511)">
<path d="M170.825 36.8667H0V68.4667H170.825V36.8667Z" fill="#003F7F"/>
<path d="M212 0H0V31.6H212V0Z" fill="#003F7F"/>
<path d="M109.064 73.7334H0V105.333H109.064V73.7334Z" fill="#007FBF"/>
<path d="M22.5398 87.334V100.067H17.9571V97.34C17.3338 99.1693 15.9615 100.284 13.0309 100.284C7.79382 100.284 4.30219 96.3189 4.30219 89.2237C4.30219 82.1284 7.9182 78.3196 13.7475 78.3196C18.5797 78.3196 21.853 80.7977 22.4762 85.4752H16.8024C16.4901 83.5546 15.5248 82.9346 13.7468 82.9346C11.253 82.9346 9.9746 84.7014 9.9746 89.2237C9.9746 93.7165 11.1279 95.668 13.6224 95.668C15.5862 95.668 16.7402 94.5529 17.0201 91.9504H13.3419V87.334H22.5398Z" fill="white"/>
<path d="M34.6026 95.9461H40.7754V100.067H26.2774V95.9461H29.6447V88.3874H26.2774V84.2667H34.6026V87.1788C35.787 85.0413 38.0943 83.8945 42.5519 83.8945V88.914C34.6648 88.3867 34.6026 90.369 34.6026 94.3963V95.9461Z" fill="white"/>
<path d="M63.2806 92.1042C63.2806 97.1237 59.6024 100.439 54.6458 100.439C49.6886 100.439 46.0097 97.1244 46.0097 92.1042C46.0097 87.1788 49.6878 83.8945 54.6458 83.8945C59.6017 83.8945 63.2806 87.1788 63.2806 92.1042ZM50.998 92.1042C50.998 94.6456 52.4622 96.3182 54.614 96.3182C56.7962 96.3182 58.2618 94.6463 58.2618 92.1042C58.2618 89.6577 56.7962 88.0152 54.614 88.0152C52.4629 88.0152 50.998 89.6577 50.998 92.1042Z" fill="white"/>
<path d="M83.1054 100.067H78.1489V97.7113C77.151 99.6024 75.4063 100.438 73.0043 100.438C69.2943 100.438 67.2068 97.8974 67.2068 94.149V84.2666H72.1634V92.8485C72.1634 94.8926 73.2552 96.0394 74.8134 96.0394C76.715 96.0394 78.1489 94.8315 78.1489 92.1975V84.2666H83.1054V100.067Z" fill="white"/>
<path d="M104.553 92.2292C104.553 97.1546 101.56 100.439 97.2889 100.439C95.5117 100.439 93.7033 99.8814 92.4878 98.3014H92.4574V105.333H87.4995V84.2667H92.4574V86.2814H92.5196C93.704 84.6698 95.3244 83.8953 97.3822 83.8953C101.497 83.8946 104.553 87.2723 104.553 92.2292ZM99.5326 92.1976C99.5326 89.657 98.0981 88.0152 95.9484 88.0152C93.7648 88.0152 92.3006 89.6577 92.3006 92.1358V92.3528C92.331 94.7376 93.7648 96.3183 95.9484 96.3183C98.1299 96.3183 99.5326 94.6758 99.5326 92.1976Z" fill="white"/>
<path d="M10.8487 46.7497V50.9946H21.6346V55.6412H10.8487V63.2H5.39257V42.1333H22.3526V46.7497H10.8487Z" fill="white"/>
<path d="M42.7385 55.2375C42.7385 60.257 39.0603 63.5722 34.1037 63.5722C29.1465 63.5722 25.4676 60.2577 25.4676 55.2375C25.4676 50.3121 29.1458 47.0278 34.1037 47.0278C39.0596 47.0278 42.7385 50.3121 42.7385 55.2375ZM30.4559 55.2375C30.4559 57.7789 31.9208 59.4515 34.0719 59.4515C36.2541 59.4515 37.7197 57.7789 37.7197 55.2375C37.7197 52.791 36.2541 51.1485 34.0719 51.1485C31.9201 51.1485 30.4559 52.791 30.4559 55.2375Z" fill="white"/>
<path d="M62.5633 63.1999H57.6068V60.8453C56.6089 62.7357 54.8635 63.5721 52.4629 63.5721C48.7529 63.5721 46.6654 61.0321 46.6654 57.2837V47.3999H51.622V55.9818C51.622 58.0259 52.7138 59.1727 54.2727 59.1727C56.1743 59.1727 57.6082 57.9641 57.6082 55.3308V47.3999H62.5647L62.5633 63.1999Z" fill="white"/>
<path d="M83.169 53.3183V63.2H78.211V54.6181C78.211 52.574 77.1199 51.4273 75.5603 51.4273C73.6587 51.4273 72.2249 52.6358 72.2249 55.2691V63.2H67.2683V47.4H72.2249V49.7546C73.2227 47.8649 74.9689 47.0278 77.3687 47.0278C81.0794 47.0278 83.169 49.5685 83.169 53.3183Z" fill="white"/>
<path d="M86.9059 55.2375C86.9059 50.3121 89.8986 47.0278 94.1711 47.0278C95.9484 47.0278 97.7553 47.5854 98.9715 49.1661H99.0033V42.1333H103.96V63.2H99.0033V61.186H98.9411C97.7553 62.7983 96.1349 63.5721 94.0778 63.5721C89.9622 63.5721 86.9059 60.1945 86.9059 55.2375ZM91.9253 55.2691C91.9253 57.809 93.3598 59.4515 95.5109 59.4515C97.6931 59.4515 99.1588 57.809 99.1588 55.3309V55.1139C99.127 52.7284 97.6931 51.1484 95.5109 51.1484C93.3288 51.1484 91.9253 52.7909 91.9253 55.2691Z" fill="white"/>
<path d="M107.759 55.3309C107.759 50.5291 111.188 47.0278 116.425 47.0278C121.664 47.0278 124.625 50.5909 124.625 55.7642V56.5071H112.966V56.5387C113.152 58.5211 114.43 59.6362 116.395 59.6362C117.954 59.6362 118.952 59.0169 119.45 58.1496H124.501C123.535 60.9999 121.227 63.5722 116.676 63.5722C111.157 63.5722 107.759 60.1327 107.759 55.3309ZM119.606 53.7207C119.418 51.8928 118.266 50.7468 116.395 50.7468C114.587 50.7468 113.34 51.8935 113.028 53.7207H119.606Z" fill="white"/>
<path d="M137.311 59.0794H143.483V63.2H128.985V59.0794H132.352V51.5206H128.985V47.4H137.31V50.3121C138.495 48.1739 140.802 47.0278 145.26 47.0278V52.0473C137.372 51.5199 137.31 53.5023 137.31 57.5303L137.311 59.0794Z" fill="white"/>
<path d="M157.416 50.5593C155.732 50.5593 154.61 51.0565 154.61 52.0157C154.61 52.883 155.546 53.0691 156.855 53.2545L160.533 53.72C163.027 54.0304 165.46 55.3007 165.46 58.2747C165.46 61.5582 162.467 63.5097 157.665 63.5097C152.428 63.5097 149.435 61.217 149.217 57.6532H154.143C154.267 59.078 155.608 59.8533 157.728 59.8533C159.536 59.8533 160.534 59.3273 160.534 58.46C160.534 57.9025 160.129 57.4369 158.726 57.2831L155.234 56.8491C152.054 56.4454 149.685 55.2066 149.685 52.2018C149.685 48.9491 152.554 47.0911 157.168 47.0911C161.969 47.0911 164.993 49.1036 165.305 52.3886H160.41C160.16 51.0249 158.789 50.5593 157.416 50.5593Z" fill="white"/>
<path d="M22.5709 20.5083C22.5709 24.103 19.7344 26.3333 15.7438 26.3333H5.3V5.2666H15.1827C19.0793 5.2666 22.0098 7.28128 22.0098 10.7194C22.0098 13.2916 20.3266 14.6848 17.5826 15.4278C20.6382 16.0485 22.5709 17.5344 22.5709 20.5083ZM10.7555 13.5697H13.686C15.6187 13.5697 16.6469 12.9805 16.6469 11.5866C16.6469 10.2236 15.6809 9.60353 13.8097 9.60353H10.7541L10.7555 13.5697ZM17.1777 19.7654C17.1777 18.309 16.148 17.6889 14.122 17.6889H10.7555V21.9647H13.8111C15.9933 21.9654 17.1777 21.2829 17.1777 19.7654Z" fill="white"/>
<path d="M43.1441 22.2126V26.3333H25.4979V22.2126H31.7336V9.38724H26.3707V5.2666H36.6597V22.2126H43.1441Z" fill="white"/>
<path d="M63.2806 18.3708C63.2806 23.3903 59.6024 26.7055 54.6458 26.7055C49.6886 26.7055 46.0097 23.391 46.0097 18.3708C46.0097 13.4454 49.6879 10.1611 54.6458 10.1611C59.6017 10.1611 63.2806 13.4454 63.2806 18.3708ZM50.998 18.3708C50.998 20.9122 52.4622 22.5848 54.614 22.5848C56.7962 22.5848 58.2618 20.9122 58.2618 18.3708C58.2618 15.9236 56.7962 14.2818 54.614 14.2818C52.4629 14.2818 50.998 15.9236 50.998 18.3708Z" fill="white"/>
<path d="M75.5299 26.7055C70.4794 26.7055 66.7998 23.2042 66.7998 18.3708C66.7998 13.569 70.4794 10.1611 75.4981 10.1611C79.9876 10.1611 83.5732 12.8563 83.6976 16.7297H78.6788C78.4287 15.2424 77.3376 14.2811 75.5299 14.2811C73.2545 14.2811 71.8199 15.8913 71.8199 18.3701C71.8199 20.9115 73.2545 22.5841 75.5299 22.5841C77.2747 22.5841 78.4916 21.6242 78.7092 19.8883H83.6976C83.605 23.9163 80.0505 26.7055 75.5299 26.7055Z" fill="white"/>
<path d="M96.2593 19.8279H92.7995V26.3333H87.874V5.2666H92.7995V15.7072H96.1667L99.0655 10.5333H104.989L100.405 17.566L105.488 26.3333H99.5319L96.2593 19.8279Z" fill="white"/>
<path d="M116.613 26.7055C111.563 26.7055 107.883 23.2042 107.883 18.3708C107.883 13.569 111.563 10.1611 116.582 10.1611C121.071 10.1611 124.657 12.8563 124.781 16.7297H119.762C119.512 15.2424 118.421 14.2811 116.613 14.2811C114.338 14.2811 112.903 15.8913 112.903 18.3701C112.903 20.9115 114.338 22.5841 116.613 22.5841C118.358 22.5841 119.575 21.6242 119.793 19.8883H124.781C124.687 23.9163 121.133 26.7055 116.613 26.7055Z" fill="white"/>
<path d="M144.824 16.4509V26.3333H139.868V17.7514C139.868 15.7065 138.777 14.5605 137.217 14.5605C135.315 14.5605 133.882 15.769 133.882 18.4024V26.3333H128.924V5.2666H133.882V12.8885C134.88 10.9995 136.625 10.1618 139.027 10.1618C142.705 10.1611 144.824 12.7031 144.824 16.4509Z" fill="white"/>
<path d="M148.531 18.3707C148.531 13.4453 151.804 10.1309 156.077 10.1309C157.883 10.1309 159.63 10.72 160.596 12.2993H160.628V10.5332H165.585V26.3332H160.628V24.3193H160.566C159.661 25.9309 158.04 26.7054 155.983 26.7054C151.868 26.7054 148.531 23.3277 148.531 18.3707ZM153.551 18.4023C153.551 20.9423 154.985 22.5848 157.137 22.5848C159.319 22.5848 160.783 20.9423 160.783 18.4641V18.2471C160.753 15.8624 159.318 14.2817 157.137 14.2817C154.954 14.2817 153.551 15.9235 153.551 18.4023Z" fill="white"/>
<path d="M206.419 16.451V26.3333H201.461V17.7515C201.461 15.7066 200.371 14.5606 198.811 14.5606C196.91 14.5606 195.476 15.7691 195.476 18.4024V26.3333H190.519V10.5333H195.476V12.8886C196.473 10.9996 198.22 10.1619 200.62 10.1619C204.331 10.1612 206.419 12.7032 206.419 16.451Z" fill="white"/>
<path d="M186.75 22.2126V26.3332H169.604V22.2126H175.714V14.6538H170.57V10.5332H180.673V22.2126H186.75Z" fill="white"/>
<path d="M180.671 2.6333H175.713V7.89997H180.671V2.6333Z" fill="white"/>
<path d="M48.6158 136.546C49.0405 133.872 53.5915 122.739 55.8486 121.763C55.3871 123.574 55.8648 125.275 56.852 126.859C58.4321 128.526 61.4341 127.104 61.1359 124.819C61.1026 124.185 60.8391 123.553 60.6313 122.944C60.4257 121.547 60.8179 120.136 60.3126 118.815C57.7241 113.955 52.7018 116.902 50.7267 120.678C47.5346 125.557 43.4586 130.337 42.4961 136.195C42.1173 138.204 42.8311 140.362 45.1793 140.508C46.127 140.767 46.6351 140.419 47.4661 140.169C49.3656 139.803 52.8855 136.039 56.8033 135.584C57.6032 139.747 52.5209 150.728 48.9331 153.315C47.3099 154.909 49.0787 146.727 46.233 146.51C41.6933 145.692 42.4509 151.538 42.5484 154.462C42.7215 156.891 45.3595 157.841 47.4739 157.991C47.9551 158.025 48.4031 157.978 48.8081 157.719C49.3402 157.547 49.8695 157.467 50.2475 157.034C51.6644 156.403 52.499 155.042 53.6869 154.089C57.6944 150.264 61.2199 145.85 62.9916 140.584C66.9016 129.252 54.1059 132.25 48.6158 136.546Z" fill="#DF9F3F"/>
<path d="M78.1142 117.598C76.4719 121.053 75.3109 125.095 74.5293 128.936C73.3259 131.19 72.4164 133.602 71.3239 135.905C70.8716 133.589 70.7154 131.2 71.0575 128.884C71.3839 126.759 71.6765 124.323 68.6887 125.554C67.9128 125.826 68.0131 126.85 67.6457 127.417C66.9355 128.96 66.5447 130.602 66.2938 132.234C66.067 134.827 65.2395 141.465 69.1205 141.486C70.1063 141.499 71.4723 141.075 71.6178 139.857C71.6334 138.554 72.4658 137.981 72.9944 137.115C73.6721 136.28 73.7873 135.215 74.4035 134.45C74.6791 135.449 74.8713 136.804 75.831 137.429C76.6465 137.926 78.5615 137.37 78.9771 136.134C79.7685 134.003 79.2548 131.76 79.3728 129.582C79.2767 127.446 79.5311 125.257 79.6654 123.118C79.8222 121.48 80.3628 119.869 80.4801 118.246C80.3423 117.237 78.5418 116.729 78.1142 117.598Z" fill="#DF9F3F"/>
<path d="M95.147 113.089C95.3152 111.815 94.3577 110.867 93.4072 110.146C91.1346 108.952 89.1015 111.686 87.539 112.978C86.7893 113.751 85.5745 113.417 84.6996 114.007C81.9316 115.426 81.2539 117.602 84.677 118.647C83.7181 125.2 81.372 131.768 82.0652 138.473C82.2532 140.154 84.7216 139.694 85.2346 138.463C86.6762 135.093 86.5052 131.32 87.8917 127.927C90.9233 127.141 93.2913 125.101 95.0396 122.576C96.1328 121.616 96.7561 120.203 96.9985 118.761C96.9985 118.761 97.1992 117.567 96.9907 116.727C97.0211 115.233 94.8488 114.506 95.147 113.089ZM88.7192 124.205C89.0011 122.192 89.1792 120.267 89.5884 118.341C90.8088 118.023 91.8589 117.406 92.8256 116.589C92.8751 116.709 92.9083 116.787 92.9245 116.827C93.1683 119.875 91.0109 122.429 88.7192 124.205Z" fill="#DF9F3F"/>
<path d="M109.388 120.143C107.571 118.808 105.655 120.476 103.874 121.025C103.905 120.317 103.69 118.787 104.428 118.436C105.975 117.66 107.704 116.995 108.808 115.615C109.825 114.361 109.079 112.91 107.966 112.026C106.987 111.363 105.77 111.91 104.814 112.303C104.895 111.715 104.484 110.957 104.882 110.563C106.042 109.762 107.192 109.056 108.263 108.152C109.706 106.91 107.945 104.255 106.544 104.694C105.856 104.838 105.559 104.126 105.209 104.408C103.027 105.446 101.091 106.844 99.0337 108.062C98.0224 108.663 97.2409 110.142 98.0034 111.078C98.6288 111.794 99.3206 112.898 100.414 112.495C99.8004 115.618 99.1185 118.676 98.544 121.782C97.9292 125.23 97.1624 129.434 102.279 127.607C105.101 126.538 108.061 125.133 110.297 123.102C111.084 122.086 110.212 120.776 109.388 120.143Z" fill="#DF9F3F"/>
<path d="M145.724 96.5288C145.296 96.6124 144.7 96.5337 144.328 96.8715C144.18 97.0716 143.963 97.1159 143.765 97.1973C141.976 97.6095 140.422 98.8033 138.82 99.5568C138.773 97.5386 139.543 95.6932 140.203 93.8021C140.655 92.6434 141.824 90.8654 142.327 90.6112C142.492 91.0072 142.816 91.3373 143.226 91.5381C143.495 91.8443 143.747 92.1118 144.099 92.2909C144.464 92.602 144.761 92.2031 145.116 92.3808C146.94 93.6209 146.905 91.4124 146.372 90.2432C145.859 88.0003 143.607 85.7343 141.321 86.8599C137.941 88.7131 136.429 92.8092 134.913 96.1173C134.515 97.625 132.398 102.847 134.708 103.24C135.873 103.454 136.635 103.604 137.618 102.828C139.863 101.951 141.265 99.7085 143.642 99.1467C143.427 103.216 139.855 109.872 136.768 112.439C136.508 111.25 136.893 109.933 136.263 108.758C135.957 108.143 135.961 107.03 135.04 106.945C133.732 106.605 132.824 107.672 132.436 108.757C132.383 108.966 132.383 108.966 132.481 109.203C132.357 109.578 132.378 110.634 132.842 112.202C132.995 112.787 132.743 113.075 132.701 113.649C132.665 114.131 133.342 115.033 133.923 115.391C130.232 113.951 126.481 112.661 122.696 111.517C125.967 109.846 128.258 106.729 128.921 103.168C129.083 101.989 129.251 100.486 128.27 99.5926C126.628 96.6566 124.253 96.894 122.055 97.8925C119.762 98.882 110.698 103.446 113.771 105.56C114.176 105.857 114.833 105.864 115.271 105.915C114.386 111.511 112.401 117.051 112.315 122.78C112.263 123.774 113.139 124.201 114.052 123.918C116.427 123.125 116.852 117.209 117.972 115.082C123.113 117.779 134.793 120.612 140.43 119.356C140.956 119.279 140.374 118.777 140.095 118.661C139.909 118.553 139.921 118.363 139.953 118.211C140.023 116.989 136.585 116.463 135.378 115.94C137.546 116.317 139.562 114.582 140.961 112.979C143.619 110.959 145.207 107.714 146.604 104.684C147.69 102.249 150.306 96.7732 145.724 96.5288ZM120.867 111.16C119.985 111.059 119.314 111.243 118.82 111.399C119.111 108.964 120.101 106.751 120.299 104.309C121.657 103.983 122.823 103.317 124.032 102.634C123.477 104.993 122.231 106.71 121.16 108.954C120.635 109.819 121.027 110.538 120.867 111.16Z" fill="#DF9F3F"/>
<path d="M165.376 81.172C163.595 79.5899 158.479 82.7604 156.003 84.1045C151.654 86.5433 150.18 85.806 148.059 87.8831C147.425 88.6071 146.485 89.5959 147.209 90.5474C147.706 91.1759 148.217 91.8458 149.104 91.85C150.921 91.6133 152.429 90.5284 154.158 89.862C153.93 91.6688 153.653 93.357 153.465 95.1476C153.19 98.9649 152.807 103.197 155.001 106.555C155.171 106.854 155.587 106.73 155.624 105.927C156.867 105.324 157.588 104.702 157.821 103.356C158.404 100.385 158.64 97.3695 159.108 94.3534C159.443 92.1309 159.938 89.8444 159.208 87.6458C161.035 85.8748 168.682 84.6269 165.376 81.172Z" fill="#DF9F3F"/>
<path d="M178.396 75.2115C177.148 74.7979 176.343 75.5471 175.858 76.6258C174.969 75.8343 173.638 74.9931 172.617 76.0162C170.456 78.1081 169.175 80.8581 168.013 83.5588C167.118 85.7799 166.168 87.9765 165.388 90.2411C165.166 91.397 164.448 92.0171 163.502 92.5458C161.803 93.8471 164.053 94.5416 163.759 95.6349C163.405 97.3547 161.31 102.522 164.714 101.954C166.323 101.895 166.901 96.3329 167.698 94.892C168.08 93.3457 168.621 92.5213 170.136 91.8977C171.23 91.4946 172.232 90.4343 173.385 90.2833C173.553 92.4819 172.79 95.0184 174.001 97.0211C174.857 97.7339 176.18 97.3266 177.007 96.8491C178.047 96.097 177.595 94.3379 177.024 93.4152C177.421 91.6779 177.889 90.0038 178.211 88.2047C179.683 86.8108 180.698 86.44 179.006 84.4036C179.204 82.1937 181.413 75.9601 178.396 75.2115ZM174.256 82.193C174.032 83.4422 173.88 84.7547 173.709 86.0299C172.587 86.584 171.546 87.1043 170.48 87.6829C170.507 86.7448 171.249 85.8375 171.567 84.9211C172.291 83.1866 173.186 81.5217 174.61 80.2415L174.723 80.2871C174.561 80.91 174.402 81.5301 174.256 82.193Z" fill="#DF9F3F"/>
<path d="M204.128 67.2589C202.591 69.2806 201.055 71.3016 199.903 73.5796C199.2 75.2579 196.263 81.191 200.278 80.1861C200.553 80.0723 200.688 79.8308 200.821 79.5913C201.406 78.9811 202.309 78.7943 202.985 78.2838C203.882 77.6377 204.779 76.9896 205.529 76.2185C205.61 76.1848 205.632 76.1287 205.704 76.1919C203.997 79.7325 201.871 83.0259 199.571 86.2062C198.492 86.1114 197.424 85.9829 196.443 85.5609C194.766 83.8896 192.21 83.9233 190.022 83.7119C193.226 81.6523 199.378 76.4812 195.244 72.7201C194.352 71.9294 193.015 71.1836 191.728 71.3416C188.691 71.6667 186.476 73.9672 185.073 76.5352C182.249 75.4756 178.269 97.1616 181.551 95.0697C183.277 95.517 183.875 93.9265 184.092 92.5417C184.703 90.7616 185.073 88.8508 185.74 87.0946C186.298 87.4211 187.069 87.1486 187.523 87.5629C188.992 89.1809 191.37 89.4063 193.433 89.7616C194.469 89.9119 195.512 90.0102 196.551 90.1429C195.663 91.1457 194.764 92.1442 193.871 93.1463C192.755 94.1617 191.649 95.3106 191.232 96.7796C191.363 96.8653 191.45 96.9664 191.598 97.0928C191.829 97.09 191.829 97.09 192.031 97.2389C192.825 97.4664 193.716 96.9144 194.295 96.399C196.493 94.7354 198.271 92.6962 199.936 90.5565C202.864 90.8627 205.797 91.1028 208.73 91.1983C209.545 91.1401 210.617 91.0228 210.856 90.1366C210.899 89.565 210.992 88.7855 210.269 88.6198C207.725 88.1549 205.319 87.3572 202.836 86.6795C205.653 82.8419 209.623 77.5668 209.745 73.232C209.869 72.0705 208.418 71.2784 207.482 71.9413C205.476 73.1835 204.207 75.2811 202.437 76.7508C202.396 75.9798 203.206 74.9054 203.534 74.1224C204.789 71.7545 205.991 69.2693 207.795 67.3228C207.943 67.6781 208.139 67.9218 208.43 68.1718C209.164 68.7026 211.317 69.3922 211.179 67.8284C211.642 67.5903 211.861 67.2231 211.839 66.7238C211.772 65.7786 212.072 64.8222 211.983 63.9332C210.177 60.0457 205.581 65.3643 204.128 67.2589ZM187.189 82.2871C187.085 82.3749 186.998 82.5034 186.8 82.5849C186.937 81.2338 187.186 79.927 187.185 78.585C187.2 78.3926 187.287 78.2641 187.43 78.1602C189.225 77.097 191.42 74.2952 193.353 74.0093C193.115 77.5787 189.545 79.8813 187.189 82.2871Z" fill="#DF9F3F"/>
</g>
<defs>
<clipPath id="clip0_211_1511">
<rect width="212" height="158" fill="white"/>
</clipPath>
</defs>
</svg>
